solid Graber_Alu_Testes
facet normal -1.0 -1.5134508556206531e-13 -1.7562091250367316e-14
  outer loop
    vertex -54.65579968384501 9.59971617391514 26.674267753262747
    vertex -54.65579968384563 13.59971617391442 27.99687889498618
    vertex -54.65579968384561 13.599716173915144 26.674267753265003
  endloop
endfacet
facet normal -1.0 -1.5134508556206531e-13 -1.7562091250367316e-14
  outer loop
    vertex -54.65579968384563 13.59971617391442 27.99687889498618
    vertex -54.65579968384501 9.59971617391514 26.674267753262747
    vertex -54.655799683845025 9.599716173914414 27.996878894983936
  endloop
endfacet
facet normal 1.0 1.5099258975176965e-13 -2.111276275391434e-14
  outer loop
    vertex -37.96780072144321 17.599716173915915 27.99687889498855
    vertex -37.96780072144263 13.599716173916654 26.674267350787723
    vertex -37.967800721443226 17.59971617391664 26.674267350789986
  endloop
endfacet
facet normal 1.0 1.5099258975176965e-13 -2.111276275391434e-14
  outer loop
    vertex -37.96780072144263 13.599716173916654 26.674267350787723
    vertex -37.96780072144321 17.599716173915915 27.99687889498855
    vertex -37.967800721442615 13.599716173915912 27.99687889498628
  endloop
endfacet
facet normal 0.3826834323651771 -0.9238795325112508 -5.303460901175494e-13
  outer loop
    vertex -39.96780072144228 10.135614558779857 24.672518948794384
    vertex -40.93252454103211 9.736012868759376 27.996878894984064
    vertex -40.93252454103219 9.736012868761797 23.706951766680586
  endloop
endfacet
facet normal 0.3826834323651771 -0.9238795325112508 -5.303460901175494e-13
  outer loop
    vertex -40.93252454103211 9.736012868759376 27.996878894984064
    vertex -39.96780072144228 10.135614558779857 24.672518948794384
    vertex -39.967800721442224 10.135614558777986 27.99687889498431
  endloop
endfacet
facet normal 0.9914448613738249 -0.13052619221994133 -9.272583942987662e-14
  outer loop
    vertex -37.96780072144263 13.599716173916654 26.674267350787723
    vertex -38.104097416286216 12.564439993505832 27.996878894985684
    vertex -38.104097416286216 12.564439993506626 26.537851505237093
  endloop
endfacet
facet normal 0.9914448613738249 -0.13052619221994133 -9.272583942987662e-14
  outer loop
    vertex -38.104097416286216 12.564439993505832 27.996878894985684
    vertex -37.96780072144263 13.599716173916654 26.674267350787723
    vertex -37.967800721442615 13.599716173915912 27.99687889498628
  endloop
endfacet
facet normal 0.7933533402912978 -0.608761429008639 -3.591921495721443e-13
  outer loop
    vertex -38.50369910630466 11.599716173916908 26.137900483022726
    vertex -39.1393735966961 10.771289049169628 27.996878894984658
    vertex -39.13937359669614 10.771289049171035 25.501670285358248
  endloop
endfacet
facet normal 0.7933533402912978 -0.608761429008639 -3.591921495721443e-13
  outer loop
    vertex -39.1393735966961 10.771289049169628 27.996878894984658
    vertex -38.50369910630466 11.599716173916908 26.137900483022726
    vertex -38.50369910630462 11.599716173915878 27.996878894985144
  endloop
endfacet
facet normal 0.6087614290087965 -0.7933533402911771 -4.609398458840442e-13
  outer loop
    vertex -39.13937359669614 10.771289049171035 25.501670285358248
    vertex -39.967800721442224 10.135614558777986 27.99687889498431
    vertex -39.96780072144228 10.135614558779857 24.672518948794384
  endloop
endfacet
facet normal 0.6087614290087965 -0.7933533402911771 -4.609398458840442e-13
  outer loop
    vertex -39.967800721442224 10.135614558777986 27.99687889498431
    vertex -39.13937359669614 10.771289049171035 25.501670285358248
    vertex -39.1393735966961 10.771289049169628 27.996878894984658
  endloop
endfacet
facet normal -0.9238795325113278 0.38268343236499053 1.9967792272846033e-13
  outer loop
    vertex -54.51950298900199 14.634992354325327 26.53785190771554
    vertex -54.119901298983585 15.599716173914464 27.996878894987326
    vertex -54.119901298983585 15.59971617391552 26.13790088550225
  endloop
endfacet
facet normal -0.9238795325113278 0.38268343236499053 1.9967792272846033e-13
  outer loop
    vertex -54.119901298983585 15.599716173914464 27.996878894987326
    vertex -54.51950298900199 14.634992354325327 26.53785190771554
    vertex -54.51950298900202 14.634992354324513 27.996878894986768
  endloop
endfacet
facet normal 0.1305261922201409 -0.9914448613737987 -5.630793963656772e-13
  outer loop
    vertex -40.98482134275159 9.729127864199642 23.654609247045023
    vertex -41.96780072144216 9.599716173915557 27.996878894983983
    vertex -41.96780072144225 9.59971617391801 23.654609247044963
  endloop
endfacet
facet normal 0.1305261922201409 -0.9914448613737987 -5.630793963656772e-13
  outer loop
    vertex -41.96780072144216 9.599716173915557 27.996878894983983
    vertex -40.98482134275159 9.729127864199642 23.654609247045023
    vertex -40.93252454103211 9.736012868759376 27.996878894984064
  endloop
endfacet
facet normal 0.1305261922201409 -0.9914448613737987 -5.630793963656772e-13
  outer loop
    vertex -40.93252454103211 9.736012868759376 27.996878894984064
    vertex -40.98482134275159 9.729127864199642 23.654609247045023
    vertex -40.93252454103219 9.736012868761797 23.706951766680586
  endloop
endfacet
facet normal 0.923879532511327 -0.3826834323649924 -2.3363519178716266e-13
  outer loop
    vertex -38.104097416286216 12.564439993506626 26.537851505237093
    vertex -38.50369910630462 11.599716173915878 27.996878894985144
    vertex -38.50369910630466 11.599716173916908 26.137900483022726
  endloop
endfacet
facet normal 0.923879532511327 -0.3826834323649924 -2.3363519178716266e-13
  outer loop
    vertex -38.50369910630462 11.599716173915878 27.996878894985144
    vertex -38.104097416286216 12.564439993506626 26.537851505237093
    vertex -38.104097416286216 12.564439993505832 27.996878894985684
  endloop
endfacet
facet normal -0.9914448613738249 0.1305261922199424 5.652752169256963e-14
  outer loop
    vertex -54.65579968384561 13.599716173915144 26.674267753265003
    vertex -54.51950298900202 14.634992354324513 27.996878894986768
    vertex -54.51950298900199 14.634992354325327 26.53785190771554
  endloop
endfacet
facet normal -0.9914448613738249 0.1305261922199424 5.652752169256963e-14
  outer loop
    vertex -54.51950298900202 14.634992354324513 27.996878894986768
    vertex -54.65579968384561 13.599716173915144 26.674267753265003
    vertex -54.65579968384563 13.59971617391442 27.99687889498618
  endloop
endfacet
facet normal -0.38268343236517566 0.9238795325112513 5.15875002552014e-13
  outer loop
    vertex -51.691075864256135 17.463419479070975 27.99687889498836
    vertex -52.65579968384595 17.063817789054223 24.672519351275554
    vertex -52.655799683845984 17.063817789052344 27.996878894988132
  endloop
endfacet
facet normal -0.38268343236517566 0.9238795325112513 5.15875002552014e-13
  outer loop
    vertex -52.65579968384595 17.063817789054223 24.672519351275554
    vertex -51.691075864256135 17.463419479070975 27.99687889498836
    vertex -51.69107586425609 17.46341947907338 23.706952169162196
  endloop
endfacet
facet normal -0.793353340291298 0.6087614290086388 3.2933541750327925e-13
  outer loop
    vertex -54.119901298983585 15.59971617391552 26.13790088550225
    vertex -53.484226808592126 16.428143298660714 27.996878894987784
    vertex -53.484226808592084 16.428143298662118 25.501670687838693
  endloop
endfacet
facet normal -0.793353340291298 0.6087614290086388 3.2933541750327925e-13
  outer loop
    vertex -53.484226808592126 16.428143298660714 27.996878894987784
    vertex -54.119901298983585 15.59971617391552 26.13790088550225
    vertex -54.119901298983585 15.599716173914464 27.996878894987326
  endloop
endfacet
facet normal -0.608761429008798 0.7933533402911758 4.371757125930063e-13
  outer loop
    vertex -52.655799683845984 17.063817789052344 27.996878894988132
    vertex -53.484226808592084 16.428143298662118 25.501670687838693
    vertex -53.484226808592126 16.428143298660714 27.996878894987784
  endloop
endfacet
facet normal -0.608761429008798 0.7933533402911758 4.371757125930063e-13
  outer loop
    vertex -53.484226808592084 16.428143298662118 25.501670687838693
    vertex -52.655799683845984 17.063817789052344 27.996878894988132
    vertex -52.65579968384595 17.063817789054223 24.672519351275554
  endloop
endfacet
facet normal -0.13052619222014095 0.9914448613737987 5.58644275743132e-13
  outer loop
    vertex -50.65579968384607 17.599716173914768 27.996878894988427
    vertex -51.69107586425609 17.46341947907338 23.706952169162196
    vertex -51.691075864256135 17.463419479070975 27.99687889498836
  endloop
endfacet
facet normal -0.13052619222014095 0.9914448613737987 5.58644275743132e-13
  outer loop
    vertex -51.69107586425609 17.46341947907338 23.706952169162196
    vertex -50.65579968384607 17.599716173914768 27.996878894988427
    vertex -51.638778660410985 17.470304536576457 23.654609247049397
  endloop
endfacet
facet normal -0.13052619222014095 0.9914448613737987 5.58644275743132e-13
  outer loop
    vertex -51.638778660410985 17.470304536576457 23.654609247049397
    vertex -50.65579968384607 17.599716173914768 27.996878894988427
    vertex -50.65579968384601 17.599716173917226 23.654609247049454
  endloop
endfacet
facet normal -0.7074156553548041 3.054221726826032e-13 -0.7067977720387446
  outer loop
    vertex -51.638778660409955 9.599716173917113 23.65460924704497
    vertex -51.69107586425609 17.46341947907338 23.706952169162196
    vertex -51.638778660410985 17.470304536576457 23.654609247049397
  endloop
endfacet
facet normal -0.7074156553548041 3.054221726826032e-13 -0.7067977720387446
  outer loop
    vertex -51.69107586425609 17.46341947907338 23.706952169162196
    vertex -51.638778660409955 9.599716173917113 23.65460924704497
    vertex -54.65579968384501 9.59971617391514 26.674267753262747
  endloop
endfacet
facet normal -0.7074156553548041 3.054221726826032e-13 -0.7067977720387446
  outer loop
    vertex -51.69107586425609 17.46341947907338 23.706952169162196
    vertex -54.65579968384501 9.59971617391514 26.674267753262747
    vertex -52.65579968384595 17.063817789054223 24.672519351275554
  endloop
endfacet
facet normal -0.7074156553548041 3.054221726826032e-13 -0.7067977720387446
  outer loop
    vertex -52.65579968384595 17.063817789054223 24.672519351275554
    vertex -54.65579968384501 9.59971617391514 26.674267753262747
    vertex -53.484226808592084 16.428143298662118 25.501670687838693
  endloop
endfacet
facet normal -0.7074156553548041 3.054221726826032e-13 -0.7067977720387446
  outer loop
    vertex -53.484226808592084 16.428143298662118 25.501670687838693
    vertex -54.65579968384501 9.59971617391514 26.674267753262747
    vertex -54.119901298983585 15.59971617391552 26.13790088550225
  endloop
endfacet
facet normal -0.7074156553548041 3.054221726826032e-13 -0.7067977720387446
  outer loop
    vertex -54.119901298983585 15.59971617391552 26.13790088550225
    vertex -54.65579968384501 9.59971617391514 26.674267753262747
    vertex -54.51950298900199 14.634992354325327 26.53785190771554
  endloop
endfacet
facet normal -0.7074156553548041 3.054221726826032e-13 -0.7067977720387446
  outer loop
    vertex -54.51950298900199 14.634992354325327 26.53785190771554
    vertex -54.65579968384501 9.59971617391514 26.674267753262747
    vertex -54.65579968384561 13.599716173915144 26.674267753265003
  endloop
endfacet
facet normal 0.7074156553547968 4.934295006853159e-13 -0.7067977720387518
  outer loop
    vertex -37.967800721443226 17.59971617391664 26.674267350789986
    vertex -40.98482134275159 9.729127864199642 23.654609247045023
    vertex -40.98482134275263 17.59971617391808 23.654609247049482
  endloop
endfacet
facet normal 0.7074156553547968 4.934295006853159e-13 -0.7067977720387518
  outer loop
    vertex -40.98482134275159 9.729127864199642 23.654609247045023
    vertex -37.967800721443226 17.59971617391664 26.674267350789986
    vertex -40.93252454103219 9.736012868761797 23.706951766680586
  endloop
endfacet
facet normal 0.7074156553547968 4.934295006853159e-13 -0.7067977720387518
  outer loop
    vertex -40.93252454103219 9.736012868761797 23.706951766680586
    vertex -37.967800721443226 17.59971617391664 26.674267350789986
    vertex -39.96780072144228 10.135614558779857 24.672518948794384
  endloop
endfacet
facet normal 0.7074156553547968 4.934295006853159e-13 -0.7067977720387518
  outer loop
    vertex -39.96780072144228 10.135614558779857 24.672518948794384
    vertex -37.967800721443226 17.59971617391664 26.674267350789986
    vertex -39.13937359669614 10.771289049171035 25.501670285358248
  endloop
endfacet
facet normal 0.7074156553547968 4.934295006853159e-13 -0.7067977720387518
  outer loop
    vertex -39.13937359669614 10.771289049171035 25.501670285358248
    vertex -37.967800721443226 17.59971617391664 26.674267350789986
    vertex -38.50369910630466 11.599716173916908 26.137900483022726
  endloop
endfacet
facet normal 0.7074156553547968 4.934295006853159e-13 -0.7067977720387518
  outer loop
    vertex -38.50369910630466 11.599716173916908 26.137900483022726
    vertex -37.967800721443226 17.59971617391664 26.674267350789986
    vertex -38.104097416286216 12.564439993506626 26.537851505237093
  endloop
endfacet
facet normal 0.7074156553547968 4.934295006853159e-13 -0.7067977720387518
  outer loop
    vertex -38.104097416286216 12.564439993506626 26.537851505237093
    vertex -37.967800721443226 17.59971617391664 26.674267350789986
    vertex -37.96780072144263 13.599716173916654 26.674267350787723
  endloop
endfacet
facet normal -3.7413983406489956e-17 5.638539779583651e-13 -1.0
  outer loop
    vertex -40.98482134275263 17.59971617391808 23.654609247049482
    vertex -44.51598799692632 16.699716173917636 23.654609247048995
    vertex -50.65579968384601 17.599716173917226 23.654609247049454
  endloop
endfacet
facet normal -3.7413983406489956e-17 5.638539779583651e-13 -1.0
  outer loop
    vertex -44.51598799692632 16.699716173917636 23.654609247048995
    vertex -40.98482134275263 17.59971617391808 23.654609247049482
    vertex -42.72620216243843 13.599716173917663 23.654609247047283
  endloop
endfacet
facet normal -3.7413983406489956e-17 5.638539779583651e-13 -1.0
  outer loop
    vertex -42.72620216243843 13.599716173917663 23.654609247047283
    vertex -40.98482134275263 17.59971617391808 23.654609247049482
    vertex -40.98482134275159 9.729127864199642 23.654609247045023
  endloop
endfacet
facet normal -3.7413983406489956e-17 5.638539779583651e-13 -1.0
  outer loop
    vertex -50.65579968384601 17.599716173917226 23.654609247049454
    vertex -44.51598799692632 16.699716173917636 23.654609247048995
    vertex -51.638778660410985 17.470304536576457 23.654609247049397
  endloop
endfacet
facet normal -3.7413983406489956e-17 5.638539779583651e-13 -1.0
  outer loop
    vertex -51.638778660410985 17.470304536576457 23.654609247049397
    vertex -44.51598799692632 16.699716173917636 23.654609247048995
    vertex -48.095559665901995 16.699716173917583 23.654609247048967
  endloop
endfacet
facet normal -3.7413983406489956e-17 5.638539779583651e-13 -1.0
  outer loop
    vertex -42.72620216243843 13.599716173917663 23.654609247047283
    vertex -40.98482134275159 9.729127864199642 23.654609247045023
    vertex -44.51598799692622 10.49971617391764 23.654609247045496
  endloop
endfacet
facet normal -3.7413983406489956e-17 5.638539779583651e-13 -1.0
  outer loop
    vertex -44.51598799692622 10.49971617391764 23.654609247045496
    vertex -40.98482134275159 9.729127864199642 23.654609247045023
    vertex -48.0955596659019 10.499716173917585 23.65460924704548
  endloop
endfacet
facet normal -3.7413983406489956e-17 5.638539779583651e-13 -1.0
  outer loop
    vertex -51.638778660410985 17.470304536576457 23.654609247049397
    vertex -49.88534550038979 13.599716173917557 23.654609247047198
    vertex -51.638778660409955 9.599716173917113 23.65460924704497
  endloop
endfacet
facet normal -3.7413983406489956e-17 5.638539779583651e-13 -1.0
  outer loop
    vertex -49.88534550038979 13.599716173917557 23.654609247047198
    vertex -51.638778660410985 17.470304536576457 23.654609247049397
    vertex -48.095559665901995 16.699716173917583 23.654609247048967
  endloop
endfacet
facet normal -3.7413983406489956e-17 5.638539779583651e-13 -1.0
  outer loop
    vertex -51.638778660409955 9.599716173917113 23.65460924704497
    vertex -49.88534550038979 13.599716173917557 23.654609247047198
    vertex -48.0955596659019 10.499716173917585 23.65460924704548
  endloop
endfacet
facet normal -3.7413983406489956e-17 5.638539779583651e-13 -1.0
  outer loop
    vertex -51.638778660409955 9.599716173917113 23.65460924704497
    vertex -48.0955596659019 10.499716173917585 23.65460924704548
    vertex -40.98482134275159 9.729127864199642 23.654609247045023
  endloop
endfacet
facet normal -3.7413983406489956e-17 5.638539779583651e-13 -1.0
  outer loop
    vertex -51.638778660409955 9.599716173917113 23.65460924704497
    vertex -40.98482134275159 9.729127864199642 23.654609247045023
    vertex -41.96780072144225 9.59971617391801 23.654609247044963
  endloop
endfacet
facet normal -0.9914448613740569 0.1305261922181805 5.750412118464266e-14
  outer loop
    vertex -44.760292509350855 13.185605701754575 27.054609247047015
    vertex -44.70577383141419 13.599716173917153 29.7988789885512
    vertex -44.705773831414156 13.599716173918715 27.054609247047246
  endloop
endfacet
facet normal -0.9914448613740569 0.1305261922181805 5.750412118464266e-14
  outer loop
    vertex -44.70577383141419 13.599716173917153 29.7988789885512
    vertex -44.760292509350855 13.185605701754575 27.054609247047015
    vertex -44.7602925093509 13.185605701753014 29.798878988550964
  endloop
endfacet
facet normal -0.991444861373564 -0.1305261922219234 -9.064015274054486e-14
  outer loop
    vertex -44.705773831414156 13.599716173918715 27.054609247047246
    vertex -44.76029250935246 14.013826646081084 29.798878988551433
    vertex -44.76029250935243 14.013826646082645 27.05460924704748
  endloop
endfacet
facet normal -0.991444861373564 -0.1305261922219234 -9.064015274054486e-14
  outer loop
    vertex -44.76029250935246 14.013826646081084 29.798878988551433
    vertex -44.705773831414156 13.599716173918715 27.054609247047246
    vertex -44.70577383141419 13.599716173917153 29.7988789885512
  endloop
endfacet
facet normal -0.9238795325105666 -0.3826834323668286 -2.326070170309913e-13
  outer loop
    vertex -44.76029250935243 14.013826646082645 27.05460924704748
    vertex -44.9201331853606 14.399716173916747 29.798878988551653
    vertex -44.92013318536056 14.39971617391831 27.0546092470477
  endloop
endfacet
facet normal -0.9238795325105666 -0.3826834323668286 -2.326070170309913e-13
  outer loop
    vertex -44.9201331853606 14.399716173916747 29.798878988551653
    vertex -44.76029250935243 14.013826646082645 27.05460924704748
    vertex -44.76029250935246 14.013826646081084 29.798878988551433
  endloop
endfacet
facet normal -0.793353340290087 -0.608761429010217 -3.5871930538294353e-13
  outer loop
    vertex -44.92013318536056 14.39971617391831 27.0546092470477
    vertex -45.174402981517844 14.73108702381474 29.798878988551834
    vertex -45.17440298151781 14.731087023816302 27.054609247047882
  endloop
endfacet
facet normal -0.793353340290087 -0.608761429010217 -3.5871930538294353e-13
  outer loop
    vertex -45.174402981517844 14.73108702381474 29.798878988551834
    vertex -44.92013318536056 14.39971617391831 27.0546092470477
    vertex -44.9201331853606 14.399716173916747 29.798878988551653
  endloop
endfacet
facet normal -0.6087614290072177 -0.7933533402923885 -4.603890469715262e-13
  outer loop
    vertex -45.505773831416754 14.985356819972305 27.054609247048024
    vertex -45.174402981517844 14.73108702381474 29.798878988551834
    vertex -45.505773831416796 14.985356819970743 29.798878988551976
  endloop
endfacet
facet normal -0.6087614290072177 -0.7933533402923885 -4.603890469715262e-13
  outer loop
    vertex -45.174402981517844 14.73108702381474 29.798878988551834
    vertex -45.505773831416754 14.985356819972305 27.054609247048024
    vertex -45.17440298151781 14.731087023816302 27.054609247047882
  endloop
endfacet
facet normal -0.3826834323633531 -0.9238795325120063 -5.30683926953717e-13
  outer loop
    vertex -45.89166335925304 15.14519749597898 27.054609247048123
    vertex -45.505773831416796 14.985356819970743 29.798878988551976
    vertex -45.89166335925307 15.145197495977419 29.798878988552076
  endloop
endfacet
facet normal -0.3826834323633531 -0.9238795325120063 -5.30683926953717e-13
  outer loop
    vertex -45.505773831416796 14.985356819970743 29.798878988551976
    vertex -45.89166335925304 15.14519749597898 27.054609247048123
    vertex -45.505773831416754 14.985356819972305 27.054609247048024
  endloop
endfacet
facet normal -0.13052619221819467 -0.9914448613740551 -5.648114433581191e-13
  outer loop
    vertex -46.30577383141717 15.199716173915698 27.05460924704814
    vertex -45.89166335925307 15.145197495977419 29.798878988552076
    vertex -46.305773831417206 15.199716173914135 29.798878988552094
  endloop
endfacet
facet normal -0.13052619221819467 -0.9914448613740551 -5.648114433581191e-13
  outer loop
    vertex -45.89166335925307 15.145197495977419 29.798878988552076
    vertex -46.30577383141717 15.199716173915698 27.05460924704814
    vertex -45.89166335925304 15.14519749597898 27.054609247048123
  endloop
endfacet
facet normal 0.13052619222193093 -0.9914448613735631 -5.604480284386967e-13
  outer loop
    vertex -46.7198843035811 15.145197495977424 27.054609247048102
    vertex -46.305773831417206 15.199716173914135 29.798878988552094
    vertex -46.71988430358113 15.14519749597586 29.798878988552055
  endloop
endfacet
facet normal 0.13052619222193093 -0.9914448613735631 -5.604480284386967e-13
  outer loop
    vertex -46.305773831417206 15.199716173914135 29.798878988552094
    vertex -46.7198843035811 15.145197495977424 27.054609247048102
    vertex -46.30577383141717 15.199716173915698 27.05460924704814
  endloop
endfacet
facet normal 0.38268343236682023 -0.9238795325105699 -5.178952716211873e-13
  outer loop
    vertex -47.10577383141675 14.985356819969295 27.054609247048017
    vertex -46.71988430358113 15.14519749597586 29.798878988552055
    vertex -47.1057738314168 14.985356819967734 29.79887898855197
  endloop
endfacet
facet normal 0.38268343236682023 -0.9238795325105699 -5.178952716211873e-13
  outer loop
    vertex -46.71988430358113 15.14519749597586 29.798878988552055
    vertex -47.10577383141675 14.985356819969295 27.054609247048017
    vertex -46.7198843035811 15.145197495977424 27.054609247048102
  endloop
endfacet
facet normal 0.6087614290102206 -0.7933533402900843 -4.400472742931492e-13
  outer loop
    vertex -47.43714468131476 14.731087023812039 27.05460924704787
    vertex -47.1057738314168 14.985356819967734 29.79887898855197
    vertex -47.43714468131479 14.731087023810476 29.798878988551824
  endloop
endfacet
facet normal 0.6087614290102206 -0.7933533402900843 -4.400472742931492e-13
  outer loop
    vertex -47.1057738314168 14.985356819967734 29.79887898855197
    vertex -47.43714468131476 14.731087023812039 27.05460924704787
    vertex -47.10577383141675 14.985356819969295 27.054609247048017
  endloop
endfacet
facet normal 0.793353340292381 -0.6087614290072274 -3.3220571072850997e-13
  outer loop
    vertex -47.43714468131479 14.731087023810476 29.798878988551824
    vertex -47.691414477470765 14.399716173913083 27.054609247047686
    vertex -47.43714468131476 14.731087023812039 27.05460924704787
  endloop
endfacet
facet normal 0.793353340292381 -0.6087614290072274 -3.3220571072850997e-13
  outer loop
    vertex -47.691414477470765 14.399716173913083 27.054609247047686
    vertex -47.43714468131479 14.731087023810476 29.798878988551824
    vertex -47.6914144774708 14.399716173911523 29.798878988551635
  endloop
endfacet
facet normal 0.9238795325120083 -0.3826834323633478 -2.0172778265351406e-13
  outer loop
    vertex -47.6914144774708 14.399716173911523 29.798878988551635
    vertex -47.851255153477446 14.013826646076817 27.05460924704746
    vertex -47.691414477470765 14.399716173913083 27.054609247047686
  endloop
endfacet
facet normal 0.9238795325120083 -0.3826834323633478 -2.0172778265351406e-13
  outer loop
    vertex -47.851255153477446 14.013826646076817 27.05460924704746
    vertex -47.6914144774708 14.399716173911523 29.798878988551635
    vertex -47.851255153477474 14.013826646075254 29.79887898855141
  endloop
endfacet
facet normal 0.9914448613740562 -0.13052619221818557 -5.750354564837834e-14
  outer loop
    vertex -47.851255153477474 14.013826646075254 29.79887898855141
    vertex -47.90577383141415 13.59971617391268 27.054609247047235
    vertex -47.851255153477446 14.013826646076817 27.05460924704746
  endloop
endfacet
facet normal 0.9914448613740562 -0.13052619221818557 -5.750354564837834e-14
  outer loop
    vertex -47.90577383141415 13.59971617391268 27.054609247047235
    vertex -47.851255153477474 14.013826646075254 29.79887898855141
    vertex -47.90577383141419 13.599716173911121 29.798878988551184
  endloop
endfacet
facet normal 0.9914448613735649 0.13052619222191672 9.064072827680836e-14
  outer loop
    vertex -47.90577383141419 13.599716173911121 29.798878988551184
    vertex -47.85125515347587 13.185605701748752 27.05460924704699
    vertex -47.90577383141415 13.59971617391268 27.054609247047235
  endloop
endfacet
facet normal 0.9914448613735649 0.13052619222191672 9.064072827680836e-14
  outer loop
    vertex -47.85125515347587 13.185605701748752 27.05460924704699
    vertex -47.90577383141419 13.599716173911121 29.798878988551184
    vertex -47.85125515347592 13.18560570174719 29.798878988550943
  endloop
endfacet
facet normal 0.9238795325105642 0.38268343236683433 2.326070170309945e-13
  outer loop
    vertex -47.85125515347592 13.18560570174719 29.798878988550943
    vertex -47.69141447746777 12.799716173913085 27.054609247046777
    vertex -47.85125515347587 13.185605701748752 27.05460924704699
  endloop
endfacet
facet normal 0.9238795325105642 0.38268343236683433 2.326070170309945e-13
  outer loop
    vertex -47.69141447746777 12.799716173913085 27.054609247046777
    vertex -47.85125515347592 13.18560570174719 29.798878988550943
    vertex -47.69141447746779 12.799716173911523 29.79887898855073
  endloop
endfacet
facet normal 0.7933533402900903 0.6087614290102126 3.5871647828246007e-13
  outer loop
    vertex -47.69141447746779 12.799716173911523 29.79887898855073
    vertex -47.437144681310485 12.468345324015088 27.054609247046592
    vertex -47.69141447746777 12.799716173913085 27.054609247046777
  endloop
endfacet
facet normal 0.7933533402900903 0.6087614290102126 3.5871647828246007e-13
  outer loop
    vertex -47.437144681310485 12.468345324015088 27.054609247046592
    vertex -47.69141447746779 12.799716173911523 29.79887898855073
    vertex -47.43714468131053 12.468345324013525 29.79887898855054
  endloop
endfacet
facet normal 0.6087614290072194 0.7933533402923872 4.603890469715254e-13
  outer loop
    vertex -47.105773831411575 12.214075527857531 29.798878988550424
    vertex -47.437144681310485 12.468345324015088 27.054609247046592
    vertex -47.43714468131053 12.468345324013525 29.79887898855054
  endloop
endfacet
facet normal 0.6087614290072194 0.7933533402923872 4.603890469715254e-13
  outer loop
    vertex -47.437144681310485 12.468345324015088 27.054609247046592
    vertex -47.105773831411575 12.214075527857531 29.798878988550424
    vertex -47.10577383141155 12.214075527859093 27.05460924704647
  endloop
endfacet
facet normal 0.38268343236335306 0.9238795325120063 5.306817816960299e-13
  outer loop
    vertex -46.71988430357531 12.054234851850847 29.798878988550317
    vertex -47.10577383141155 12.214075527859093 27.05460924704647
    vertex -47.105773831411575 12.214075527857531 29.798878988550424
  endloop
endfacet
facet normal 0.38268343236335306 0.9238795325120063 5.306817816960299e-13
  outer loop
    vertex -47.10577383141155 12.214075527859093 27.05460924704647
    vertex -46.71988430357531 12.054234851850847 29.798878988550317
    vertex -46.71988430357529 12.054234851852408 27.054609247046365
  endloop
endfacet
facet normal 0.13052619221819467 0.9914448613740551 5.648114433581191e-13
  outer loop
    vertex -46.30577383141117 11.99971617391413 29.79887898855029
    vertex -46.71988430357529 12.054234851852408 27.054609247046365
    vertex -46.71988430357531 12.054234851850847 29.798878988550317
  endloop
endfacet
facet normal 0.13052619221819467 0.9914448613740551 5.648114433581191e-13
  outer loop
    vertex -46.71988430357529 12.054234851852408 27.054609247046365
    vertex -46.30577383141117 11.99971617391413 29.79887898855029
    vertex -46.30577383141114 11.999716173915692 27.054609247046336
  endloop
endfacet
facet normal -0.13052619222193 0.9914448613735631 5.604486346049931e-13
  outer loop
    vertex -45.89166335924725 12.054234851852405 29.79887898855032
    vertex -46.30577383141114 11.999716173915692 27.054609247046336
    vertex -46.30577383141117 11.99971617391413 29.79887898855029
  endloop
endfacet
facet normal -0.13052619222193 0.9914448613735631 5.604486346049931e-13
  outer loop
    vertex -46.30577383141114 11.999716173915692 27.054609247046336
    vertex -45.89166335924725 12.054234851852405 29.79887898855032
    vertex -45.89166335924722 12.054234851853968 27.054609247046372
  endloop
endfacet
facet normal -0.38268343236682045 0.9238795325105701 5.178909811058131e-13
  outer loop
    vertex -45.505773831411574 12.21407552786054 29.798878988550413
    vertex -45.89166335924722 12.054234851853968 27.054609247046372
    vertex -45.89166335924725 12.054234851852405 29.79887898855032
  endloop
endfacet
facet normal -0.38268343236682045 0.9238795325105701 5.178909811058131e-13
  outer loop
    vertex -45.89166335924722 12.054234851853968 27.054609247046372
    vertex -45.505773831411574 12.21407552786054 29.798878988550413
    vertex -45.505773831411545 12.214075527862102 27.05460924704646
  endloop
endfacet
facet normal -0.6087614290102255 0.7933533402900805 4.400444471926665e-13
  outer loop
    vertex -45.17440298151358 12.46834532401779 29.79887898855056
    vertex -45.505773831411545 12.214075527862102 27.05460924704646
    vertex -45.505773831411574 12.21407552786054 29.798878988550413
  endloop
endfacet
facet normal -0.6087614290102255 0.7933533402900805 4.400444471926665e-13
  outer loop
    vertex -45.505773831411545 12.214075527862102 27.05460924704646
    vertex -45.17440298151358 12.46834532401779 29.79887898855056
    vertex -45.17440298151353 12.468345324019353 27.054609247046606
  endloop
endfacet
facet normal -0.7933533402923794 0.6087614290072295 3.3220571072851114e-13
  outer loop
    vertex -45.17440298151353 12.468345324019353 27.054609247046606
    vertex -44.920133185357585 12.799716173916746 29.79887898855074
    vertex -44.92013318535755 12.799716173918307 27.054609247046788
  endloop
endfacet
facet normal -0.7933533402923794 0.6087614290072295 3.3220571072851114e-13
  outer loop
    vertex -44.920133185357585 12.799716173916746 29.79887898855074
    vertex -45.17440298151353 12.468345324019353 27.054609247046606
    vertex -45.17440298151358 12.46834532401779 29.79887898855056
  endloop
endfacet
facet normal -0.9238795325120072 0.3826834323633506 2.0172563739582843e-13
  outer loop
    vertex -44.92013318535755 12.799716173918307 27.054609247046788
    vertex -44.7602925093509 13.185605701753014 29.798878988550964
    vertex -44.760292509350855 13.185605701754575 27.054609247047015
  endloop
endfacet
facet normal -0.9238795325120072 0.3826834323633506 2.0172563739582843e-13
  outer loop
    vertex -44.7602925093509 13.185605701753014 29.798878988550964
    vertex -44.92013318535755 12.799716173918307 27.054609247046788
    vertex -44.920133185357585 12.799716173916746 29.79887898855074
  endloop
endfacet
facet normal -5.0315772214887534e-15 -5.631130581813708e-13 1.0
  outer loop
    vertex -46.7198843035811 15.145197495977424 27.054609247048102
    vertex -45.89166335925304 15.14519749597898 27.054609247048123
    vertex -46.30577383141717 15.199716173915698 27.05460924704814
  endloop
endfacet
facet normal -5.0315772214887534e-15 -5.631130581813708e-13 1.0
  outer loop
    vertex -45.89166335925304 15.14519749597898 27.054609247048123
    vertex -46.7198843035811 15.145197495977424 27.054609247048102
    vertex -45.505773831416754 14.985356819972305 27.054609247048024
  endloop
endfacet
facet normal -5.0315772214887534e-15 -5.631130581813708e-13 1.0
  outer loop
    vertex -45.505773831416754 14.985356819972305 27.054609247048024
    vertex -46.7198843035811 15.145197495977424 27.054609247048102
    vertex -47.10577383141675 14.985356819969295 27.054609247048017
  endloop
endfacet
facet normal -5.0315772214887534e-15 -5.631130581813708e-13 1.0
  outer loop
    vertex -45.505773831416754 14.985356819972305 27.054609247048024
    vertex -47.10577383141675 14.985356819969295 27.054609247048017
    vertex -45.17440298151781 14.731087023816302 27.054609247047882
  endloop
endfacet
facet normal -5.0315772214887534e-15 -5.631130581813708e-13 1.0
  outer loop
    vertex -45.17440298151781 14.731087023816302 27.054609247047882
    vertex -47.10577383141675 14.985356819969295 27.054609247048017
    vertex -47.43714468131476 14.731087023812039 27.05460924704787
  endloop
endfacet
facet normal -5.0315772214887534e-15 -5.631130581813708e-13 1.0
  outer loop
    vertex -45.17440298151781 14.731087023816302 27.054609247047882
    vertex -47.43714468131476 14.731087023812039 27.05460924704787
    vertex -44.92013318536056 14.39971617391831 27.0546092470477
  endloop
endfacet
facet normal -5.0315772214887534e-15 -5.631130581813708e-13 1.0
  outer loop
    vertex -44.92013318536056 14.39971617391831 27.0546092470477
    vertex -47.43714468131476 14.731087023812039 27.05460924704787
    vertex -47.691414477470765 14.399716173913083 27.054609247047686
  endloop
endfacet
facet normal -5.0315772214887534e-15 -5.631130581813708e-13 1.0
  outer loop
    vertex -44.92013318536056 14.39971617391831 27.0546092470477
    vertex -47.691414477470765 14.399716173913083 27.054609247047686
    vertex -44.76029250935243 14.013826646082645 27.05460924704748
  endloop
endfacet
facet normal -5.0315772214887534e-15 -5.631130581813708e-13 1.0
  outer loop
    vertex -44.76029250935243 14.013826646082645 27.05460924704748
    vertex -47.691414477470765 14.399716173913083 27.054609247047686
    vertex -47.851255153477446 14.013826646076817 27.05460924704746
  endloop
endfacet
facet normal -5.0315772214887534e-15 -5.631130581813708e-13 1.0
  outer loop
    vertex -44.76029250935243 14.013826646082645 27.05460924704748
    vertex -47.851255153477446 14.013826646076817 27.05460924704746
    vertex -44.705773831414156 13.599716173918715 27.054609247047246
  endloop
endfacet
facet normal -5.0315772214887534e-15 -5.631130581813708e-13 1.0
  outer loop
    vertex -44.705773831414156 13.599716173918715 27.054609247047246
    vertex -47.851255153477446 14.013826646076817 27.05460924704746
    vertex -47.90577383141415 13.59971617391268 27.054609247047235
  endloop
endfacet
facet normal -5.0315772214887534e-15 -5.631130581813708e-13 1.0
  outer loop
    vertex -44.705773831414156 13.599716173918715 27.054609247047246
    vertex -47.90577383141415 13.59971617391268 27.054609247047235
    vertex -44.760292509350855 13.185605701754575 27.054609247047015
  endloop
endfacet
facet normal -5.0315772214887534e-15 -5.631130581813708e-13 1.0
  outer loop
    vertex -44.760292509350855 13.185605701754575 27.054609247047015
    vertex -47.90577383141415 13.59971617391268 27.054609247047235
    vertex -47.85125515347587 13.185605701748752 27.05460924704699
  endloop
endfacet
facet normal -5.0315772214887534e-15 -5.631130581813708e-13 1.0
  outer loop
    vertex -44.760292509350855 13.185605701754575 27.054609247047015
    vertex -47.85125515347587 13.185605701748752 27.05460924704699
    vertex -44.92013318535755 12.799716173918307 27.054609247046788
  endloop
endfacet
facet normal -5.0315772214887534e-15 -5.631130581813708e-13 1.0
  outer loop
    vertex -44.92013318535755 12.799716173918307 27.054609247046788
    vertex -47.85125515347587 13.185605701748752 27.05460924704699
    vertex -47.69141447746777 12.799716173913085 27.054609247046777
  endloop
endfacet
facet normal -5.0315772214887534e-15 -5.631130581813708e-13 1.0
  outer loop
    vertex -44.92013318535755 12.799716173918307 27.054609247046788
    vertex -47.69141447746777 12.799716173913085 27.054609247046777
    vertex -45.17440298151353 12.468345324019353 27.054609247046606
  endloop
endfacet
facet normal -5.0315772214887534e-15 -5.631130581813708e-13 1.0
  outer loop
    vertex -45.17440298151353 12.468345324019353 27.054609247046606
    vertex -47.69141447746777 12.799716173913085 27.054609247046777
    vertex -47.437144681310485 12.468345324015088 27.054609247046592
  endloop
endfacet
facet normal -5.0315772214887534e-15 -5.631130581813708e-13 1.0
  outer loop
    vertex -45.17440298151353 12.468345324019353 27.054609247046606
    vertex -47.437144681310485 12.468345324015088 27.054609247046592
    vertex -45.505773831411545 12.214075527862102 27.05460924704646
  endloop
endfacet
facet normal -5.0315772214887534e-15 -5.631130581813708e-13 1.0
  outer loop
    vertex -45.505773831411545 12.214075527862102 27.05460924704646
    vertex -47.437144681310485 12.468345324015088 27.054609247046592
    vertex -47.10577383141155 12.214075527859093 27.05460924704647
  endloop
endfacet
facet normal -5.0315772214887534e-15 -5.631130581813708e-13 1.0
  outer loop
    vertex -45.505773831411545 12.214075527862102 27.05460924704646
    vertex -47.10577383141155 12.214075527859093 27.05460924704647
    vertex -45.89166335924722 12.054234851853968 27.054609247046372
  endloop
endfacet
facet normal -5.0315772214887534e-15 -5.631130581813708e-13 1.0
  outer loop
    vertex -45.89166335924722 12.054234851853968 27.054609247046372
    vertex -47.10577383141155 12.214075527859093 27.05460924704647
    vertex -46.71988430357529 12.054234851852408 27.054609247046365
  endloop
endfacet
facet normal -5.0315772214887534e-15 -5.631130581813708e-13 1.0
  outer loop
    vertex -45.89166335924722 12.054234851853968 27.054609247046372
    vertex -46.71988430357529 12.054234851852408 27.054609247046365
    vertex -46.30577383141114 11.999716173915692 27.054609247046336
  endloop
endfacet
facet normal -0.6123724356957942 0.35355339059366675 -0.7071067811863513
  outer loop
    vertex -42.72620216243843 13.599716173917663 23.654609247047283
    vertex -44.66032556422364 10.749716173917498 23.90460924704565
    vertex -43.01487729703326 13.599716173917525 23.904609247047294
  endloop
endfacet
facet normal -0.6123724356957942 0.35355339059366675 -0.7071067811863513
  outer loop
    vertex -44.66032556422364 10.749716173917498 23.90460924704565
    vertex -42.72620216243843 13.599716173917663 23.654609247047283
    vertex -44.51598799692622 10.49971617391764 23.654609247045496
  endloop
endfacet
facet normal 0.6123724356958119 -0.35355339059286656 -0.7071067811867361
  outer loop
    vertex -47.9512220986046 16.44971617391745 23.904609247048818
    vertex -49.88534550038979 13.599716173917557 23.654609247047198
    vertex -48.095559665901995 16.699716173917583 23.654609247048967
  endloop
endfacet
facet normal 0.6123724356958119 -0.35355339059286656 -0.7071067811867361
  outer loop
    vertex -49.88534550038979 13.599716173917557 23.654609247047198
    vertex -47.9512220986046 16.44971617391745 23.904609247048818
    vertex -49.59667036579499 13.59971617391742 23.90460924704719
  endloop
endfacet
facet normal 1.6930073897401567e-14 -0.7071067811861541 -0.7071067811869409
  outer loop
    vertex -44.51598799692632 16.699716173917636 23.654609247048995
    vertex -47.9512220986046 16.44971617391745 23.904609247048818
    vertex -48.095559665901995 16.699716173917583 23.654609247048967
  endloop
endfacet
facet normal 1.6930073897401567e-14 -0.7071067811861541 -0.7071067811869409
  outer loop
    vertex -47.9512220986046 16.44971617391745 23.904609247048818
    vertex -44.51598799692632 16.699716173917636 23.654609247048995
    vertex -44.660325564223726 16.4497161739175 23.904609247048853
  endloop
endfacet
facet normal 0.612372435695794 0.3535533905936787 -0.7071067811863456
  outer loop
    vertex -47.951222098604504 10.749716173917443 23.904609247045617
    vertex -49.88534550038979 13.599716173917557 23.654609247047198
    vertex -49.59667036579499 13.59971617391742 23.90460924704719
  endloop
endfacet
facet normal 0.612372435695794 0.3535533905936787 -0.7071067811863456
  outer loop
    vertex -49.88534550038979 13.599716173917557 23.654609247047198
    vertex -47.951222098604504 10.749716173917443 23.904609247045617
    vertex -48.0955596659019 10.499716173917585 23.65460924704548
  endloop
endfacet
facet normal -0.6123724356957834 -0.35355339059289 -0.7071067811867492
  outer loop
    vertex -42.72620216243843 13.599716173917663 23.654609247047283
    vertex -44.660325564223726 16.4497161739175 23.904609247048853
    vertex -44.51598799692632 16.699716173917636 23.654609247048995
  endloop
endfacet
facet normal -0.6123724356957834 -0.35355339059289 -0.7071067811867492
  outer loop
    vertex -44.660325564223726 16.4497161739175 23.904609247048853
    vertex -42.72620216243843 13.599716173917663 23.654609247047283
    vertex -43.01487729703326 13.599716173917525 23.904609247047294
  endloop
endfacet
facet normal -5.69001926678825e-15 0.707106781186948 -0.7071067811861471
  outer loop
    vertex -44.51598799692622 10.49971617391764 23.654609247045496
    vertex -47.951222098604504 10.749716173917443 23.904609247045617
    vertex -44.66032556422364 10.749716173917498 23.90460924704565
  endloop
endfacet
facet normal -5.69001926678825e-15 0.707106781186948 -0.7071067811861471
  outer loop
    vertex -47.951222098604504 10.749716173917443 23.904609247045617
    vertex -44.51598799692622 10.49971617391764 23.654609247045496
    vertex -48.0955596659019 10.499716173917585 23.65460924704548
  endloop
endfacet
facet normal -6.498965680669148e-14 1.0 5.59880398928617e-13
  outer loop
    vertex -42.26167074417439 17.59971617391413 29.798878988553234
    vertex -42.26167074417464 17.59971617391552 27.99687889499008
    vertex -46.37398240357947 17.599716173914203 29.79887898855412
  endloop
endfacet
facet normal -6.498965680669148e-14 1.0 5.59880398928617e-13
  outer loop
    vertex -46.373982403579724 17.599716173915745 27.99687889499125
    vertex -50.65579968384601 17.599716173917226 23.654609247049454
    vertex -50.65579968384607 17.599716173914768 27.996878894988427
  endloop
endfacet
facet normal -6.498965680669148e-14 1.0 5.59880398928617e-13
  outer loop
    vertex -50.65579968384601 17.599716173917226 23.654609247049454
    vertex -46.373982403579724 17.599716173915745 27.99687889499125
    vertex -40.98482134275263 17.59971617391808 23.654609247049482
  endloop
endfacet
facet normal -6.498965680669148e-14 1.0 5.59880398928617e-13
  outer loop
    vertex -40.98482134275263 17.59971617391808 23.654609247049482
    vertex -46.373982403579724 17.599716173915745 27.99687889499125
    vertex -46.37398240357947 17.599716173914203 29.79887898855412
  endloop
endfacet
facet normal -6.498965680669148e-14 1.0 5.59880398928617e-13
  outer loop
    vertex -40.98482134275263 17.59971617391808 23.654609247049482
    vertex -46.37398240357947 17.599716173914203 29.79887898855412
    vertex -42.26167074417464 17.59971617391552 27.99687889499008
  endloop
endfacet
facet normal -6.498965680669148e-14 1.0 5.59880398928617e-13
  outer loop
    vertex -40.98482134275263 17.59971617391808 23.654609247049482
    vertex -42.26167074417464 17.59971617391552 27.99687889499008
    vertex -37.96780072144321 17.599716173915915 27.99687889498855
  endloop
endfacet
facet normal -6.498965680669148e-14 1.0 5.59880398928617e-13
  outer loop
    vertex -40.98482134275263 17.59971617391808 23.654609247049482
    vertex -37.96780072144321 17.599716173915915 27.99687889498855
    vertex -37.967800721443226 17.59971617391664 26.674267350789986
  endloop
endfacet
facet normal 9.096572735251978e-14 -1.0 -6.052123016587562e-13
  outer loop
    vertex -54.65579968384501 9.59971617391514 26.674267753262747
    vertex -50.37398240357915 9.599716173914803 27.996878894985052
    vertex -54.655799683845025 9.599716173914414 27.996878894983936
  endloop
endfacet
facet normal 9.096572735251978e-14 -1.0 -6.052123016587562e-13
  outer loop
    vertex -50.37398240357915 9.599716173914803 27.996878894985052
    vertex -54.65579968384501 9.59971617391514 26.674267753262747
    vertex -51.638778660409955 9.599716173917113 23.65460924704497
  endloop
endfacet
facet normal 9.096572735251978e-14 -1.0 -6.052123016587562e-13
  outer loop
    vertex -50.37398240357915 9.599716173914803 27.996878894985052
    vertex -51.638778660409955 9.599716173917113 23.65460924704497
    vertex -41.96780072144225 9.59971617391801 23.654609247044963
  endloop
endfacet
facet normal 9.096572735251978e-14 -1.0 -6.052123016587562e-13
  outer loop
    vertex -50.37398240357915 9.599716173914803 27.996878894985052
    vertex -41.96780072144225 9.59971617391801 23.654609247044963
    vertex -50.37398240357889 9.599716173913405 29.798878988548203
  endloop
endfacet
facet normal 9.096572735251978e-14 -1.0 -6.052123016587562e-13
  outer loop
    vertex -50.37398240357889 9.599716173913405 29.798878988548203
    vertex -41.96780072144225 9.59971617391801 23.654609247044963
    vertex -46.261670744174516 9.599716173915171 27.996878894985002
  endloop
endfacet
facet normal 9.096572735251978e-14 -1.0 -6.052123016587562e-13
  outer loop
    vertex -46.261670744174516 9.599716173915171 27.996878894985002
    vertex -41.96780072144225 9.59971617391801 23.654609247044963
    vertex -41.96780072144216 9.599716173915557 27.996878894983983
  endloop
endfacet
facet normal 9.096572735251978e-14 -1.0 -6.052123016587562e-13
  outer loop
    vertex -46.26167074417426 9.59971617391377 29.798878988547898
    vertex -50.37398240357889 9.599716173913405 29.798878988548203
    vertex -46.261670744174516 9.599716173915171 27.996878894985002
  endloop
endfacet
facet normal 1.9542854380514027e-13 -6.877379574800177e-13 1.0
  outer loop
    vertex -42.26167074417464 17.59971617391552 27.99687889499008
    vertex -37.967800721442615 13.599716173915912 27.99687889498628
    vertex -37.96780072144321 17.599716173915915 27.99687889498855
  endloop
endfacet
facet normal 1.9542854380514027e-13 -6.877379574800177e-13 1.0
  outer loop
    vertex -37.967800721442615 13.599716173915912 27.99687889498628
    vertex -42.26167074417464 17.59971617391552 27.99687889499008
    vertex -42.26167074417457 13.599716173915523 27.996878894987265
  endloop
endfacet
facet normal 1.9542854380514027e-13 -6.877379574800177e-13 1.0
  outer loop
    vertex -37.967800721442615 13.599716173915912 27.99687889498628
    vertex -42.26167074417457 13.599716173915523 27.996878894987265
    vertex -38.104097416286216 12.564439993505832 27.996878894985684
  endloop
endfacet
facet normal 1.9542854380514027e-13 -6.877379574800177e-13 1.0
  outer loop
    vertex -38.104097416286216 12.564439993505832 27.996878894985684
    vertex -42.26167074417457 13.599716173915523 27.996878894987265
    vertex -42.39796743901829 12.564439993505435 27.996878894986548
  endloop
endfacet
facet normal 1.9542854380514027e-13 -6.877379574800177e-13 1.0
  outer loop
    vertex -38.104097416286216 12.564439993505832 27.996878894985684
    vertex -42.39796743901829 12.564439993505435 27.996878894986548
    vertex -38.50369910630462 11.599716173915878 27.996878894985144
  endloop
endfacet
facet normal 1.9542854380514027e-13 -6.877379574800177e-13 1.0
  outer loop
    vertex -38.50369910630462 11.599716173915878 27.996878894985144
    vertex -42.39796743901829 12.564439993505435 27.996878894986548
    vertex -42.79756912903681 11.599716173915487 27.996878894985922
  endloop
endfacet
facet normal 1.9542854380514027e-13 -6.877379574800177e-13 1.0
  outer loop
    vertex -38.50369910630462 11.599716173915878 27.996878894985144
    vertex -42.79756912903681 11.599716173915487 27.996878894985922
    vertex -39.1393735966961 10.771289049169628 27.996878894984658
  endloop
endfacet
facet normal 1.9542854380514027e-13 -6.877379574800177e-13 1.0
  outer loop
    vertex -39.1393735966961 10.771289049169628 27.996878894984658
    vertex -42.79756912903681 11.599716173915487 27.996878894985922
    vertex -43.433243619428346 10.771289049169225 27.996878894985425
  endloop
endfacet
facet normal 1.9542854380514027e-13 -6.877379574800177e-13 1.0
  outer loop
    vertex -39.1393735966961 10.771289049169628 27.996878894984658
    vertex -43.433243619428346 10.771289049169225 27.996878894985425
    vertex -39.967800721442224 10.135614558777986 27.99687889498431
  endloop
endfacet
facet normal 1.9542854380514027e-13 -6.877379574800177e-13 1.0
  outer loop
    vertex -39.967800721442224 10.135614558777986 27.99687889498431
    vertex -43.433243619428346 10.771289049169225 27.996878894985425
    vertex -44.26167074417453 10.135614558777592 27.99687889498509
  endloop
endfacet
facet normal 1.9542854380514027e-13 -6.877379574800177e-13 1.0
  outer loop
    vertex -39.967800721442224 10.135614558777986 27.99687889498431
    vertex -44.26167074417453 10.135614558777592 27.99687889498509
    vertex -40.93252454103211 9.736012868759376 27.996878894984064
  endloop
endfacet
facet normal 1.9542854380514027e-13 -6.877379574800177e-13 1.0
  outer loop
    vertex -40.93252454103211 9.736012868759376 27.996878894984064
    vertex -44.26167074417453 10.135614558777592 27.99687889498509
    vertex -45.22639456376443 9.73601286875898 27.996878894984953
  endloop
endfacet
facet normal 1.9542854380514027e-13 -6.877379574800177e-13 1.0
  outer loop
    vertex -40.93252454103211 9.736012868759376 27.996878894984064
    vertex -45.22639456376443 9.73601286875898 27.996878894984953
    vertex -41.96780072144216 9.599716173915557 27.996878894983983
  endloop
endfacet
facet normal 1.9542854380514027e-13 -6.877379574800177e-13 1.0
  outer loop
    vertex -41.96780072144216 9.599716173915557 27.996878894983983
    vertex -45.22639456376443 9.73601286875898 27.996878894984953
    vertex -46.261670744174516 9.599716173915171 27.996878894985002
  endloop
endfacet
facet normal -4.774957474074444e-13 -5.135961104890094e-13 1.0
  outer loop
    vertex -50.65579968384607 17.599716173914768 27.996878894988427
    vertex -47.40925858398981 17.46341947907193 27.996878894991273
    vertex -46.373982403579724 17.599716173915745 27.99687889499125
  endloop
endfacet
facet normal -4.774957474074444e-13 -5.135961104890094e-13 1.0
  outer loop
    vertex -47.40925858398981 17.46341947907193 27.996878894991273
    vertex -50.65579968384607 17.599716173914768 27.996878894988427
    vertex -51.691075864256135 17.463419479070975 27.99687889498836
  endloop
endfacet
facet normal -4.774957474074444e-13 -5.135961104890094e-13 1.0
  outer loop
    vertex -47.40925858398981 17.46341947907193 27.996878894991273
    vertex -51.691075864256135 17.463419479070975 27.99687889498836
    vertex -48.373982403579696 17.063817789053324 27.996878894991067
  endloop
endfacet
facet normal -4.774957474074444e-13 -5.135961104890094e-13 1.0
  outer loop
    vertex -48.373982403579696 17.063817789053324 27.996878894991067
    vertex -51.691075864256135 17.463419479070975 27.99687889498836
    vertex -52.655799683845984 17.063817789052344 27.996878894988132
  endloop
endfacet
facet normal -4.774957474074444e-13 -5.135961104890094e-13 1.0
  outer loop
    vertex -48.373982403579696 17.063817789053324 27.996878894991067
    vertex -52.655799683845984 17.063817789052344 27.996878894988132
    vertex -49.20240952832583 16.4281432986617 27.996878894990655
  endloop
endfacet
facet normal -4.774957474074444e-13 -5.135961104890094e-13 1.0
  outer loop
    vertex -49.20240952832583 16.4281432986617 27.996878894990655
    vertex -52.655799683845984 17.063817789052344 27.996878894988132
    vertex -53.484226808592126 16.428143298660714 27.996878894987784
  endloop
endfacet
facet normal -4.774957474074444e-13 -5.135961104890094e-13 1.0
  outer loop
    vertex -49.20240952832583 16.4281432986617 27.996878894990655
    vertex -53.484226808592126 16.428143298660714 27.996878894987784
    vertex -49.83808401871734 15.599716173915446 27.99687889499004
  endloop
endfacet
facet normal -4.774957474074444e-13 -5.135961104890094e-13 1.0
  outer loop
    vertex -49.83808401871734 15.599716173915446 27.99687889499004
    vertex -53.484226808592126 16.428143298660714 27.996878894987784
    vertex -54.119901298983585 15.599716173914464 27.996878894987326
  endloop
endfacet
facet normal -4.774957474074444e-13 -5.135961104890094e-13 1.0
  outer loop
    vertex -49.83808401871734 15.599716173915446 27.99687889499004
    vertex -54.119901298983585 15.599716173914464 27.996878894987326
    vertex -50.23768570873578 14.634992354325496 27.996878894989294
  endloop
endfacet
facet normal -4.774957474074444e-13 -5.135961104890094e-13 1.0
  outer loop
    vertex -50.23768570873578 14.634992354325496 27.996878894989294
    vertex -54.119901298983585 15.599716173914464 27.996878894987326
    vertex -54.51950298900202 14.634992354324513 27.996878894986768
  endloop
endfacet
facet normal -4.774957474074444e-13 -5.135961104890094e-13 1.0
  outer loop
    vertex -50.23768570873578 14.634992354325496 27.996878894989294
    vertex -54.51950298900202 14.634992354324513 27.996878894986768
    vertex -50.37398240357944 13.599716173915402 27.99687889498843
  endloop
endfacet
facet normal -4.774957474074444e-13 -5.135961104890094e-13 1.0
  outer loop
    vertex -50.37398240357944 13.599716173915402 27.99687889498843
    vertex -54.51950298900202 14.634992354324513 27.996878894986768
    vertex -54.65579968384563 13.59971617391442 27.99687889498618
  endloop
endfacet
facet normal -4.774957474074444e-13 -5.135961104890094e-13 1.0
  outer loop
    vertex -50.37398240357944 13.599716173915402 27.99687889498843
    vertex -54.65579968384563 13.59971617391442 27.99687889498618
    vertex -50.37398240357915 9.599716173914803 27.996878894985052
  endloop
endfacet
facet normal -4.774957474074444e-13 -5.135961104890094e-13 1.0
  outer loop
    vertex -50.37398240357915 9.599716173914803 27.996878894985052
    vertex -54.65579968384563 13.59971617391442 27.99687889498618
    vertex -54.655799683845025 9.599716173914414 27.996878894983936
  endloop
endfacet
facet normal -1.0 -7.188500872094907e-14 1.4164243834153595e-13
  outer loop
    vertex -50.37398240357889 9.599716173913405 29.798878988548203
    vertex -50.37398240357944 13.599716173915402 27.99687889498843
    vertex -50.37398240357915 9.599716173914803 27.996878894985052
  endloop
endfacet
facet normal -1.0 -7.188500872094907e-14 1.4164243834153595e-13
  outer loop
    vertex -50.37398240357944 13.599716173915402 27.99687889498843
    vertex -50.37398240357889 9.599716173913405 29.798878988548203
    vertex -50.373982403579184 13.599716173913997 29.798878988551586
  endloop
endfacet
facet normal 1.0 1.548567907007339e-14 -1.4164243834158012e-13
  outer loop
    vertex -42.26167074417464 17.59971617391552 27.99687889499008
    vertex -42.261670744174324 13.599716173914125 29.798878988550424
    vertex -42.26167074417457 13.599716173915523 27.996878894987265
  endloop
endfacet
facet normal 1.0 1.548567907007339e-14 -1.4164243834158012e-13
  outer loop
    vertex -42.261670744174324 13.599716173914125 29.798878988550424
    vertex -42.26167074417464 17.59971617391552 27.99687889499008
    vertex -42.26167074417439 17.59971617391413 29.798878988553234
  endloop
endfacet
facet normal -0.9238795325113137 0.3826834323650247 4.2922663150587134e-13
  outer loop
    vertex -50.23768570873553 14.634992354324076 29.79887898855244
    vertex -49.83808401871734 15.599716173915446 27.99687889499004
    vertex -50.23768570873578 14.634992354325496 27.996878894989294
  endloop
endfacet
facet normal -0.9238795325113137 0.3826834323650247 4.2922663150587134e-13
  outer loop
    vertex -49.83808401871734 15.599716173915446 27.99687889499004
    vertex -50.23768570873553 14.634992354324076 29.79887898855244
    vertex -49.838084018717076 15.59971617391403 29.798878988553152
  endloop
endfacet
facet normal -0.3826834323651537 0.9238795325112603 8.138639813905411e-13
  outer loop
    vertex -48.37398240357943 17.063817789051857 29.79887898855408
    vertex -47.40925858398981 17.46341947907193 27.996878894991273
    vertex -48.373982403579696 17.063817789053324 27.996878894991067
  endloop
endfacet
facet normal -0.3826834323651537 0.9238795325112603 8.138639813905411e-13
  outer loop
    vertex -47.40925858398981 17.46341947907193 27.996878894991273
    vertex -48.37398240357943 17.063817789051857 29.79887898855408
    vertex -47.40925858398954 17.463419479070428 29.798878988554215
  endloop
endfacet
facet normal -0.6087614290087784 0.7933533402911909 7.234169100865089e-13
  outer loop
    vertex -49.202409528325575 16.42814329866025 29.798878988553724
    vertex -48.373982403579696 17.063817789053324 27.996878894991067
    vertex -49.20240952832583 16.4281432986617 27.996878894990655
  endloop
endfacet
facet normal -0.6087614290087784 0.7933533402911909 7.234169100865089e-13
  outer loop
    vertex -48.373982403579696 17.063817789053324 27.996878894991067
    vertex -49.202409528325575 16.42814329866025 29.798878988553724
    vertex -48.37398240357943 17.063817789051857 29.79887898855408
  endloop
endfacet
facet normal -0.7933533402912785 0.6087614290086644 5.917780981597092e-13
  outer loop
    vertex -49.838084018717076 15.59971617391403 29.798878988553152
    vertex -49.20240952832583 16.4281432986617 27.996878894990655
    vertex -49.83808401871734 15.599716173915446 27.99687889499004
  endloop
endfacet
facet normal -0.7933533402912785 0.6087614290086644 5.917780981597092e-13
  outer loop
    vertex -49.20240952832583 16.4281432986617 27.996878894990655
    vertex -49.838084018717076 15.59971617391403 29.798878988553152
    vertex -49.202409528325575 16.42814329866025 29.798878988553724
  endloop
endfacet
facet normal 0.6087614290087688 -0.7933533402911982 -6.980823411279364e-13
  outer loop
    vertex -43.433243619428346 10.771289049169225 27.996878894985425
    vertex -44.261670744174275 10.135614558776194 29.79887898854812
    vertex -44.26167074417453 10.135614558777592 27.99687889498509
  endloop
endfacet
facet normal 0.6087614290087688 -0.7933533402911982 -6.980823411279364e-13
  outer loop
    vertex -44.261670744174275 10.135614558776194 29.79887898854812
    vertex -43.433243619428346 10.771289049169225 27.996878894985425
    vertex -43.43324361942809 10.771289049167828 29.798878988548505
  endloop
endfacet
facet normal -0.1305261922201237 0.9914448613738011 8.522026562917844e-13
  outer loop
    vertex -47.40925858398954 17.463419479070428 29.798878988554215
    vertex -46.373982403579724 17.599716173915745 27.99687889499125
    vertex -47.40925858398981 17.46341947907193 27.996878894991273
  endloop
endfacet
facet normal -0.1305261922201237 0.9914448613738011 8.522026562917844e-13
  outer loop
    vertex -46.373982403579724 17.599716173915745 27.99687889499125
    vertex -47.40925858398954 17.463419479070428 29.798878988554215
    vertex -46.37398240357947 17.599716173914203 29.79887898855412
  endloop
endfacet
facet normal 0.13052619222013878 -0.9914448613737991 -7.836311964322348e-13
  outer loop
    vertex -45.22639456376443 9.73601286875898 27.996878894984953
    vertex -46.26167074417426 9.59971617391377 29.798878988547898
    vertex -46.261670744174516 9.599716173915171 27.996878894985002
  endloop
endfacet
facet normal 0.13052619222013878 -0.9914448613737991 -7.836311964322348e-13
  outer loop
    vertex -46.26167074417426 9.59971617391377 29.798878988547898
    vertex -45.22639456376443 9.73601286875898 27.996878894984953
    vertex -45.22639456376418 9.736012868757582 29.79887898854791
  endloop
endfacet
facet normal -0.99144486137382 0.13052619221997994 2.4179542045023453e-13
  outer loop
    vertex -50.373982403579184 13.599716173913997 29.798878988551586
    vertex -50.23768570873578 14.634992354325496 27.996878894989294
    vertex -50.37398240357944 13.599716173915402 27.99687889498843
  endloop
endfacet
facet normal -0.99144486137382 0.13052619221997994 2.4179542045023453e-13
  outer loop
    vertex -50.23768570873578 14.634992354325496 27.996878894989294
    vertex -50.373982403579184 13.599716173913997 29.798878988551586
    vertex -50.23768570873553 14.634992354324076 29.79887898855244
  endloop
endfacet
facet normal 0.9914448613738126 -0.13052619222003528 -2.4313746871038905e-13
  outer loop
    vertex -42.26167074417457 13.599716173915523 27.996878894987265
    vertex -42.39796743901803 12.56443999350403 29.798878988549696
    vertex -42.39796743901829 12.564439993505435 27.996878894986548
  endloop
endfacet
facet normal 0.9914448613738126 -0.13052619222003528 -2.4313746871038905e-13
  outer loop
    vertex -42.39796743901803 12.56443999350403 29.798878988549696
    vertex -42.26167074417457 13.599716173915523 27.996878894987265
    vertex -42.261670744174324 13.599716173914125 29.798878988550424
  endloop
endfacet
facet normal 0.9238795325112968 -0.38268343236506575 -4.2888171996422174e-13
  outer loop
    vertex -42.39796743901829 12.564439993505435 27.996878894986548
    vertex -42.79756912903654 11.59971617391408 29.79887898854905
    vertex -42.79756912903681 11.599716173915487 27.996878894985922
  endloop
endfacet
facet normal 0.9238795325112968 -0.38268343236506575 -4.2888171996422174e-13
  outer loop
    vertex -42.79756912903654 11.59971617391408 29.79887898854905
    vertex -42.39796743901829 12.564439993505435 27.996878894986548
    vertex -42.39796743901803 12.56443999350403 29.798878988549696
  endloop
endfacet
facet normal 0.38268343236516467 -0.923879532511256 -7.670037624787914e-13
  outer loop
    vertex -44.26167074417453 10.135614558777592 27.99687889498509
    vertex -45.22639456376418 9.736012868757582 29.79887898854791
    vertex -45.22639456376443 9.73601286875898 27.996878894984953
  endloop
endfacet
facet normal 0.38268343236516467 -0.923879532511256 -7.670037624787914e-13
  outer loop
    vertex -45.22639456376418 9.736012868757582 29.79887898854791
    vertex -44.26167074417453 10.135614558777592 27.99687889498509
    vertex -44.261670744174275 10.135614558776194 29.79887898854812
  endloop
endfacet
facet normal 0.793353340291262 -0.6087614290086859 -5.838093017759809e-13
  outer loop
    vertex -42.79756912903654 11.59971617391408 29.79887898854905
    vertex -43.433243619428346 10.771289049169225 27.996878894985425
    vertex -42.79756912903681 11.599716173915487 27.996878894985922
  endloop
endfacet
facet normal 0.793353340291262 -0.6087614290086859 -5.838093017759809e-13
  outer loop
    vertex -43.433243619428346 10.771289049169225 27.996878894985425
    vertex -42.79756912903654 11.59971617391408 29.79887898854905
    vertex -43.43324361942809 10.771289049167828 29.798878988548505
  endloop
endfacet
facet normal 1.444080137020822e-13 -7.747188661561201e-13 1.0
  outer loop
    vertex -49.838084018717076 15.59971617391403 29.798878988553152
    vertex -46.71988430358113 15.14519749597586 29.798878988552055
    vertex -46.305773831417206 15.199716173914135 29.798878988552094
  endloop
endfacet
facet normal 1.444080137020822e-13 -7.747188661561201e-13 1.0
  outer loop
    vertex -46.71988430358113 15.14519749597586 29.798878988552055
    vertex -49.838084018717076 15.59971617391403 29.798878988553152
    vertex -50.23768570873553 14.634992354324076 29.79887898855244
  endloop
endfacet
facet normal 1.444080137020822e-13 -7.747188661561201e-13 1.0
  outer loop
    vertex -46.71988430358113 15.14519749597586 29.798878988552055
    vertex -50.23768570873553 14.634992354324076 29.79887898855244
    vertex -47.1057738314168 14.985356819967734 29.79887898855197
  endloop
endfacet
facet normal 1.444080137020822e-13 -7.747188661561201e-13 1.0
  outer loop
    vertex -47.1057738314168 14.985356819967734 29.79887898855197
    vertex -50.23768570873553 14.634992354324076 29.79887898855244
    vertex -47.43714468131479 14.731087023810476 29.798878988551824
  endloop
endfacet
facet normal 1.444080137020822e-13 -7.747188661561201e-13 1.0
  outer loop
    vertex -47.43714468131479 14.731087023810476 29.798878988551824
    vertex -50.23768570873553 14.634992354324076 29.79887898855244
    vertex -47.6914144774708 14.399716173911523 29.798878988551635
  endloop
endfacet
facet normal 1.444080137020822e-13 -7.747188661561201e-13 1.0
  outer loop
    vertex -47.6914144774708 14.399716173911523 29.798878988551635
    vertex -50.23768570873553 14.634992354324076 29.79887898855244
    vertex -50.373982403579184 13.599716173913997 29.798878988551586
  endloop
endfacet
facet normal 1.444080137020822e-13 -7.747188661561201e-13 1.0
  outer loop
    vertex -47.6914144774708 14.399716173911523 29.798878988551635
    vertex -50.373982403579184 13.599716173913997 29.798878988551586
    vertex -47.851255153477474 14.013826646075254 29.79887898855141
  endloop
endfacet
facet normal 1.444080137020822e-13 -7.747188661561201e-13 1.0
  outer loop
    vertex -47.851255153477474 14.013826646075254 29.79887898855141
    vertex -50.373982403579184 13.599716173913997 29.798878988551586
    vertex -47.90577383141419 13.599716173911121 29.798878988551184
  endloop
endfacet
facet normal 1.444080137020822e-13 -7.747188661561201e-13 1.0
  outer loop
    vertex -47.90577383141419 13.599716173911121 29.798878988551184
    vertex -50.373982403579184 13.599716173913997 29.798878988551586
    vertex -50.37398240357889 9.599716173913405 29.798878988548203
  endloop
endfacet
facet normal 1.444080137020822e-13 -7.747188661561201e-13 1.0
  outer loop
    vertex -47.90577383141419 13.599716173911121 29.798878988551184
    vertex -50.37398240357889 9.599716173913405 29.798878988548203
    vertex -47.85125515347592 13.18560570174719 29.798878988550943
  endloop
endfacet
facet normal 1.444080137020822e-13 -7.747188661561201e-13 1.0
  outer loop
    vertex -47.85125515347592 13.18560570174719 29.798878988550943
    vertex -50.37398240357889 9.599716173913405 29.798878988548203
    vertex -47.69141447746779 12.799716173911523 29.79887898855073
  endloop
endfacet
facet normal 1.444080137020822e-13 -7.747188661561201e-13 1.0
  outer loop
    vertex -47.69141447746779 12.799716173911523 29.79887898855073
    vertex -50.37398240357889 9.599716173913405 29.798878988548203
    vertex -47.43714468131053 12.468345324013525 29.79887898855054
  endloop
endfacet
facet normal 1.444080137020822e-13 -7.747188661561201e-13 1.0
  outer loop
    vertex -47.43714468131053 12.468345324013525 29.79887898855054
    vertex -50.37398240357889 9.599716173913405 29.798878988548203
    vertex -47.105773831411575 12.214075527857531 29.798878988550424
  endloop
endfacet
facet normal 1.444080137020822e-13 -7.747188661561201e-13 1.0
  outer loop
    vertex -47.105773831411575 12.214075527857531 29.798878988550424
    vertex -50.37398240357889 9.599716173913405 29.798878988548203
    vertex -46.71988430357531 12.054234851850847 29.798878988550317
  endloop
endfacet
facet normal 1.444080137020822e-13 -7.747188661561201e-13 1.0
  outer loop
    vertex -46.71988430357531 12.054234851850847 29.798878988550317
    vertex -50.37398240357889 9.599716173913405 29.798878988548203
    vertex -46.30577383141117 11.99971617391413 29.79887898855029
  endloop
endfacet
facet normal 1.444080137020822e-13 -7.747188661561201e-13 1.0
  outer loop
    vertex -46.30577383141117 11.99971617391413 29.79887898855029
    vertex -50.37398240357889 9.599716173913405 29.798878988548203
    vertex -42.79756912903654 11.59971617391408 29.79887898854905
  endloop
endfacet
facet normal 1.444080137020822e-13 -7.747188661561201e-13 1.0
  outer loop
    vertex -42.79756912903654 11.59971617391408 29.79887898854905
    vertex -50.37398240357889 9.599716173913405 29.798878988548203
    vertex -43.43324361942809 10.771289049167828 29.798878988548505
  endloop
endfacet
facet normal 1.444080137020822e-13 -7.747188661561201e-13 1.0
  outer loop
    vertex -43.43324361942809 10.771289049167828 29.798878988548505
    vertex -50.37398240357889 9.599716173913405 29.798878988548203
    vertex -44.261670744174275 10.135614558776194 29.79887898854812
  endloop
endfacet
facet normal 1.444080137020822e-13 -7.747188661561201e-13 1.0
  outer loop
    vertex -44.261670744174275 10.135614558776194 29.79887898854812
    vertex -50.37398240357889 9.599716173913405 29.798878988548203
    vertex -45.22639456376418 9.736012868757582 29.79887898854791
  endloop
endfacet
facet normal 1.444080137020822e-13 -7.747188661561201e-13 1.0
  outer loop
    vertex -45.22639456376418 9.736012868757582 29.79887898854791
    vertex -50.37398240357889 9.599716173913405 29.798878988548203
    vertex -46.26167074417426 9.59971617391377 29.798878988547898
  endloop
endfacet
facet normal 1.444080137020822e-13 -7.747188661561201e-13 1.0
  outer loop
    vertex -47.40925858398954 17.463419479070428 29.798878988554215
    vertex -42.26167074417439 17.59971617391413 29.798878988553234
    vertex -46.37398240357947 17.599716173914203 29.79887898855412
  endloop
endfacet
facet normal 1.444080137020822e-13 -7.747188661561201e-13 1.0
  outer loop
    vertex -42.26167074417439 17.59971617391413 29.798878988553234
    vertex -47.40925858398954 17.463419479070428 29.798878988554215
    vertex -42.261670744174324 13.599716173914125 29.798878988550424
  endloop
endfacet
facet normal 1.444080137020822e-13 -7.747188661561201e-13 1.0
  outer loop
    vertex -42.261670744174324 13.599716173914125 29.798878988550424
    vertex -47.40925858398954 17.463419479070428 29.798878988554215
    vertex -48.37398240357943 17.063817789051857 29.79887898855408
  endloop
endfacet
facet normal 1.444080137020822e-13 -7.747188661561201e-13 1.0
  outer loop
    vertex -42.261670744174324 13.599716173914125 29.798878988550424
    vertex -48.37398240357943 17.063817789051857 29.79887898855408
    vertex -45.505773831416796 14.985356819970743 29.798878988551976
  endloop
endfacet
facet normal 1.444080137020822e-13 -7.747188661561201e-13 1.0
  outer loop
    vertex -45.505773831416796 14.985356819970743 29.798878988551976
    vertex -48.37398240357943 17.063817789051857 29.79887898855408
    vertex -45.89166335925307 15.145197495977419 29.798878988552076
  endloop
endfacet
facet normal 1.444080137020822e-13 -7.747188661561201e-13 1.0
  outer loop
    vertex -45.89166335925307 15.145197495977419 29.798878988552076
    vertex -48.37398240357943 17.063817789051857 29.79887898855408
    vertex -49.202409528325575 16.42814329866025 29.798878988553724
  endloop
endfacet
facet normal 1.444080137020822e-13 -7.747188661561201e-13 1.0
  outer loop
    vertex -45.89166335925307 15.145197495977419 29.798878988552076
    vertex -49.202409528325575 16.42814329866025 29.798878988553724
    vertex -46.305773831417206 15.199716173914135 29.798878988552094
  endloop
endfacet
facet normal 1.444080137020822e-13 -7.747188661561201e-13 1.0
  outer loop
    vertex -46.305773831417206 15.199716173914135 29.798878988552094
    vertex -49.202409528325575 16.42814329866025 29.798878988553724
    vertex -49.838084018717076 15.59971617391403 29.798878988553152
  endloop
endfacet
facet normal 1.444080137020822e-13 -7.747188661561201e-13 1.0
  outer loop
    vertex -42.261670744174324 13.599716173914125 29.798878988550424
    vertex -45.505773831416796 14.985356819970743 29.798878988551976
    vertex -45.174402981517844 14.73108702381474 29.798878988551834
  endloop
endfacet
facet normal 1.444080137020822e-13 -7.747188661561201e-13 1.0
  outer loop
    vertex -42.261670744174324 13.599716173914125 29.798878988550424
    vertex -45.174402981517844 14.73108702381474 29.798878988551834
    vertex -44.9201331853606 14.399716173916747 29.798878988551653
  endloop
endfacet
facet normal 1.444080137020822e-13 -7.747188661561201e-13 1.0
  outer loop
    vertex -42.261670744174324 13.599716173914125 29.798878988550424
    vertex -44.9201331853606 14.399716173916747 29.798878988551653
    vertex -44.76029250935246 14.013826646081084 29.798878988551433
  endloop
endfacet
facet normal 1.444080137020822e-13 -7.747188661561201e-13 1.0
  outer loop
    vertex -42.261670744174324 13.599716173914125 29.798878988550424
    vertex -44.76029250935246 14.013826646081084 29.798878988551433
    vertex -44.70577383141419 13.599716173917153 29.7988789885512
  endloop
endfacet
facet normal 1.444080137020822e-13 -7.747188661561201e-13 1.0
  outer loop
    vertex -42.261670744174324 13.599716173914125 29.798878988550424
    vertex -44.70577383141419 13.599716173917153 29.7988789885512
    vertex -44.7602925093509 13.185605701753014 29.798878988550964
  endloop
endfacet
facet normal 1.444080137020822e-13 -7.747188661561201e-13 1.0
  outer loop
    vertex -42.261670744174324 13.599716173914125 29.798878988550424
    vertex -44.7602925093509 13.185605701753014 29.798878988550964
    vertex -42.39796743901803 12.56443999350403 29.798878988549696
  endloop
endfacet
facet normal 1.444080137020822e-13 -7.747188661561201e-13 1.0
  outer loop
    vertex -42.39796743901803 12.56443999350403 29.798878988549696
    vertex -44.7602925093509 13.185605701753014 29.798878988550964
    vertex -44.920133185357585 12.799716173916746 29.79887898855074
  endloop
endfacet
facet normal 1.444080137020822e-13 -7.747188661561201e-13 1.0
  outer loop
    vertex -42.39796743901803 12.56443999350403 29.798878988549696
    vertex -44.920133185357585 12.799716173916746 29.79887898855074
    vertex -45.17440298151358 12.46834532401779 29.79887898855056
  endloop
endfacet
facet normal 1.444080137020822e-13 -7.747188661561201e-13 1.0
  outer loop
    vertex -42.39796743901803 12.56443999350403 29.798878988549696
    vertex -45.17440298151358 12.46834532401779 29.79887898855056
    vertex -42.79756912903654 11.59971617391408 29.79887898854905
  endloop
endfacet
facet normal 1.444080137020822e-13 -7.747188661561201e-13 1.0
  outer loop
    vertex -42.79756912903654 11.59971617391408 29.79887898854905
    vertex -45.17440298151358 12.46834532401779 29.79887898855056
    vertex -45.505773831411574 12.21407552786054 29.798878988550413
  endloop
endfacet
facet normal 1.444080137020822e-13 -7.747188661561201e-13 1.0
  outer loop
    vertex -42.79756912903654 11.59971617391408 29.79887898854905
    vertex -45.505773831411574 12.21407552786054 29.798878988550413
    vertex -45.89166335924725 12.054234851852405 29.79887898855032
  endloop
endfacet
facet normal 1.444080137020822e-13 -7.747188661561201e-13 1.0
  outer loop
    vertex -42.79756912903654 11.59971617391408 29.79887898854905
    vertex -45.89166335924725 12.054234851852405 29.79887898855032
    vertex -46.30577383141117 11.99971617391413 29.79887898855029
  endloop
endfacet
facet normal 1.1996588268026292e-14 5.630038345858786e-13 -1.0
  outer loop
    vertex -43.01487729703329 13.59971617391586 26.854609247047275
    vertex -47.951222098604624 16.44971617391579 26.85460924704882
    vertex -44.66032556422376 16.44971617391584 26.854609247048863
  endloop
endfacet
facet normal 1.1996588268026292e-14 5.630038345858786e-13 -1.0
  outer loop
    vertex -47.951222098604624 16.44971617391579 26.85460924704882
    vertex -43.01487729703329 13.59971617391586 26.854609247047275
    vertex -49.59667036579502 13.599716173915763 26.854609247047193
  endloop
endfacet
facet normal 1.1996588268026292e-14 5.630038345858786e-13 -1.0
  outer loop
    vertex -49.59667036579502 13.599716173915763 26.854609247047193
    vertex -43.01487729703329 13.59971617391586 26.854609247047275
    vertex -47.95122209860454 10.74971617391579 26.85460924704561
  endloop
endfacet
facet normal 1.1996588268026292e-14 5.630038345858786e-13 -1.0
  outer loop
    vertex -47.95122209860454 10.74971617391579 26.85460924704561
    vertex -43.01487729703329 13.59971617391586 26.854609247047275
    vertex -44.660325564223676 10.749716173915838 26.854609247045648
  endloop
endfacet
facet normal 0.8660254037844307 0.500000000000014 2.8991330358308854e-13
  outer loop
    vertex -49.59667036579502 13.599716173915763 26.854609247047193
    vertex -47.951222098604504 10.749716173917443 23.904609247045617
    vertex -49.59667036579499 13.59971617391742 23.90460924704719
  endloop
endfacet
facet normal 0.8660254037844307 0.500000000000014 2.8991330358308854e-13
  outer loop
    vertex -47.951222098604504 10.749716173917443 23.904609247045617
    vertex -49.59667036579502 13.599716173915763 26.854609247047193
    vertex -47.95122209860454 10.74971617391579 26.85460924704561
  endloop
endfacet
facet normal 0.8660254037844468 -0.49999999999998596 -2.732645401327749e-13
  outer loop
    vertex -47.951222098604624 16.44971617391579 26.85460924704882
    vertex -49.59667036579499 13.59971617391742 23.90460924704719
    vertex -47.9512220986046 16.44971617391745 23.904609247048818
  endloop
endfacet
facet normal 0.8660254037844468 -0.49999999999998596 -2.732645401327749e-13
  outer loop
    vertex -49.59667036579499 13.59971617391742 23.90460924704719
    vertex -47.951222098604624 16.44971617391579 26.85460924704882
    vertex -49.59667036579502 13.599716173915763 26.854609247047193
  endloop
endfacet
facet normal 1.4995735335050027e-14 -1.0 -5.635153360888079e-13
  outer loop
    vertex -47.9512220986046 16.44971617391745 23.904609247048818
    vertex -44.66032556422376 16.44971617391584 26.854609247048863
    vertex -47.951222098604624 16.44971617391579 26.85460924704882
  endloop
endfacet
facet normal 1.4995735335050027e-14 -1.0 -5.635153360888079e-13
  outer loop
    vertex -44.66032556422376 16.44971617391584 26.854609247048863
    vertex -47.9512220986046 16.44971617391745 23.904609247048818
    vertex -44.660325564223726 16.4497161739175 23.904609247048853
  endloop
endfacet
facet normal -0.8660254037844315 -0.5000000000000122 -2.90014610562704e-13
  outer loop
    vertex -43.01487729703326 13.599716173917525 23.904609247047294
    vertex -44.66032556422376 16.44971617391584 26.854609247048863
    vertex -44.660325564223726 16.4497161739175 23.904609247048853
  endloop
endfacet
facet normal -0.8660254037844315 -0.5000000000000122 -2.90014610562704e-13
  outer loop
    vertex -44.66032556422376 16.44971617391584 26.854609247048863
    vertex -43.01487729703326 13.599716173917525 23.904609247047294
    vertex -43.01487729703329 13.59971617391586 26.854609247047275
  endloop
endfacet
facet normal -0.8660254037844471 0.4999999999999852 2.7254929492919244e-13
  outer loop
    vertex -44.66032556422364 10.749716173917498 23.90460924704565
    vertex -43.01487729703329 13.59971617391586 26.854609247047275
    vertex -43.01487729703326 13.599716173917525 23.904609247047294
  endloop
endfacet
facet normal -0.8660254037844471 0.4999999999999852 2.7254929492919244e-13
  outer loop
    vertex -43.01487729703329 13.59971617391586 26.854609247047275
    vertex -44.66032556422364 10.749716173917498 23.90460924704565
    vertex -44.660325564223676 10.749716173915838 26.854609247045648
  endloop
endfacet
facet normal -1.6066859287553146e-14 1.0 5.618424746161105e-13
  outer loop
    vertex -44.660325564223676 10.749716173915838 26.854609247045648
    vertex -47.951222098604504 10.749716173917443 23.904609247045617
    vertex -47.95122209860454 10.74971617391579 26.85460924704561
  endloop
endfacet
facet normal -1.6066859287553146e-14 1.0 5.618424746161105e-13
  outer loop
    vertex -47.951222098604504 10.749716173917443 23.904609247045617
    vertex -44.660325564223676 10.749716173915838 26.854609247045648
    vertex -44.66032556422364 10.749716173917498 23.90460924704565
  endloop
endfacet
endsolid Graber_Alu_Testes
