  0
SECTION
  2
HEADER
  9
$ACADVER
  1
AC1014
  9
$ACADMAINTVER
 70
     9
  9
$DWGCODEPAGE
  3
ANSI_1252
  9
$INSBASE
 10
0.0
 20
0.0
 30
0.0
  9
$EXTMIN
 10
1.000000000000000E+20
 20
1.000000000000000E+20
 30
1.000000000000000E+20
  9
$EXTMAX
 10
-1.000000000000000E+20
 20
-1.000000000000000E+20
 30
-1.000000000000000E+20
  9
$LIMMIN
 10
0.0
 20
0.0
  9
$LIMMAX
 10
12.0
 20
9.0
  9
$ORTHOMODE
 70
     0
  9
$REGENMODE
 70
     1
  9
$FILLMODE
 70
     1
  9
$QTEXTMODE
 70
     0
  9
$MIRRTEXT
 70
     1
  9
$DRAGMODE
 70
     2
  9
$LTSCALE
 40
1.0
  9
$OSMODE
 70
    37
  9
$ATTMODE
 70
     1
  9
$TEXTSIZE
 40
0.2
  9
$TRACEWID
 40
0.05
  9
$TEXTSTYLE
  7
STANDARD
  9
$CLAYER
  8
0
  9
$CELTYPE
  6
BYLAYER
  9
$CECOLOR
 62
   256
  9
$CELTSCALE
 40
1.0
  9
$DELOBJ
 70
     1
  9
$DISPSILH
 70
     0
  9
$DIMSCALE
 40
1.0
  9
$DIMASZ
 40
0.18
  9
$DIMEXO
 40
0.0625
  9
$DIMDLI
 40
0.38
  9
$DIMRND
 40
0.0
  9
$DIMDLE
 40
0.0
  9
$DIMEXE
 40
0.18
  9
$DIMTP
 40
0.0
  9
$DIMTM
 40
0.0
  9
$DIMTXT
 40
0.18
  9
$DIMCEN
 40
0.09
  9
$DIMTSZ
 40
0.0
  9
$DIMTOL
 70
     0
  9
$DIMLIM
 70
     0
  9
$DIMTIH
 70
     1
  9
$DIMTOH
 70
     1
  9
$DIMSE1
 70
     0
  9
$DIMSE2
 70
     0
  9
$DIMTAD
 70
     0
  9
$DIMZIN
 70
     0
  9
$DIMBLK
  1

  9
$DIMASO
 70
     1
  9
$DIMSHO
 70
     1
  9
$DIMPOST
  1

  9
$DIMAPOST
  1

  9
$DIMALT
 70
     0
  9
$DIMALTD
 70
     2
  9
$DIMALTF
 40
25.4
  9
$DIMLFAC
 40
1.0
  9
$DIMTOFL
 70
     0
  9
$DIMTVP
 40
0.0
  9
$DIMTIX
 70
     0
  9
$DIMSOXD
 70
     0
  9
$DIMSAH
 70
     0
  9
$DIMBLK1
  1

  9
$DIMBLK2
  1

  9
$DIMSTYLE
  2
STANDARD
  9
$DIMCLRD
 70
     0
  9
$DIMCLRE
 70
     0
  9
$DIMCLRT
 70
     0
  9
$DIMTFAC
 40
1.0
  9
$DIMGAP
 40
0.09
  9
$DIMJUST
 70
     0
  9
$DIMSD1
 70
     0
  9
$DIMSD2
 70
     0
  9
$DIMTOLJ
 70
     1
  9
$DIMTZIN
 70
     0
  9
$DIMALTZ
 70
     0
  9
$DIMALTTZ
 70
     0
  9
$DIMFIT
 70
     3
  9
$DIMUPT
 70
     0
  9
$DIMUNIT
 70
     2
  9
$DIMDEC
 70
     4
  9
$DIMTDEC
 70
     4
  9
$DIMALTU
 70
     2
  9
$DIMALTTD
 70
     2
  9
$DIMTXSTY
  7
STANDARD
  9
$DIMAUNIT
 70
     0
  9
$LUNITS
 70
     2
  9
$LUPREC
 70
     4
  9
$SKETCHINC
 40
0.1
  9
$FILLETRAD
 40
0.5
  9
$AUNITS
 70
     0
  9
$AUPREC
 70
     0
  9
$MENU
  1
.
  9
$ELEVATION
 40
0.0
  9
$PELEVATION
 40
0.0
  9
$THICKNESS
 40
0.0
  9
$LIMCHECK
 70
     0
  9
$CHAMFERA
 40
0.0
  9
$CHAMFERB
 40
0.0
  9
$CHAMFERC
 40
0.0
  9
$CHAMFERD
 40
0.0
  9
$SKPOLY
 70
     0
  9
$TDCREATE
 40
2459271.425546285
  9
$TDUPDATE
 40
2459271.425546481
  9
$TDINDWG
 40
0.0000000116
  9
$TDUSRTIMER
 40
0.0000000116
  9
$USRTIMER
 70
     1
  9
$ANGBASE
 50
0.0
  9
$ANGDIR
 70
     0
  9
$PDMODE
 70
     0
  9
$PDSIZE
 40
0.0
  9
$PLINEWID
 40
0.0
  9
$COORDS
 70
     1
  9
$SPLFRAME
 70
     0
  9
$SPLINETYPE
 70
     6
  9
$SPLINESEGS
 70
     8
  9
$ATTDIA
 70
     0
  9
$ATTREQ
 70
     1
  9
$HANDLING
 70
     1
  9
$HANDSEED
  5
223
  9
$SURFTAB1
 70
     6
  9
$SURFTAB2
 70
     6
  9
$SURFTYPE
 70
     6
  9
$SURFU
 70
     6
  9
$SURFV
 70
     6
  9
$UCSNAME
  2

  9
$UCSORG
 10
0.0
 20
0.0
 30
0.0
  9
$UCSXDIR
 10
1.0
 20
0.0
 30
0.0
  9
$UCSYDIR
 10
0.0
 20
1.0
 30
0.0
  9
$PUCSNAME
  2

  9
$PUCSORG
 10
0.0
 20
0.0
 30
0.0
  9
$PUCSXDIR
 10
1.0
 20
0.0
 30
0.0
  9
$PUCSYDIR
 10
0.0
 20
1.0
 30
0.0
  9
$USERI1
 70
     0
  9
$USERI2
 70
     0
  9
$USERI3
 70
     0
  9
$USERI4
 70
     0
  9
$USERI5
 70
     0
  9
$USERR1
 40
0.0
  9
$USERR2
 40
0.0
  9
$USERR3
 40
0.0
  9
$USERR4
 40
0.0
  9
$USERR5
 40
0.0
  9
$WORLDVIEW
 70
     1
  9
$SHADEDGE
 70
     3
  9
$SHADEDIF
 70
    70
  9
$TILEMODE
 70
     1
  9
$MAXACTVP
 70
    64
  9
$PINSBASE
 10
0.0
 20
0.0
 30
0.0
  9
$PLIMCHECK
 70
     0
  9
$PEXTMIN
 10
1.000000000000000E+20
 20
1.000000000000000E+20
 30
1.000000000000000E+20
  9
$PEXTMAX
 10
-1.000000000000000E+20
 20
-1.000000000000000E+20
 30
-1.000000000000000E+20
  9
$PLIMMIN
 10
0.0
 20
0.0
  9
$PLIMMAX
 10
12.0
 20
9.0
  9
$UNITMODE
 70
     0
  9
$VISRETAIN
 70
     1
  9
$PLINEGEN
 70
     0
  9
$PSLTSCALE
 70
     1
  9
$TREEDEPTH
 70
  3020
  9
$PICKSTYLE
 70
     1
  9
$CMLSTYLE
  2
STANDARD
  9
$CMLJUST
 70
     0
  9
$CMLSCALE
 40
1.0
  9
$PROXYGRAPHICS
 70
     1
  9
$MEASUREMENT
 70
     1
  0
ENDSEC
  0
SECTION
  2
CLASSES
  0
CLASS
  1
ACDBDICTIONARYWDFLT
  2
AcDbDictionaryWithDefault
  3
ObjectDBX Classes
 90
        0
280
     0
281
     0
  0
CLASS
  1
VISUALSTYLE
  2
AcDbVisualStyle
  3
ObjectDBX Classes
 90
     4095
280
     0
281
     0
  0
CLASS
  1
MATERIAL
  2
AcDbMaterial
  3
ObjectDBX Classes
 90
     1153
280
     0
281
     0
  0
CLASS
  1
SCALE
  2
AcDbScale
  3
ObjectDBX Classes
 90
     1153
280
     0
281
     0
  0
CLASS
  1
TABLESTYLE
  2
AcDbTableStyle
  3
ObjectDBX Classes
 90
     4095
280
     0
281
     0
  0
CLASS
  1
MLEADERSTYLE
  2
AcDbMLeaderStyle
  3
ACDB_MLEADERSTYLE_CLASS
 90
     4095
280
     0
281
     0
  0
CLASS
  1
SUN
  2
AcDbSun
  3
SCENEOE
 90
     1153
280
     0
281
     0
  0
CLASS
  1
DICTIONARYVAR
  2
AcDbDictionaryVar
  3
ObjectDBX Classes
 90
        0
280
     0
281
     0
  0
CLASS
  1
XRECORD
  2
AcDbXrecord
  3
ObjectDBX Classes
 90
        0
280
     0
281
     0
  0
CLASS
  1
LWPOLYLINE
  2
AcDbPolyline
  3
ObjectDBX Classes
 90
        0
280
     0
281
     1
  0
CLASS
  1
HATCH
  2
AcDbHatch
  3
ObjectDBX Classes
 90
        0
280
     0
281
     1
  0
CLASS
  1
ACDBPLACEHOLDER
  2
AcDbPlaceHolder
  3
ObjectDBX Classes
 90
        0
280
     0
281
     0
  0
CLASS
  1
LAYOUT
  2
AcDbLayout
  3
ObjectDBX Classes
 90
        0
280
     0
281
     0
  0
ENDSEC
  0
SECTION
  2
TABLES
  0
TABLE
  2
VPORT
  5
8
102
{ACAD_XDICTIONARY
360
218
102
}
330
0
100
AcDbSymbolTable
 70
     1
  0
VPORT
  5
29
330
8
100
AcDbSymbolTableRecord
100
AcDbViewportTableRecord
  2
*ACTIVE
 70
     0
 10
0.0
 20
0.0
 11
1.0
 21
1.0
 12
0.0
 22
0.0
 13
0.0
 23
0.0
 14
0.5
 24
0.5
 15
0.5
 25
0.5
 16
0.0
 26
0.0
 36
1.0
 17
0.0
 27
0.0
 37
-1000.0
 40
455.3137175588089
 41
1.801418439716312
 42
50.0
 43
2296.222539488545
 44
2841.049848170102
 50
0.0
 51
0.0
 71
     0
 72
   100
 73
     1
 74
     3
 75
     0
 76
     0
 77
     0
 78
     0
  0
ENDTAB
  0
TABLE
  2
LTYPE
  5
5
330
0
100
AcDbSymbolTable
 70
     1
  0
LTYPE
  5
14
330
5
100
AcDbSymbolTableRecord
100
AcDbLinetypeTableRecord
  2
BYBLOCK
 70
     0
  3

 72
    65
 73
     0
 40
0.0
  0
LTYPE
  5
15
330
5
100
AcDbSymbolTableRecord
100
AcDbLinetypeTableRecord
  2
BYLAYER
 70
     0
  3

 72
    65
 73
     0
 40
0.0
  0
LTYPE
  5
16
330
5
100
AcDbSymbolTableRecord
100
AcDbLinetypeTableRecord
  2
CONTINUOUS
 70
     0
  3
Solid line
 72
    65
 73
     0
 40
0.0
  0
ENDTAB
  0
TABLE
  2
LAYER
  5
2
330
0
100
AcDbSymbolTable
 70
     3
  0
LAYER
  5
10
330
2
100
AcDbSymbolTableRecord
100
AcDbLayerTableRecord
  2
0
 70
     0
 62
     7
  6
CONTINUOUS
  0
LAYER
  5
6E
330
2
100
AcDbSymbolTableRecord
100
AcDbLayerTableRecord
  2
PROFILEEDGES
 70
     0
 62
     7
  6
CONTINUOUS
  0
LAYER
  5
6F
330
2
100
AcDbSymbolTableRecord
100
AcDbLayerTableRecord
  2
SECTIONCUTEDGES
 70
     0
 62
     7
  6
CONTINUOUS
  0
ENDTAB
  0
TABLE
  2
STYLE
  5
3
330
0
100
AcDbSymbolTable
 70
     1
  0
STYLE
  5
11
330
3
100
AcDbSymbolTableRecord
100
AcDbTextStyleTableRecord
  2
STANDARD
 70
     0
 40
0.0
 41
1.0
 50
0.0
 71
     0
 42
0.2
  3
txt
  4

  0
ENDTAB
  0
TABLE
  2
VIEW
  5
6
330
0
100
AcDbSymbolTable
 70
     0
  0
ENDTAB
  0
TABLE
  2
UCS
  5
7
330
0
100
AcDbSymbolTable
 70
     0
  0
ENDTAB
  0
TABLE
  2
APPID
  5
9
330
0
100
AcDbSymbolTable
 70
     2
  0
APPID
  5
12
330
9
100
AcDbSymbolTableRecord
100
AcDbRegAppTableRecord
  2
ACAD
 70
     0
  0
APPID
  5
222
330
9
100
AcDbSymbolTableRecord
100
AcDbRegAppTableRecord
  2
ACAD_MLEADERVER
 70
     0
  0
ENDTAB
  0
TABLE
  2
DIMSTYLE
  5
A
330
0
100
AcDbSymbolTable
 70
     1
  0
DIMSTYLE
105
27
330
A
100
AcDbSymbolTableRecord
100
AcDbDimStyleTableRecord
  2
STANDARD
 70
     0
  3

  4

  5

  6

  7

 40
1.0
 41
0.18
 42
0.0625
 43
0.38
 44
0.18
 45
0.0
 46
0.0
 47
0.0
 48
0.0
140
0.18
141
0.09
142
0.0
143
25.4
144
1.0
145
0.0
146
1.0
147
0.09
 71
     0
 72
     0
 73
     1
 74
     1
 75
     0
 76
     0
 77
     0
 78
     0
170
     0
171
     2
172
     0
173
     0
174
     0
175
     0
176
     0
177
     0
178
     0
270
     2
271
     4
272
     4
273
     2
274
     2
340
11
275
     0
280
     0
281
     0
282
     0
283
     1
284
     0
285
     0
286
     0
287
     3
288
     0
  0
ENDTAB
  0
TABLE
  2
BLOCK_RECORD
  5
1
330
0
100
AcDbSymbolTable
 70
     1
  0
BLOCK_RECORD
  5
1F
330
1
100
AcDbSymbolTableRecord
100
AcDbBlockTableRecord
  2
*MODEL_SPACE
  0
BLOCK_RECORD
  5
1B
330
1
100
AcDbSymbolTableRecord
100
AcDbBlockTableRecord
  2
*PAPER_SPACE
  0
ENDTAB
  0
ENDSEC
  0
SECTION
  2
BLOCKS
  0
BLOCK
  5
20
330
1F
100
AcDbEntity
  8
0
100
AcDbBlockBegin
  2
*MODEL_SPACE
 70
     0
 10
0.0
 20
0.0
 30
0.0
  3
*MODEL_SPACE
  1

  0
ENDBLK
  5
21
330
1F
100
AcDbEntity
  8
0
100
AcDbBlockEnd
  0
BLOCK
  5
1C
330
1B
100
AcDbEntity
 67
     1
  8
0
100
AcDbBlockBegin
  2
*PAPER_SPACE
 70
     0
 10
0.0
 20
0.0
 30
0.0
  3
*PAPER_SPACE
  1

  0
ENDBLK
  5
1D
330
1B
100
AcDbEntity
 67
     1
  8
0
100
AcDbBlockEnd
  0
ENDSEC
  0
SECTION
  2
ENTITIES
  0
LINE
  5
70
330
1F
100
AcDbEntity
  8
0
100
AcDbLine
 10
-378.9999994021878
 20
61.36477901619518
 30
0.0
 11
-378.9454807242951
 21
61.7788894883651
 31
0.0
  0
LINE
  5
71
330
1F
100
AcDbEntity
  8
0
100
AcDbLine
 10
375.8000281588851
 20
-78.12666917123494
 30
0.0
 11
375.8545468324838
 21
-77.71255873168789
 31
0.0
  0
LINE
  5
72
330
1F
100
AcDbEntity
  8
0
100
AcDbLine
 10
375.8545468324838
 20
-77.71255873168789
 30
0.0
 11
376.0143875084501
 21
-77.3266692038348
 31
0.0
  0
LINE
  5
73
330
1F
100
AcDbEntity
  8
0
100
AcDbLine
 10
376.0143875084501
 20
-77.3266692038348
 30
0.0
 11
376.268657293259
 21
-76.99529836865229
 31
0.0
  0
LINE
  5
74
330
1F
100
AcDbEntity
  8
0
100
AcDbLine
 10
376.268657293259
 20
-76.99529836865229
 30
0.0
 11
376.6000281200807
 21
-76.74102858408456
 31
0.0
  0
LINE
  5
75
330
1F
100
AcDbEntity
  8
0
100
AcDbLine
 10
376.6000281200807
 20
-76.74102858408456
 30
0.0
 11
376.985917622126
 21
-76.58118790657815
 31
0.0
  0
LINE
  5
76
330
1F
100
AcDbEntity
  8
0
100
AcDbLine
 10
376.985917622126
 20
-76.58118790657815
 30
0.0
 11
377.4000280726924
 21
-76.52666921444715
 31
0.0
  0
LINE
  5
77
330
1F
100
AcDbEntity
  8
0
100
AcDbLine
 10
377.4000280726924
 20
-76.52666921444715
 30
0.0
 11
377.814138533238
 21
-76.58118786929104
 31
0.0
  0
LINE
  5
78
330
1F
100
AcDbEntity
  8
0
100
AcDbLine
 10
377.814138533238
 20
-76.58118786929104
 30
0.0
 11
378.2000280625489
 21
-76.7410285194837
 31
0.0
  0
LINE
  5
79
330
1F
100
AcDbEntity
  8
0
100
AcDbLine
 10
378.2000280625489
 20
-76.7410285194837
 30
0.0
 11
378.5313989266239
 21
-76.99529829401328
 31
0.0
  0
LINE
  5
7A
330
1F
100
AcDbEntity
  8
0
100
AcDbLine
 10
378.5313989266239
 20
-76.99529829401328
 30
0.0
 11
378.7856687458655
 21
-77.3266691322605
 31
0.0
  0
LINE
  5
7B
330
1F
100
AcDbEntity
  8
0
100
AcDbLine
 10
378.7856687458655
 20
-77.3266691322605
 30
0.0
 11
378.9455094476876
 21
-77.71255866153734
 31
0.0
  0
LINE
  5
7C
330
1F
100
AcDbEntity
  8
0
100
AcDbLine
 10
378.9455094476876
 20
-77.71255866153734
 30
0.0
 11
379.0000281472609
 21
-78.12666914784508
 31
0.0
  0
LINE
  5
7D
330
1F
100
AcDbEntity
  8
0
100
AcDbLine
 10
379.0000281472609
 20
-78.12666914784508
 30
0.0
 11
378.9455094809916
 21
-78.54077964306465
 31
0.0
  0
LINE
  5
7E
330
1F
100
AcDbEntity
  8
0
100
AcDbLine
 10
378.9455094809916
 20
-78.54077964306465
 30
0.0
 11
378.7856688035673
 21
-78.92666919669144
 31
0.0
  0
LINE
  5
7F
330
1F
100
AcDbEntity
  8
0
100
AcDbLine
 10
378.7856688035673
 20
-78.92666919669144
 30
0.0
 11
378.531399004609
 21
-79.25804005346576
 31
0.0
  0
LINE
  5
80
330
1F
100
AcDbEntity
  8
0
100
AcDbLine
 10
378.531399004609
 20
-79.25804005346576
 30
0.0
 11
378.2000281547375
 21
-79.51230984965765
 31
0.0
  0
LINE
  5
81
330
1F
100
AcDbEntity
  8
0
100
AcDbLine
 10
378.2000281547375
 20
-79.51230984965765
 30
0.0
 11
377.8141386269186
 21
-79.67215052570602
 31
0.0
  0
LINE
  5
82
330
1F
100
AcDbEntity
  8
0
100
AcDbLine
 10
377.8141386269186
 20
-79.67215052570602
 30
0.0
 11
377.4000281547603
 21
-79.72666920368748
 31
0.0
  0
LINE
  5
83
330
1F
100
AcDbEntity
  8
0
100
AcDbLine
 10
377.4000281547603
 20
-79.72666920368748
 30
0.0
 11
376.9859176825905
 21
-79.67215052579405
 31
0.0
  0
LINE
  5
84
330
1F
100
AcDbEntity
  8
0
100
AcDbLine
 10
376.9859176825905
 20
-79.67215052579405
 30
0.0
 11
376.6000281547376
 21
-79.51230984982762
 31
0.0
  0
LINE
  5
85
330
1F
100
AcDbEntity
  8
0
100
AcDbLine
 10
376.6000281547376
 20
-79.51230984982762
 30
0.0
 11
376.2686573048121
 21
-79.25804005370638
 31
0.0
  0
LINE
  5
86
330
1F
100
AcDbEntity
  8
0
100
AcDbLine
 10
376.2686573048121
 20
-79.25804005370638
 30
0.0
 11
376.0143875086202
 21
-78.9266692038348
 31
0.0
  0
LINE
  5
87
330
1F
100
AcDbEntity
  8
0
100
AcDbLine
 10
376.0143875086202
 20
-78.9266692038348
 30
0.0
 11
375.8545468325718
 21
-78.54077967601592
 31
0.0
  0
LINE
  5
88
330
1F
100
AcDbEntity
  8
0
100
AcDbLine
 10
375.8545468325718
 20
-78.54077967601592
 30
0.0
 11
375.8000281588851
 21
-78.12666917123494
 31
0.0
  0
LINE
  5
89
330
1F
100
AcDbEntity
  8
0
100
AcDbLine
 10
375.8000281570276
 20
-60.62666917123828
 30
0.0
 11
375.8545468306253
 21
-60.21255873169097
 31
0.0
  0
LINE
  5
8A
330
1F
100
AcDbEntity
  8
0
100
AcDbLine
 10
375.8545468306253
 20
-60.21255873169097
 30
0.0
 11
376.0143875065909
 21
-59.8266692038377
 31
0.0
  0
LINE
  5
8B
330
1F
100
AcDbEntity
  8
0
100
AcDbLine
 10
376.0143875065909
 20
-59.8266692038377
 30
0.0
 11
376.2686572913991
 21
-59.49529836865456
 31
0.0
  0
LINE
  5
8C
330
1F
100
AcDbEntity
  8
0
100
AcDbLine
 10
376.2686572913991
 20
-59.49529836865456
 30
0.0
 11
376.6000281182203
 21
-59.24102858408629
 31
0.0
  0
LINE
  5
8D
330
1F
100
AcDbEntity
  8
0
100
AcDbLine
 10
376.6000281182203
 20
-59.24102858408629
 30
0.0
 11
376.9859176202651
 21
-59.08118790657908
 31
0.0
  0
LINE
  5
8E
330
1F
100
AcDbEntity
  8
0
100
AcDbLine
 10
376.9859176202651
 20
-59.08118790657908
 30
0.0
 11
377.4000280708315
 21
-59.02666921444718
 31
0.0
  0
LINE
  5
8F
330
1F
100
AcDbEntity
  8
0
100
AcDbLine
 10
377.4000280708315
 20
-59.02666921444718
 30
0.0
 11
377.8141385313772
 21
-59.08118786929013
 31
0.0
  0
LINE
  5
90
330
1F
100
AcDbEntity
  8
0
100
AcDbLine
 10
377.8141385313772
 20
-59.08118786929013
 30
0.0
 11
378.2000280606885
 21
-59.24102851948209
 31
0.0
  0
LINE
  5
91
330
1F
100
AcDbEntity
  8
0
100
AcDbLine
 10
378.2000280606885
 20
-59.24102851948209
 30
0.0
 11
378.5313989247639
 21
-59.49529829401094
 31
0.0
  0
LINE
  5
92
330
1F
100
AcDbEntity
  8
0
100
AcDbLine
 10
378.5313989247639
 20
-59.49529829401094
 30
0.0
 11
378.7856687440062
 21
-59.82666913225763
 31
0.0
  0
LINE
  5
93
330
1F
100
AcDbEntity
  8
0
100
AcDbLine
 10
378.7856687440062
 20
-59.82666913225763
 30
0.0
 11
378.9455094458291
 21
-60.2125586615341
 31
0.0
  0
LINE
  5
94
330
1F
100
AcDbEntity
  8
0
100
AcDbLine
 10
378.9455094458291
 20
-60.2125586615341
 30
0.0
 11
379.0000281454033
 21
-60.62666914784176
 31
0.0
  0
LINE
  5
95
330
1F
100
AcDbEntity
  8
0
100
AcDbLine
 10
379.0000281454033
 20
-60.62666914784176
 30
0.0
 11
378.945509479135
 21
-61.04077964306142
 31
0.0
  0
LINE
  5
96
330
1F
100
AcDbEntity
  8
0
100
AcDbLine
 10
378.945509479135
 20
-61.04077964306142
 30
0.0
 11
378.7856688017114
 21
-61.42666919668855
 31
0.0
  0
LINE
  5
97
330
1F
100
AcDbEntity
  8
0
100
AcDbLine
 10
378.7856688017114
 20
-61.42666919668855
 30
0.0
 11
378.5313990027539
 21
-61.75804005346342
 31
0.0
  0
LINE
  5
98
330
1F
100
AcDbEntity
  8
0
100
AcDbLine
 10
378.5313990027539
 20
-61.75804005346342
 30
0.0
 11
378.200028152883
 21
-62.01230984965604
 31
0.0
  0
LINE
  5
99
330
1F
100
AcDbEntity
  8
0
100
AcDbLine
 10
378.200028152883
 20
-62.01230984965604
 30
0.0
 11
377.8141386250643
 21
-62.17215052570521
 31
0.0
  0
LINE
  5
9A
330
1F
100
AcDbEntity
  8
0
100
AcDbLine
 10
377.8141386250643
 20
-62.17215052570521
 30
0.0
 11
377.4000281529061
 21
-62.22666920368749
 31
0.0
  0
LINE
  5
9B
330
1F
100
AcDbEntity
  8
0
100
AcDbLine
 10
377.4000281529061
 20
-62.22666920368749
 30
0.0
 11
376.9859176807362
 21
-62.17215052579495
 31
0.0
  0
LINE
  5
9C
330
1F
100
AcDbEntity
  8
0
100
AcDbLine
 10
376.9859176807362
 20
-62.17215052579495
 30
0.0
 11
376.6000281528829
 21
-62.01230984982934
 31
0.0
  0
LINE
  5
9D
330
1F
100
AcDbEntity
  8
0
100
AcDbLine
 10
376.6000281528829
 20
-62.01230984982934
 30
0.0
 11
376.2686573029569
 21
-61.75804005370865
 31
0.0
  0
LINE
  5
9E
330
1F
100
AcDbEntity
  8
0
100
AcDbLine
 10
376.2686573029569
 20
-61.75804005370865
 30
0.0
 11
376.0143875067644
 21
-61.4266692038377
 31
0.0
  0
LINE
  5
9F
330
1F
100
AcDbEntity
  8
0
100
AcDbLine
 10
376.0143875067644
 20
-61.4266692038377
 30
0.0
 11
375.8545468307152
 21
-61.04077967601908
 31
0.0
  0
LINE
  5
A0
330
1F
100
AcDbEntity
  8
0
100
AcDbLine
 10
375.8545468307152
 20
-61.04077967601908
 30
0.0
 11
375.8000281570276
 21
-60.62666917123828
 31
0.0
  0
LINE
  5
A1
330
1F
100
AcDbEntity
  8
0
100
AcDbLine
 10
375.7999993851388
 20
61.36477902254359
 30
0.0
 11
375.8545180587366
 21
61.77888946209089
 31
0.0
  0
LINE
  5
A2
330
1F
100
AcDbEntity
  8
0
100
AcDbLine
 10
375.8545180587366
 20
61.77888946209089
 30
0.0
 11
376.0143587347022
 21
62.16477898994421
 31
0.0
  0
LINE
  5
A3
330
1F
100
AcDbEntity
  8
0
100
AcDbLine
 10
376.0143587347022
 20
62.16477898994421
 30
0.0
 11
376.2686285195103
 21
62.49614982512732
 31
0.0
  0
LINE
  5
A4
330
1F
100
AcDbEntity
  8
0
100
AcDbLine
 10
376.2686285195103
 20
62.49614982512732
 30
0.0
 11
376.5999993463315
 21
62.75041960969563
 31
0.0
  0
LINE
  5
A5
330
1F
100
AcDbEntity
  8
0
100
AcDbLine
 10
376.5999993463315
 20
62.75041960969563
 30
0.0
 11
376.9858888483764
 21
62.91026028720281
 31
0.0
  0
LINE
  5
A6
330
1F
100
AcDbEntity
  8
0
100
AcDbLine
 10
376.9858888483764
 20
62.91026028720281
 30
0.0
 11
377.3999992989428
 21
62.96477897933467
 31
0.0
  0
LINE
  5
A7
330
1F
100
AcDbEntity
  8
0
100
AcDbLine
 10
377.3999992989428
 20
62.96477897933467
 30
0.0
 11
377.8141097594885
 21
62.91026032449179
 31
0.0
  0
LINE
  5
A8
330
1F
100
AcDbEntity
  8
0
100
AcDbLine
 10
377.8141097594885
 20
62.91026032449179
 30
0.0
 11
378.1999992887996
 21
62.75041967429999
 31
0.0
  0
LINE
  5
A9
330
1F
100
AcDbEntity
  8
0
100
AcDbLine
 10
378.1999992887996
 20
62.75041967429999
 30
0.0
 11
378.5313701528752
 21
62.49614989977093
 31
0.0
  0
LINE
  5
AA
330
1F
100
AcDbEntity
  8
0
100
AcDbLine
 10
378.5313701528752
 20
62.49614989977093
 30
0.0
 11
378.7856399721174
 21
62.16477906152439
 31
0.0
  0
LINE
  5
AB
330
1F
100
AcDbEntity
  8
0
100
AcDbLine
 10
378.7856399721174
 20
62.16477906152439
 30
0.0
 11
378.9454806739404
 21
61.77888953224772
 31
0.0
  0
LINE
  5
AC
330
1F
100
AcDbEntity
  8
0
100
AcDbLine
 10
378.9454806739404
 20
61.77888953224772
 30
0.0
 11
378.9999993735146
 21
61.36477904594006
 31
0.0
  0
LINE
  5
AD
330
1F
100
AcDbEntity
  8
0
100
AcDbLine
 10
378.9999993735146
 20
61.36477904594006
 30
0.0
 11
378.9454807072462
 21
60.95066855072049
 31
0.0
  0
LINE
  5
AE
330
1F
100
AcDbEntity
  8
0
100
AcDbLine
 10
378.9454807072462
 20
60.95066855072049
 30
0.0
 11
378.7856400298227
 21
60.56477899709347
 31
0.0
  0
LINE
  5
AF
330
1F
100
AcDbEntity
  8
0
100
AcDbLine
 10
378.7856400298227
 20
60.56477899709347
 30
0.0
 11
378.531370230865
 21
60.23340814031846
 31
0.0
  0
LINE
  5
B0
330
1F
100
AcDbEntity
  8
0
100
AcDbLine
 10
378.531370230865
 20
60.23340814031846
 30
0.0
 11
378.1999993809942
 21
59.97913834412601
 31
0.0
  0
LINE
  5
B1
330
1F
100
AcDbEntity
  8
0
100
AcDbLine
 10
378.1999993809942
 20
59.97913834412601
 30
0.0
 11
377.8141098531755
 21
59.81929766807671
 31
0.0
  0
LINE
  5
B2
330
1F
100
AcDbEntity
  8
0
100
AcDbLine
 10
377.8141098531755
 20
59.81929766807671
 30
0.0
 11
377.3999993810174
 21
59.76477899009435
 31
0.0
  0
LINE
  5
B3
330
1F
100
AcDbEntity
  8
0
100
AcDbLine
 10
377.3999993810174
 20
59.76477899009435
 30
0.0
 11
376.9858889088475
 21
59.81929766798694
 31
0.0
  0
LINE
  5
B4
330
1F
100
AcDbEntity
  8
0
100
AcDbLine
 10
376.9858889088475
 20
59.81929766798694
 30
0.0
 11
376.5999993809942
 21
59.9791383439526
 31
0.0
  0
LINE
  5
B5
330
1F
100
AcDbEntity
  8
0
100
AcDbLine
 10
376.5999993809942
 20
59.9791383439526
 30
0.0
 11
376.2686285310681
 21
60.23340814007325
 31
0.0
  0
LINE
  5
B6
330
1F
100
AcDbEntity
  8
0
100
AcDbLine
 10
376.2686285310681
 20
60.23340814007325
 30
0.0
 11
376.0143587348756
 21
60.56477898994422
 31
0.0
  0
LINE
  5
B7
330
1F
100
AcDbEntity
  8
0
100
AcDbLine
 10
376.0143587348756
 20
60.56477898994422
 30
0.0
 11
375.8545180588264
 21
60.95066851776279
 31
0.0
  0
LINE
  5
B8
330
1F
100
AcDbEntity
  8
0
100
AcDbLine
 10
375.8545180588264
 20
60.95066851776279
 30
0.0
 11
375.7999993851388
 21
61.36477902254359
 31
0.0
  0
LINE
  5
B9
330
1F
100
AcDbEntity
  8
0
100
AcDbLine
 10
375.7999993832813
 20
78.86477902254359
 30
0.0
 11
375.8545180568791
 21
79.27888946209089
 31
0.0
  0
LINE
  5
BA
330
1F
100
AcDbEntity
  8
0
100
AcDbLine
 10
375.8545180568791
 20
79.27888946209089
 30
0.0
 11
376.0143587328446
 21
79.6647789899442
 31
0.0
  0
LINE
  5
BB
330
1F
100
AcDbEntity
  8
0
100
AcDbLine
 10
376.0143587328446
 20
79.6647789899442
 30
0.0
 11
376.2686285176528
 21
79.9961498251273
 31
0.0
  0
LINE
  5
BC
330
1F
100
AcDbEntity
  8
0
100
AcDbLine
 10
376.2686285176528
 20
79.9961498251273
 30
0.0
 11
376.599999344474
 21
80.25041960969564
 31
0.0
  0
LINE
  5
BD
330
1F
100
AcDbEntity
  8
0
100
AcDbLine
 10
376.599999344474
 20
80.25041960969564
 30
0.0
 11
376.9858888465188
 21
80.41026028720279
 31
0.0
  0
LINE
  5
BE
330
1F
100
AcDbEntity
  8
0
100
AcDbLine
 10
376.9858888465188
 20
80.41026028720279
 30
0.0
 11
377.3999992970852
 21
80.46477897933467
 31
0.0
  0
LINE
  5
BF
330
1F
100
AcDbEntity
  8
0
100
AcDbLine
 10
377.3999992970852
 20
80.46477897933467
 30
0.0
 11
377.8141097576309
 21
80.41026032449177
 31
0.0
  0
LINE
  5
C0
330
1F
100
AcDbEntity
  8
0
100
AcDbLine
 10
377.8141097576309
 20
80.41026032449177
 30
0.0
 11
378.1999992869422
 21
80.25041967429996
 31
0.0
  0
LINE
  5
C1
330
1F
100
AcDbEntity
  8
0
100
AcDbLine
 10
378.1999992869422
 20
80.25041967429996
 30
0.0
 11
378.5313701510177
 21
79.99614989977094
 31
0.0
  0
LINE
  5
C2
330
1F
100
AcDbEntity
  8
0
100
AcDbLine
 10
378.5313701510177
 20
79.99614989977094
 30
0.0
 11
378.7856399702599
 21
79.66477906152434
 31
0.0
  0
LINE
  5
C3
330
1F
100
AcDbEntity
  8
0
100
AcDbLine
 10
378.7856399702599
 20
79.66477906152434
 30
0.0
 11
378.9454806720829
 21
79.27888953224772
 31
0.0
  0
LINE
  5
C4
330
1F
100
AcDbEntity
  8
0
100
AcDbLine
 10
378.9454806720829
 20
79.27888953224772
 30
0.0
 11
378.9999993716571
 21
78.86477904594005
 31
0.0
  0
LINE
  5
C5
330
1F
100
AcDbEntity
  8
0
100
AcDbLine
 10
378.9999993716571
 20
78.86477904594005
 30
0.0
 11
378.9454807053887
 21
78.4506685507204
 31
0.0
  0
LINE
  5
C6
330
1F
100
AcDbEntity
  8
0
100
AcDbLine
 10
378.9454807053887
 20
78.4506685507204
 30
0.0
 11
378.7856400279651
 21
78.06477899709341
 31
0.0
  0
LINE
  5
C7
330
1F
100
AcDbEntity
  8
0
100
AcDbLine
 10
378.7856400279651
 20
78.06477899709341
 30
0.0
 11
378.5313702290075
 21
77.73340814031845
 31
0.0
  0
LINE
  5
C8
330
1F
100
AcDbEntity
  8
0
100
AcDbLine
 10
378.5313702290075
 20
77.73340814031845
 30
0.0
 11
378.1999993791366
 21
77.47913834412596
 31
0.0
  0
LINE
  5
C9
330
1F
100
AcDbEntity
  8
0
100
AcDbLine
 10
378.1999993791366
 20
77.47913834412596
 30
0.0
 11
377.814109851318
 21
77.31929766807674
 31
0.0
  0
LINE
  5
CA
330
1F
100
AcDbEntity
  8
0
100
AcDbLine
 10
377.814109851318
 20
77.31929766807674
 30
0.0
 11
377.3999993791599
 21
77.26477899009434
 31
0.0
  0
LINE
  5
CB
330
1F
100
AcDbEntity
  8
0
100
AcDbLine
 10
377.3999993791599
 20
77.26477899009434
 30
0.0
 11
376.9858889069899
 21
77.31929766798697
 31
0.0
  0
LINE
  5
CC
330
1F
100
AcDbEntity
  8
0
100
AcDbLine
 10
376.9858889069899
 20
77.31929766798697
 30
0.0
 11
376.5999993791366
 21
77.47913834395254
 31
0.0
  0
LINE
  5
CD
330
1F
100
AcDbEntity
  8
0
100
AcDbLine
 10
376.5999993791366
 20
77.47913834395254
 30
0.0
 11
376.2686285292106
 21
77.73340814007325
 31
0.0
  0
LINE
  5
CE
330
1F
100
AcDbEntity
  8
0
100
AcDbLine
 10
376.2686285292106
 20
77.73340814007325
 30
0.0
 11
376.0143587330181
 21
78.0647789899442
 31
0.0
  0
LINE
  5
CF
330
1F
100
AcDbEntity
  8
0
100
AcDbLine
 10
376.0143587330181
 20
78.0647789899442
 30
0.0
 11
375.8545180569689
 21
78.45066851776282
 31
0.0
  0
LINE
  5
D0
330
1F
100
AcDbEntity
  8
0
100
AcDbLine
 10
375.8545180569689
 20
78.45066851776282
 30
0.0
 11
375.7999993832813
 21
78.86477902254359
 31
0.0
  0
LINE
  5
D1
330
1F
100
AcDbEntity
  8
0
100
AcDbLine
 10
207.20000004462
 20
0.413194976243179
 30
0.0
 11
207.4044450824179
 21
1.966109214255414
 31
0.0
  0
LINE
  5
D2
330
1F
100
AcDbEntity
  8
0
100
AcDbLine
 10
207.4044450824179
 20
1.966109214255414
 30
0.0
 11
208.0038476172852
 21
3.4131949437068
 31
0.0
  0
LINE
  5
D3
330
1F
100
AcDbEntity
  8
0
100
AcDbLine
 10
208.0038476172852
 20
3.4131949437068
 30
0.0
 11
208.9573593414231
 21
4.655835616190514
 31
0.0
  0
LINE
  5
D4
330
1F
100
AcDbEntity
  8
0
100
AcDbLine
 10
208.9573593414231
 20
4.655835616190514
 30
0.0
 11
210.2000000053866
 21
5.609347340290697
 31
0.0
  0
LINE
  5
D5
330
1F
100
AcDbEntity
  8
0
100
AcDbLine
 10
210.2000000053866
 20
5.609347340290697
 30
0.0
 11
211.6470857089305
 21
6.208749876936405
 31
0.0
  0
LINE
  5
D6
330
1F
100
AcDbEntity
  8
0
100
AcDbLine
 10
211.6470857089305
 20
6.208749876936405
 30
0.0
 11
213.1999999579303
 21
6.413194933523705
 31
0.0
  0
LINE
  5
D7
330
1F
100
AcDbEntity
  8
0
100
AcDbLine
 10
213.1999999579303
 20
6.413194933523705
 30
0.0
 11
214.7529142169431
 21
6.208749914480497
 31
0.0
  0
LINE
  5
D8
330
1F
100
AcDbEntity
  8
0
100
AcDbLine
 10
214.7529142169431
 20
6.208749914480497
 30
0.0
 11
216.1999999478519
 21
5.609347405387562
 31
0.0
  0
LINE
  5
D9
330
1F
100
AcDbEntity
  8
0
100
AcDbLine
 10
216.1999999478519
 20
5.609347405387562
 30
0.0
 11
217.4426406492263
 21
4.655835691530916
 31
0.0
  0
LINE
  5
DA
330
1F
100
AcDbEntity
  8
0
100
AcDbLine
 10
217.4426406492263
 20
4.655835691530916
 30
0.0
 11
218.3961524080015
 21
3.413195016142429
 31
0.0
  0
LINE
  5
DB
330
1F
100
AcDbEntity
  8
0
100
AcDbLine
 10
218.3961524080015
 20
3.413195016142429
 30
0.0
 11
218.9955549689643
 21
1.966109285366634
 31
0.0
  0
LINE
  5
DC
330
1F
100
AcDbEntity
  8
0
100
AcDbLine
 10
218.9955549689643
 20
1.966109285366634
 30
0.0
 11
219.2000000329948
 21
0.4131950006248941
 31
0.0
  0
LINE
  5
DD
330
1F
100
AcDbEntity
  8
0
100
AcDbLine
 10
219.2000000329948
 20
0.4131950006248941
 30
0.0
 11
218.9955550025267
 21
-1.139719293062878
 31
0.0
  0
LINE
  5
DE
330
1F
100
AcDbEntity
  8
0
100
AcDbLine
 10
218.9955550025267
 20
-1.139719293062878
 30
0.0
 11
218.3961524662022
 21
-2.586805048288654
 31
0.0
  0
LINE
  5
DF
330
1F
100
AcDbEntity
  8
0
100
AcDbLine
 10
218.3961524662022
 20
-2.586805048288654
 30
0.0
 11
217.4426407279148
 21
-3.829445742364929
 31
0.0
  0
LINE
  5
E0
330
1F
100
AcDbEntity
  8
0
100
AcDbLine
 10
217.4426407279148
 20
-3.829445742364929
 30
0.0
 11
216.2000000409014
 21
-4.782957478090255
 31
0.0
  0
LINE
  5
E1
330
1F
100
AcDbEntity
  8
0
100
AcDbLine
 10
216.2000000409014
 20
-4.782957478090255
 30
0.0
 11
214.7529143115831
 21
-5.382360013278554
 31
0.0
  0
LINE
  5
E2
330
1F
100
AcDbEntity
  8
0
100
AcDbLine
 10
214.7529143115831
 20
-5.382360013278554
 30
0.0
 11
213.2000000409907
 21
-5.586805055716511
 31
0.0
  0
LINE
  5
E3
330
1F
100
AcDbEntity
  8
0
100
AcDbLine
 10
213.2000000409907
 20
-5.586805055716511
 30
0.0
 11
211.6470857703529
 21
-5.382360013623266
 31
0.0
  0
LINE
  5
E4
330
1F
100
AcDbEntity
  8
0
100
AcDbLine
 10
211.6470857703529
 20
-5.382360013623266
 30
0.0
 11
210.2000000409014
 21
-4.782957478756083
 31
0.0
  0
LINE
  5
E5
330
1F
100
AcDbEntity
  8
0
100
AcDbLine
 10
210.2000000409014
 20
-4.782957478756083
 30
0.0
 11
208.9573593536763
 21
-3.829445743306663
 31
0.0
  0
LINE
  5
E6
330
1F
100
AcDbEntity
  8
0
100
AcDbLine
 10
208.9573593536763
 20
-3.829445743306663
 30
0.0
 11
208.0038476179511
 21
-2.586805056293189
 31
0.0
  0
LINE
  5
E7
330
1F
100
AcDbEntity
  8
0
100
AcDbLine
 10
208.0038476179511
 20
-2.586805056293189
 30
0.0
 11
207.4044450827627
 21
-1.13971932697486
 31
0.0
  0
LINE
  5
E8
330
1F
100
AcDbEntity
  8
0
100
AcDbLine
 10
207.4044450827627
 20
-1.13971932697486
 30
0.0
 11
207.20000004462
 21
0.413194976243179
 31
0.0
  0
LINE
  5
E9
330
1F
100
AcDbEntity
  8
0
100
AcDbLine
 10
389.6000000773031
 20
-107.945445226575
 30
0.0
 11
389.600000047676
 21
108.0192300170972
 31
0.0
  0
LINE
  5
EA
330
1F
100
AcDbEntity
  8
0
100
AcDbLine
 10
365.3823390691555
 20
-132.163106961656
 30
0.0
 11
389.6000000773031
 21
-107.945445226575
 31
0.0
  0
LINE
  5
EB
330
1F
100
AcDbEntity
  8
0
100
AcDbLine
 10
365.3823371231211
 20
132.2368922147185
 30
0.0
 11
219.4176611541069
 21
132.2368921989841
 31
0.0
  0
LINE
  5
EC
330
1F
100
AcDbEntity
  8
0
100
AcDbLine
 10
389.600000047676
 20
108.0192300170972
 30
0.0
 11
365.3823371231211
 21
132.2368922147185
 31
0.0
  0
LINE
  5
ED
330
1F
100
AcDbEntity
  8
0
100
AcDbLine
 10
195.1999999247688
 20
108.0192302427126
 30
0.0
 11
195.1999999777409
 21
-107.9454448874906
 31
0.0
  0
LINE
  5
EE
330
1F
100
AcDbEntity
  8
0
100
AcDbLine
 10
219.4176611541069
 20
132.2368921989841
 30
0.0
 11
195.1999999247688
 21
108.0192302427126
 31
0.0
  0
LINE
  5
EF
330
1F
100
AcDbEntity
  8
0
100
AcDbLine
 10
219.4176627954998
 20
-132.1631069783161
 30
0.0
 11
365.3823390691555
 21
-132.163106961656
 31
0.0
  0
LINE
  5
F0
330
1F
100
AcDbEntity
  8
0
100
AcDbLine
 10
195.1999999777409
 20
-107.9454448874906
 30
0.0
 11
219.4176627954998
 21
-132.1631069783161
 31
0.0
  0
LINE
  5
F1
330
1F
100
AcDbEntity
  8
0
100
AcDbLine
 10
-192.2000000532957
 20
136.0690732682259
 30
0.0
 11
-192.2000000467758
 21
-135.9952878736341
 31
0.0
  0
LINE
  5
F2
330
1F
100
AcDbEntity
  8
0
100
AcDbLine
 10
192.1999999707237
 20
-135.4760677197708
 30
0.0
 11
192.1999999398852
 21
135.4690172844307
 31
0.0
  0
LINE
  5
F3
330
1F
100
AcDbEntity
  8
0
100
AcDbLine
 10
-173.240983031478
 20
-155.0381794900478
 30
0.0
 11
172.6299071766497
 21
-155.0381794901396
 31
0.0
  0
LINE
  5
F4
330
1F
100
AcDbEntity
  8
0
100
AcDbLine
 10
172.630837732049
 20
155.0381794901396
 30
0.0
 11
-173.2308938331226
 21
155.0381794892416
 31
0.0
  0
LINE
  5
F5
330
1F
100
AcDbEntity
  8
0
100
AcDbLine
 10
-178.4000280446962
 20
78.53633894819014
 30
0.0
 11
-178.4545467226346
 21
78.12222847602625
 31
0.0
  0
LINE
  5
F6
330
1F
100
AcDbEntity
  8
0
100
AcDbLine
 10
-178.4545467226346
 20
78.12222847602625
 30
0.0
 11
-178.6143873986428
 21
77.73633894819058
 31
0.0
  0
LINE
  5
F7
330
1F
100
AcDbEntity
  8
0
100
AcDbLine
 10
-178.6143873986428
 20
77.73633894819058
 30
0.0
 11
-178.8686571948001
 21
77.4049680982927
 31
0.0
  0
LINE
  5
F8
330
1F
100
AcDbEntity
  8
0
100
AcDbLine
 10
-178.8686571948001
 20
77.4049680982927
 30
0.0
 11
-179.2000280446991
 21
77.15069830213672
 31
0.0
  0
LINE
  5
F9
330
1F
100
AcDbEntity
  8
0
100
AcDbLine
 10
-179.2000280446991
 20
77.15069830213672
 30
0.0
 11
-179.5859175725354
 21
76.9908576261301
 31
0.0
  0
LINE
  5
FA
330
1F
100
AcDbEntity
  8
0
100
AcDbLine
 10
-179.5859175725354
 20
76.9908576261301
 30
0.0
 11
-180.0000280446996
 21
76.93633894819347
 31
0.0
  0
LINE
  5
FB
330
1F
100
AcDbEntity
  8
0
100
AcDbLine
 10
-180.0000280446996
 20
76.93633894819347
 30
0.0
 11
-180.4141385168635
 21
76.9908576261319
 31
0.0
  0
LINE
  5
FC
330
1F
100
AcDbEntity
  8
0
100
AcDbLine
 10
-180.4141385168635
 20
76.9908576261319
 30
0.0
 11
-180.8000280446991
 21
77.15069830214006
 31
0.0
  0
LINE
  5
FD
330
1F
100
AcDbEntity
  8
0
100
AcDbLine
 10
-180.8000280446991
 20
77.15069830214006
 30
0.0
 11
-181.1313988945971
 21
77.40496809829739
 31
0.0
  0
LINE
  5
FE
330
1F
100
AcDbEntity
  8
0
100
AcDbLine
 10
-181.1313988945971
 20
77.40496809829739
 30
0.0
 11
-181.385668690753
 21
77.73633894819636
 31
0.0
  0
LINE
  5
FF
330
1F
100
AcDbEntity
  8
0
100
AcDbLine
 10
-181.385668690753
 20
77.73633894819636
 30
0.0
 11
-181.5455093667596
 21
78.12222847603266
 31
0.0
  0
LINE
  5
100
330
1F
100
AcDbEntity
  8
0
100
AcDbLine
 10
-181.5455093667596
 20
78.12222847603266
 30
0.0
 11
-181.6000280446962
 21
78.53633894819681
 31
0.0
  0
LINE
  5
101
330
1F
100
AcDbEntity
  8
0
100
AcDbLine
 10
-181.6000280446962
 20
78.53633894819681
 30
0.0
 11
-181.5455093667579
 21
78.95044942036077
 31
0.0
  0
LINE
  5
102
330
1F
100
AcDbEntity
  8
0
100
AcDbLine
 10
-181.5455093667579
 20
78.95044942036077
 30
0.0
 11
-181.3856686907496
 21
79.33633894819636
 31
0.0
  0
LINE
  5
103
330
1F
100
AcDbEntity
  8
0
100
AcDbLine
 10
-181.3856686907496
 20
79.33633894819636
 30
0.0
 11
-181.1313988945924
 21
79.66770979809434
 31
0.0
  0
LINE
  5
104
330
1F
100
AcDbEntity
  8
0
100
AcDbLine
 10
-181.1313988945924
 20
79.66770979809434
 30
0.0
 11
-180.8000280446934
 21
79.92197959425022
 31
0.0
  0
LINE
  5
105
330
1F
100
AcDbEntity
  8
0
100
AcDbLine
 10
-180.8000280446934
 20
79.92197959425022
 30
0.0
 11
-180.414138516857
 21
80.08182027025686
 31
0.0
  0
LINE
  5
106
330
1F
100
AcDbEntity
  8
0
100
AcDbLine
 10
-180.414138516857
 20
80.08182027025686
 30
0.0
 11
-180.0000280446929
 21
80.13633894819347
 31
0.0
  0
LINE
  5
107
330
1F
100
AcDbEntity
  8
0
100
AcDbLine
 10
-180.0000280446929
 20
80.13633894819347
 30
0.0
 11
-179.585917572529
 21
80.08182027025514
 31
0.0
  0
LINE
  5
108
330
1F
100
AcDbEntity
  8
0
100
AcDbLine
 10
-179.585917572529
 20
80.08182027025514
 30
0.0
 11
-179.2000280446933
 21
79.92197959424688
 31
0.0
  0
LINE
  5
109
330
1F
100
AcDbEntity
  8
0
100
AcDbLine
 10
-179.2000280446933
 20
79.92197959424688
 30
0.0
 11
-178.8686571947954
 21
79.66770979808963
 31
0.0
  0
LINE
  5
10A
330
1F
100
AcDbEntity
  8
0
100
AcDbLine
 10
-178.8686571947954
 20
79.66770979808963
 30
0.0
 11
-178.6143873986395
 21
79.33633894819057
 31
0.0
  0
LINE
  5
10B
330
1F
100
AcDbEntity
  8
0
100
AcDbLine
 10
-178.6143873986395
 20
79.33633894819057
 30
0.0
 11
-178.4545467226329
 21
78.95044942035427
 31
0.0
  0
LINE
  5
10C
330
1F
100
AcDbEntity
  8
0
100
AcDbLine
 10
-178.4545467226329
 20
78.95044942035427
 30
0.0
 11
-178.4000280446962
 21
78.53633894819014
 31
0.0
  0
LINE
  5
10D
330
1F
100
AcDbEntity
  8
0
100
AcDbLine
 10
-178.4000280447354
 20
61.03633894819348
 30
0.0
 11
-178.4545467226729
 21
60.62222847602943
 31
0.0
  0
LINE
  5
10E
330
1F
100
AcDbEntity
  8
0
100
AcDbLine
 10
-178.4545467226729
 20
60.62222847602943
 30
0.0
 11
-178.6143873986803
 21
60.23633894819348
 31
0.0
  0
LINE
  5
10F
330
1F
100
AcDbEntity
  8
0
100
AcDbLine
 10
-178.6143873986803
 20
60.23633894819348
 30
0.0
 11
-178.868657194837
 21
59.90496809829505
 31
0.0
  0
LINE
  5
110
330
1F
100
AcDbEntity
  8
0
100
AcDbLine
 10
-178.868657194837
 20
59.90496809829505
 30
0.0
 11
-179.2000280447355
 21
59.65069830213844
 31
0.0
  0
LINE
  5
111
330
1F
100
AcDbEntity
  8
0
100
AcDbLine
 10
-179.2000280447355
 20
59.65069830213844
 30
0.0
 11
-179.5859175725714
 21
59.490857626131
 31
0.0
  0
LINE
  5
112
330
1F
100
AcDbEntity
  8
0
100
AcDbLine
 10
-179.5859175725714
 20
59.490857626131
 30
0.0
 11
-180.0000280447354
 21
59.43633894819348
 31
0.0
  0
LINE
  5
113
330
1F
100
AcDbEntity
  8
0
100
AcDbLine
 10
-180.0000280447354
 20
59.43633894819348
 30
0.0
 11
-180.4141385168995
 21
59.490857626131
 31
0.0
  0
LINE
  5
114
330
1F
100
AcDbEntity
  8
0
100
AcDbLine
 10
-180.4141385168995
 20
59.490857626131
 30
0.0
 11
-180.8000280447355
 21
59.65069830213844
 31
0.0
  0
LINE
  5
115
330
1F
100
AcDbEntity
  8
0
100
AcDbLine
 10
-180.8000280447355
 20
59.65069830213844
 30
0.0
 11
-181.1313988946339
 21
59.90496809829505
 31
0.0
  0
LINE
  5
116
330
1F
100
AcDbEntity
  8
0
100
AcDbLine
 10
-181.1313988946339
 20
59.90496809829505
 30
0.0
 11
-181.3856686907905
 21
60.23633894819348
 31
0.0
  0
LINE
  5
117
330
1F
100
AcDbEntity
  8
0
100
AcDbLine
 10
-181.3856686907905
 20
60.23633894819348
 30
0.0
 11
-181.5455093667979
 21
60.62222847602943
 31
0.0
  0
LINE
  5
118
330
1F
100
AcDbEntity
  8
0
100
AcDbLine
 10
-181.5455093667979
 20
60.62222847602943
 30
0.0
 11
-181.6000280447354
 21
61.03633894819348
 31
0.0
  0
LINE
  5
119
330
1F
100
AcDbEntity
  8
0
100
AcDbLine
 10
-181.6000280447354
 20
61.03633894819348
 30
0.0
 11
-181.5455093667979
 21
61.45044942035754
 31
0.0
  0
LINE
  5
11A
330
1F
100
AcDbEntity
  8
0
100
AcDbLine
 10
-181.5455093667979
 20
61.45044942035754
 30
0.0
 11
-181.3856686907905
 21
61.83633894819348
 31
0.0
  0
LINE
  5
11B
330
1F
100
AcDbEntity
  8
0
100
AcDbLine
 10
-181.3856686907905
 20
61.83633894819348
 30
0.0
 11
-181.1313988946339
 21
62.16770979809199
 31
0.0
  0
LINE
  5
11C
330
1F
100
AcDbEntity
  8
0
100
AcDbLine
 10
-181.1313988946339
 20
62.16770979809199
 30
0.0
 11
-180.8000280447355
 21
62.42197959424861
 31
0.0
  0
LINE
  5
11D
330
1F
100
AcDbEntity
  8
0
100
AcDbLine
 10
-180.8000280447355
 20
62.42197959424861
 30
0.0
 11
-180.4141385168995
 21
62.58182027025605
 31
0.0
  0
LINE
  5
11E
330
1F
100
AcDbEntity
  8
0
100
AcDbLine
 10
-180.4141385168995
 20
62.58182027025605
 30
0.0
 11
-180.0000280447354
 21
62.63633894819348
 31
0.0
  0
LINE
  5
11F
330
1F
100
AcDbEntity
  8
0
100
AcDbLine
 10
-180.0000280447354
 20
62.63633894819348
 30
0.0
 11
-179.5859175725714
 21
62.58182027025605
 31
0.0
  0
LINE
  5
120
330
1F
100
AcDbEntity
  8
0
100
AcDbLine
 10
-179.5859175725714
 20
62.58182027025605
 30
0.0
 11
-179.2000280447355
 21
62.42197959424861
 31
0.0
  0
LINE
  5
121
330
1F
100
AcDbEntity
  8
0
100
AcDbLine
 10
-179.2000280447355
 20
62.42197959424861
 30
0.0
 11
-178.868657194837
 21
62.16770979809199
 31
0.0
  0
LINE
  5
122
330
1F
100
AcDbEntity
  8
0
100
AcDbLine
 10
-178.868657194837
 20
62.16770979809199
 30
0.0
 11
-178.6143873986803
 21
61.83633894819348
 31
0.0
  0
LINE
  5
123
330
1F
100
AcDbEntity
  8
0
100
AcDbLine
 10
-178.6143873986803
 20
61.83633894819348
 30
0.0
 11
-178.4545467226729
 21
61.45044942035754
 31
0.0
  0
LINE
  5
124
330
1F
100
AcDbEntity
  8
0
100
AcDbLine
 10
-178.4545467226729
 20
61.45044942035754
 30
0.0
 11
-178.4000280447354
 21
61.03633894819348
 31
0.0
  0
LINE
  5
125
330
1F
100
AcDbEntity
  8
0
100
AcDbLine
 10
-178.3999992860686
 20
-60.9551092455885
 30
0.0
 11
-178.4545179640061
 21
-61.36921971775256
 31
0.0
  0
LINE
  5
126
330
1F
100
AcDbEntity
  8
0
100
AcDbLine
 10
-178.4545179640061
 20
-61.36921971775256
 30
0.0
 11
-178.6143586400135
 21
-61.7551092455885
 31
0.0
  0
LINE
  5
127
330
1F
100
AcDbEntity
  8
0
100
AcDbLine
 10
-178.6143586400135
 20
-61.7551092455885
 30
0.0
 11
-178.8686284361701
 21
-62.08648009548697
 31
0.0
  0
LINE
  5
128
330
1F
100
AcDbEntity
  8
0
100
AcDbLine
 10
-178.8686284361701
 20
-62.08648009548697
 30
0.0
 11
-179.1999992860686
 21
-62.34074989164358
 31
0.0
  0
LINE
  5
129
330
1F
100
AcDbEntity
  8
0
100
AcDbLine
 10
-179.1999992860686
 20
-62.34074989164358
 30
0.0
 11
-179.5858888139046
 21
-62.50059056765102
 31
0.0
  0
LINE
  5
12A
330
1F
100
AcDbEntity
  8
0
100
AcDbLine
 10
-179.5858888139046
 20
-62.50059056765102
 30
0.0
 11
-179.9999992860686
 21
-62.5551092455885
 31
0.0
  0
LINE
  5
12B
330
1F
100
AcDbEntity
  8
0
100
AcDbLine
 10
-179.9999992860686
 20
-62.5551092455885
 30
0.0
 11
-180.4141097582326
 21
-62.50059056765102
 31
0.0
  0
LINE
  5
12C
330
1F
100
AcDbEntity
  8
0
100
AcDbLine
 10
-180.4141097582326
 20
-62.50059056765102
 30
0.0
 11
-180.7999992860686
 21
-62.34074989164358
 31
0.0
  0
LINE
  5
12D
330
1F
100
AcDbEntity
  8
0
100
AcDbLine
 10
-180.7999992860686
 20
-62.34074989164358
 30
0.0
 11
-181.1313701359671
 21
-62.08648009548697
 31
0.0
  0
LINE
  5
12E
330
1F
100
AcDbEntity
  8
0
100
AcDbLine
 10
-181.1313701359671
 20
-62.08648009548697
 30
0.0
 11
-181.3856399321237
 21
-61.7551092455885
 31
0.0
  0
LINE
  5
12F
330
1F
100
AcDbEntity
  8
0
100
AcDbLine
 10
-181.3856399321237
 20
-61.7551092455885
 30
0.0
 11
-181.5454806081311
 21
-61.36921971775256
 31
0.0
  0
LINE
  5
130
330
1F
100
AcDbEntity
  8
0
100
AcDbLine
 10
-181.5454806081311
 20
-61.36921971775256
 30
0.0
 11
-181.5999992860686
 21
-60.9551092455885
 31
0.0
  0
LINE
  5
131
330
1F
100
AcDbEntity
  8
0
100
AcDbLine
 10
-181.5999992860686
 20
-60.9551092455885
 30
0.0
 11
-181.5454806081311
 21
-60.54099877342449
 31
0.0
  0
LINE
  5
132
330
1F
100
AcDbEntity
  8
0
100
AcDbLine
 10
-181.5454806081311
 20
-60.54099877342449
 30
0.0
 11
-181.3856399321237
 21
-60.1551092455885
 31
0.0
  0
LINE
  5
133
330
1F
100
AcDbEntity
  8
0
100
AcDbLine
 10
-181.3856399321237
 20
-60.1551092455885
 30
0.0
 11
-181.1313701359671
 21
-59.82373839569003
 31
0.0
  0
LINE
  5
134
330
1F
100
AcDbEntity
  8
0
100
AcDbLine
 10
-181.1313701359671
 20
-59.82373839569003
 30
0.0
 11
-180.7999992860686
 21
-59.56946859953342
 31
0.0
  0
LINE
  5
135
330
1F
100
AcDbEntity
  8
0
100
AcDbLine
 10
-180.7999992860686
 20
-59.56946859953342
 30
0.0
 11
-180.4141097582326
 21
-59.40962792352597
 31
0.0
  0
LINE
  5
136
330
1F
100
AcDbEntity
  8
0
100
AcDbLine
 10
-180.4141097582326
 20
-59.40962792352597
 30
0.0
 11
-179.9999992860686
 21
-59.3551092455885
 31
0.0
  0
LINE
  5
137
330
1F
100
AcDbEntity
  8
0
100
AcDbLine
 10
-179.9999992860686
 20
-59.3551092455885
 30
0.0
 11
-179.5858888139046
 21
-59.40962792352597
 31
0.0
  0
LINE
  5
138
330
1F
100
AcDbEntity
  8
0
100
AcDbLine
 10
-179.5858888139046
 20
-59.40962792352597
 30
0.0
 11
-179.1999992860686
 21
-59.56946859953342
 31
0.0
  0
LINE
  5
139
330
1F
100
AcDbEntity
  8
0
100
AcDbLine
 10
-179.1999992860686
 20
-59.56946859953342
 30
0.0
 11
-178.8686284361701
 21
-59.82373839569003
 31
0.0
  0
LINE
  5
13A
330
1F
100
AcDbEntity
  8
0
100
AcDbLine
 10
-178.8686284361701
 20
-59.82373839569003
 30
0.0
 11
-178.6143586400135
 21
-60.1551092455885
 31
0.0
  0
LINE
  5
13B
330
1F
100
AcDbEntity
  8
0
100
AcDbLine
 10
-178.6143586400135
 20
-60.1551092455885
 30
0.0
 11
-178.4545179640061
 21
-60.54099877342445
 31
0.0
  0
LINE
  5
13C
330
1F
100
AcDbEntity
  8
0
100
AcDbLine
 10
-178.4545179640061
 20
-60.54099877342445
 30
0.0
 11
-178.3999992860686
 21
-60.9551092455885
 31
0.0
  0
LINE
  5
13D
330
1F
100
AcDbEntity
  8
0
100
AcDbLine
 10
-178.3999992861078
 20
-78.45510924558849
 30
0.0
 11
-178.4545179640453
 21
-78.86921971775253
 31
0.0
  0
LINE
  5
13E
330
1F
100
AcDbEntity
  8
0
100
AcDbLine
 10
-178.4545179640453
 20
-78.86921971775253
 30
0.0
 11
-178.6143586400527
 21
-79.25510924558849
 31
0.0
  0
LINE
  5
13F
330
1F
100
AcDbEntity
  8
0
100
AcDbLine
 10
-178.6143586400527
 20
-79.25510924558849
 30
0.0
 11
-178.8686284362093
 21
-79.58648009548696
 31
0.0
  0
LINE
  5
140
330
1F
100
AcDbEntity
  8
0
100
AcDbLine
 10
-178.8686284362093
 20
-79.58648009548696
 30
0.0
 11
-179.1999992861078
 21
-79.8407498916436
 31
0.0
  0
LINE
  5
141
330
1F
100
AcDbEntity
  8
0
100
AcDbLine
 10
-179.1999992861078
 20
-79.8407498916436
 30
0.0
 11
-179.5858888139438
 21
-80.00059056765099
 31
0.0
  0
LINE
  5
142
330
1F
100
AcDbEntity
  8
0
100
AcDbLine
 10
-179.5858888139438
 20
-80.00059056765099
 30
0.0
 11
-179.9999992861078
 21
-80.05510924558848
 31
0.0
  0
LINE
  5
143
330
1F
100
AcDbEntity
  8
0
100
AcDbLine
 10
-179.9999992861078
 20
-80.05510924558848
 30
0.0
 11
-180.4141097582718
 21
-80.00059056765099
 31
0.0
  0
LINE
  5
144
330
1F
100
AcDbEntity
  8
0
100
AcDbLine
 10
-180.4141097582718
 20
-80.00059056765099
 30
0.0
 11
-180.7999992861078
 21
-79.8407498916436
 31
0.0
  0
LINE
  5
145
330
1F
100
AcDbEntity
  8
0
100
AcDbLine
 10
-180.7999992861078
 20
-79.8407498916436
 30
0.0
 11
-181.1313701360063
 21
-79.58648009548696
 31
0.0
  0
LINE
  5
146
330
1F
100
AcDbEntity
  8
0
100
AcDbLine
 10
-181.1313701360063
 20
-79.58648009548696
 30
0.0
 11
-181.3856399321629
 21
-79.25510924558849
 31
0.0
  0
LINE
  5
147
330
1F
100
AcDbEntity
  8
0
100
AcDbLine
 10
-181.3856399321629
 20
-79.25510924558849
 30
0.0
 11
-181.5454806081703
 21
-78.86921971775253
 31
0.0
  0
LINE
  5
148
330
1F
100
AcDbEntity
  8
0
100
AcDbLine
 10
-181.5454806081703
 20
-78.86921971775253
 30
0.0
 11
-181.5999992861078
 21
-78.45510924558849
 31
0.0
  0
LINE
  5
149
330
1F
100
AcDbEntity
  8
0
100
AcDbLine
 10
-181.5999992861078
 20
-78.45510924558849
 30
0.0
 11
-181.5454806081703
 21
-78.04099877342446
 31
0.0
  0
LINE
  5
14A
330
1F
100
AcDbEntity
  8
0
100
AcDbLine
 10
-181.5454806081703
 20
-78.04099877342446
 30
0.0
 11
-181.3856399321629
 21
-77.65510924558849
 31
0.0
  0
LINE
  5
14B
330
1F
100
AcDbEntity
  8
0
100
AcDbLine
 10
-181.3856399321629
 20
-77.65510924558849
 30
0.0
 11
-181.1313701360063
 21
-77.32373839569001
 31
0.0
  0
LINE
  5
14C
330
1F
100
AcDbEntity
  8
0
100
AcDbLine
 10
-181.1313701360063
 20
-77.32373839569001
 30
0.0
 11
-180.7999992861078
 21
-77.06946859953338
 31
0.0
  0
LINE
  5
14D
330
1F
100
AcDbEntity
  8
0
100
AcDbLine
 10
-180.7999992861078
 20
-77.06946859953338
 30
0.0
 11
-180.4141097582718
 21
-76.90962792352599
 31
0.0
  0
LINE
  5
14E
330
1F
100
AcDbEntity
  8
0
100
AcDbLine
 10
-180.4141097582718
 20
-76.90962792352599
 30
0.0
 11
-179.9999992861078
 21
-76.8551092455885
 31
0.0
  0
LINE
  5
14F
330
1F
100
AcDbEntity
  8
0
100
AcDbLine
 10
-179.9999992861078
 20
-76.8551092455885
 30
0.0
 11
-179.5858888139438
 21
-76.90962792352599
 31
0.0
  0
LINE
  5
150
330
1F
100
AcDbEntity
  8
0
100
AcDbLine
 10
-179.5858888139438
 20
-76.90962792352599
 30
0.0
 11
-179.1999992861078
 21
-77.06946859953338
 31
0.0
  0
LINE
  5
151
330
1F
100
AcDbEntity
  8
0
100
AcDbLine
 10
-179.1999992861078
 20
-77.06946859953338
 30
0.0
 11
-178.8686284362093
 21
-77.32373839569001
 31
0.0
  0
LINE
  5
152
330
1F
100
AcDbEntity
  8
0
100
AcDbLine
 10
-178.8686284362093
 20
-77.32373839569001
 30
0.0
 11
-178.6143586400527
 21
-77.65510924558849
 31
0.0
  0
LINE
  5
153
330
1F
100
AcDbEntity
  8
0
100
AcDbLine
 10
-178.6143586400527
 20
-77.65510924558849
 30
0.0
 11
-178.4545179640453
 21
-78.04099877342446
 31
0.0
  0
LINE
  5
154
330
1F
100
AcDbEntity
  8
0
100
AcDbLine
 10
-178.4545179640453
 20
-78.04099877342446
 30
0.0
 11
-178.3999992861078
 21
-78.45510924558849
 31
0.0
  0
LINE
  5
155
330
1F
100
AcDbEntity
  8
0
100
AcDbLine
 10
192.1999999398852
 20
135.4690172844307
 30
0.0
 11
172.630837732049
 21
155.0381794901396
 31
0.0
  0
LINE
  5
156
330
1F
100
AcDbEntity
  8
0
100
AcDbLine
 10
-173.2308938331226
 20
155.0381794892416
 30
0.0
 11
-192.2000000532957
 21
136.0690732682259
 31
0.0
  0
LINE
  5
157
330
1F
100
AcDbEntity
  8
0
100
AcDbLine
 10
-192.2000000467758
 20
-135.9952878736341
 30
0.0
 11
-173.240983031478
 21
-155.0381794900478
 31
0.0
  0
LINE
  5
158
330
1F
100
AcDbEntity
  8
0
100
AcDbLine
 10
172.6299071766497
 20
-155.0381794901396
 30
0.0
 11
192.1999999707237
 21
-135.4760677197708
 31
0.0
  0
LINE
  5
159
330
1F
100
AcDbEntity
  8
0
100
AcDbLine
 10
180.1999999551607
 20
-0.0035252175588033
 30
0.0
 11
179.9955549128991
 21
-1.556439488174459
 31
0.0
  0
LINE
  5
15A
330
1F
100
AcDbEntity
  8
0
100
AcDbLine
 10
179.9955549128991
 20
-1.556439488174459
 30
0.0
 11
179.396152377875
 21
-3.003525217560873
 31
0.0
  0
LINE
  5
15B
330
1F
100
AcDbEntity
  8
0
100
AcDbLine
 10
179.396152377875
 20
-3.003525217560873
 30
0.0
 11
178.442640642291
 21
-4.246165904682656
 31
0.0
  0
LINE
  5
15C
330
1F
100
AcDbEntity
  8
0
100
AcDbLine
 10
178.442640642291
 20
-4.246165904682656
 30
0.0
 11
177.1999999551742
 21
-5.19967764027321
 31
0.0
  0
LINE
  5
15D
330
1F
100
AcDbEntity
  8
0
100
AcDbLine
 10
177.1999999551742
 20
-5.19967764027321
 30
0.0
 11
175.7529142257909
 21
-5.799080175304718
 31
0.0
  0
LINE
  5
15E
330
1F
100
AcDbEntity
  8
0
100
AcDbLine
 10
175.7529142257909
 20
-5.799080175304718
 30
0.0
 11
174.1999999551763
 21
-6.003525217574358
 31
0.0
  0
LINE
  5
15F
330
1F
100
AcDbEntity
  8
0
100
AcDbLine
 10
174.1999999551763
 20
-6.003525217574358
 30
0.0
 11
172.6470856845606
 21
-5.799080175312795
 31
0.0
  0
LINE
  5
160
330
1F
100
AcDbEntity
  8
0
100
AcDbLine
 10
172.6470856845606
 20
-5.799080175312795
 30
0.0
 11
171.1999999551742
 21
-5.199677640288776
 31
0.0
  0
LINE
  5
161
330
1F
100
AcDbEntity
  8
0
100
AcDbLine
 10
171.1999999551742
 20
-5.199677640288776
 30
0.0
 11
169.9573592680524
 21
-4.246165904704674
 31
0.0
  0
LINE
  5
162
330
1F
100
AcDbEntity
  8
0
100
AcDbLine
 10
169.9573592680524
 20
-4.246165904704674
 30
0.0
 11
169.0038475324618
 21
-3.003525217587855
 31
0.0
  0
LINE
  5
163
330
1F
100
AcDbEntity
  8
0
100
AcDbLine
 10
169.0038475324618
 20
-3.003525217587855
 30
0.0
 11
168.4044449974303
 21
-1.556439488204508
 31
0.0
  0
LINE
  5
164
330
1F
100
AcDbEntity
  8
0
100
AcDbLine
 10
168.4044449974303
 20
-1.556439488204508
 30
0.0
 11
168.1999999551607
 21
-0.0035252175899357
 31
0.0
  0
LINE
  5
165
330
1F
100
AcDbEntity
  8
0
100
AcDbLine
 10
168.1999999551607
 20
-0.0035252175899357
 30
0.0
 11
168.4044449974222
 21
1.54938905302572
 31
0.0
  0
LINE
  5
166
330
1F
100
AcDbEntity
  8
0
100
AcDbLine
 10
168.4044449974222
 20
1.54938905302572
 30
0.0
 11
169.0038475324463
 21
2.996474782412134
 31
0.0
  0
LINE
  5
167
330
1F
100
AcDbEntity
  8
0
100
AcDbLine
 10
169.0038475324463
 20
2.996474782412134
 30
0.0
 11
169.9573592680304
 21
4.239115469533917
 31
0.0
  0
LINE
  5
168
330
1F
100
AcDbEntity
  8
0
100
AcDbLine
 10
169.9573592680304
 20
4.239115469533917
 30
0.0
 11
171.1999999551472
 21
5.192627205124471
 31
0.0
  0
LINE
  5
169
330
1F
100
AcDbEntity
  8
0
100
AcDbLine
 10
171.1999999551472
 20
5.192627205124471
 30
0.0
 11
172.6470856845305
 21
5.792029740155979
 31
0.0
  0
LINE
  5
16A
330
1F
100
AcDbEntity
  8
0
100
AcDbLine
 10
172.6470856845305
 20
5.792029740155979
 30
0.0
 11
174.1999999551451
 21
5.996474782425619
 31
0.0
  0
LINE
  5
16B
330
1F
100
AcDbEntity
  8
0
100
AcDbLine
 10
174.1999999551451
 20
5.996474782425619
 30
0.0
 11
175.7529142257607
 21
5.792029740164056
 31
0.0
  0
LINE
  5
16C
330
1F
100
AcDbEntity
  8
0
100
AcDbLine
 10
175.7529142257607
 20
5.792029740164056
 30
0.0
 11
177.1999999551472
 21
5.192627205140037
 31
0.0
  0
LINE
  5
16D
330
1F
100
AcDbEntity
  8
0
100
AcDbLine
 10
177.1999999551472
 20
5.192627205140037
 30
0.0
 11
178.442640642269
 21
4.239115469555935
 31
0.0
  0
LINE
  5
16E
330
1F
100
AcDbEntity
  8
0
100
AcDbLine
 10
178.442640642269
 20
4.239115469555935
 30
0.0
 11
179.3961523778595
 21
2.996474782439116
 31
0.0
  0
LINE
  5
16F
330
1F
100
AcDbEntity
  8
0
100
AcDbLine
 10
179.3961523778595
 20
2.996474782439116
 30
0.0
 11
179.995554912891
 21
1.549389053055815
 31
0.0
  0
LINE
  5
170
330
1F
100
AcDbEntity
  8
0
100
AcDbLine
 10
179.995554912891
 20
1.549389053055815
 30
0.0
 11
180.1999999551607
 21
-0.0035252175588033
 31
0.0
  0
LINE
  5
171
330
1F
100
AcDbEntity
  8
0
100
AcDbLine
 10
-375.8000281456967
 20
-78.12666917723647
 30
0.0
 11
-375.85454682368
 21
-77.71255870507859
 31
0.0
  0
LINE
  5
172
330
1F
100
AcDbEntity
  8
0
100
AcDbLine
 10
-375.85454682368
 20
-77.71255870507859
 30
0.0
 11
-376.01438749973
 21
-77.32666917726016
 31
0.0
  0
LINE
  5
173
330
1F
100
AcDbEntity
  8
0
100
AcDbLine
 10
-376.01438749973
 20
-77.32666917726016
 30
0.0
 11
-376.2686572959233
 21
-76.99529832738993
 31
0.0
  0
LINE
  5
174
330
1F
100
AcDbEntity
  8
0
100
AcDbLine
 10
-376.2686572959233
 20
-76.99529832738993
 30
0.0
 11
-376.6000281458498
 21
-76.74102853126978
 31
0.0
  0
LINE
  5
175
330
1F
100
AcDbEntity
  8
0
100
AcDbLine
 10
-376.6000281458498
 20
-76.74102853126978
 30
0.0
 11
-376.9859176737035
 21
-76.58118785530498
 31
0.0
  0
LINE
  5
176
330
1F
100
AcDbEntity
  8
0
100
AcDbLine
 10
-376.9859176737035
 20
-76.58118785530498
 30
0.0
 11
-377.4000281458735
 21
-76.52666917741325
 31
0.0
  0
LINE
  5
177
330
1F
100
AcDbEntity
  8
0
100
AcDbLine
 10
-377.4000281458735
 20
-76.52666917741325
 30
0.0
 11
-377.8141386180315
 21
-76.58118785539652
 31
0.0
  0
LINE
  5
178
330
1F
100
AcDbEntity
  8
0
100
AcDbLine
 10
-377.8141386180315
 20
-76.58118785539652
 30
0.0
 11
-378.2000281458498
 21
-76.7410285314466
 31
0.0
  0
LINE
  5
179
330
1F
100
AcDbEntity
  8
0
100
AcDbLine
 10
-378.2000281458498
 20
-76.7410285314466
 30
0.0
 11
-378.5313989957202
 21
-76.99529832763976
 31
0.0
  0
LINE
  5
17A
330
1F
100
AcDbEntity
  8
0
100
AcDbLine
 10
-378.5313989957202
 20
-76.99529832763976
 30
0.0
 11
-378.7856687918402
 21
-77.32666917756639
 31
0.0
  0
LINE
  5
17B
330
1F
100
AcDbEntity
  8
0
100
AcDbLine
 10
-378.7856687918402
 20
-77.32666917756639
 30
0.0
 11
-378.945509467805
 21
-77.71255870541992
 31
0.0
  0
LINE
  5
17C
330
1F
100
AcDbEntity
  8
0
100
AcDbLine
 10
-378.945509467805
 20
-77.71255870541992
 30
0.0
 11
-379.0000281456967
 21
-78.12666917758997
 31
0.0
  0
LINE
  5
17D
330
1F
100
AcDbEntity
  8
0
100
AcDbLine
 10
-379.0000281456967
 20
-78.12666917758997
 30
0.0
 11
-378.9455094677136
 21
-78.54077964974803
 31
0.0
  0
LINE
  5
17E
330
1F
100
AcDbEntity
  8
0
100
AcDbLine
 10
-378.9455094677136
 20
-78.54077964974803
 30
0.0
 11
-378.7856687916635
 21
-78.92666917756638
 31
0.0
  0
LINE
  5
17F
330
1F
100
AcDbEntity
  8
0
100
AcDbLine
 10
-378.7856687916635
 20
-78.92666917756638
 30
0.0
 11
-378.5313989954703
 21
-79.25804002743669
 31
0.0
  0
LINE
  5
180
330
1F
100
AcDbEntity
  8
0
100
AcDbLine
 10
-378.5313989954703
 20
-79.25804002743669
 30
0.0
 11
-378.2000281455437
 21
-79.51230982355676
 31
0.0
  0
LINE
  5
181
330
1F
100
AcDbEntity
  8
0
100
AcDbLine
 10
-378.2000281455437
 20
-79.51230982355676
 30
0.0
 11
-377.81413861769
 21
-79.67215049952148
 31
0.0
  0
LINE
  5
182
330
1F
100
AcDbEntity
  8
0
100
AcDbLine
 10
-377.81413861769
 20
-79.67215049952148
 30
0.0
 11
-377.40002814552
 21
-79.72666917741324
 31
0.0
  0
LINE
  5
183
330
1F
100
AcDbEntity
  8
0
100
AcDbLine
 10
-377.40002814552
 20
-79.72666917741324
 30
0.0
 11
-376.985917673362
 21
-79.67215049943002
 31
0.0
  0
LINE
  5
184
330
1F
100
AcDbEntity
  8
0
100
AcDbLine
 10
-376.985917673362
 20
-79.67215049943002
 30
0.0
 11
-376.6000281455437
 21
-79.51230982337994
 31
0.0
  0
LINE
  5
185
330
1F
100
AcDbEntity
  8
0
100
AcDbLine
 10
-376.6000281455437
 20
-79.51230982337994
 30
0.0
 11
-376.2686572956733
 21
-79.25804002718687
 31
0.0
  0
LINE
  5
186
330
1F
100
AcDbEntity
  8
0
100
AcDbLine
 10
-376.2686572956733
 20
-79.25804002718687
 30
0.0
 11
-376.0143874995533
 21
-78.92666917726015
 31
0.0
  0
LINE
  5
187
330
1F
100
AcDbEntity
  8
0
100
AcDbLine
 10
-376.0143874995533
 20
-78.92666917726015
 30
0.0
 11
-375.8545468235885
 21
-78.54077964940662
 31
0.0
  0
LINE
  5
188
330
1F
100
AcDbEntity
  8
0
100
AcDbLine
 10
-375.8545468235885
 20
-78.54077964940662
 30
0.0
 11
-375.8000281456967
 21
-78.12666917723647
 31
0.0
  0
LINE
  5
189
330
1F
100
AcDbEntity
  8
0
100
AcDbLine
 10
-375.8000281476326
 20
-60.62666917723982
 30
0.0
 11
-375.854546825615
 21
-60.21255870508168
 31
0.0
  0
LINE
  5
18A
330
1F
100
AcDbEntity
  8
0
100
AcDbLine
 10
-375.854546825615
 20
-60.21255870508168
 30
0.0
 11
-376.0143875016643
 21
-59.82666917726306
 31
0.0
  0
LINE
  5
18B
330
1F
100
AcDbEntity
  8
0
100
AcDbLine
 10
-376.0143875016643
 20
-59.82666917726306
 30
0.0
 11
-376.2686572978569
 21
-59.4952983273922
 31
0.0
  0
LINE
  5
18C
330
1F
100
AcDbEntity
  8
0
100
AcDbLine
 10
-376.2686572978569
 20
-59.4952983273922
 30
0.0
 11
-376.6000281477829
 21
-59.2410285312715
 31
0.0
  0
LINE
  5
18D
330
1F
100
AcDbEntity
  8
0
100
AcDbLine
 10
-376.6000281477829
 20
-59.2410285312715
 30
0.0
 11
-376.9859176756361
 21
-59.08118785530588
 31
0.0
  0
LINE
  5
18E
330
1F
100
AcDbEntity
  8
0
100
AcDbLine
 10
-376.9859176756361
 20
-59.08118785530588
 30
0.0
 11
-377.4000281478061
 21
-59.02666917741326
 31
0.0
  0
LINE
  5
18F
330
1F
100
AcDbEntity
  8
0
100
AcDbLine
 10
-377.4000281478061
 20
-59.02666917741326
 30
0.0
 11
-377.8141386199642
 21
-59.08118785539563
 31
0.0
  0
LINE
  5
190
330
1F
100
AcDbEntity
  8
0
100
AcDbLine
 10
-377.8141386199642
 20
-59.08118785539563
 30
0.0
 11
-378.2000281477829
 21
-59.24102853144498
 31
0.0
  0
LINE
  5
191
330
1F
100
AcDbEntity
  8
0
100
AcDbLine
 10
-378.2000281477829
 20
-59.24102853144498
 30
0.0
 11
-378.5313989976538
 21
-59.49529832763742
 31
0.0
  0
LINE
  5
192
330
1F
100
AcDbEntity
  8
0
100
AcDbLine
 10
-378.5313989976538
 20
-59.49529832763742
 30
0.0
 11
-378.7856687937745
 21
-59.82666917756351
 31
0.0
  0
LINE
  5
193
330
1F
100
AcDbEntity
  8
0
100
AcDbLine
 10
-378.7856687937745
 20
-59.82666917756351
 30
0.0
 11
-378.94550946974
 21
-60.21255870541669
 31
0.0
  0
LINE
  5
194
330
1F
100
AcDbEntity
  8
0
100
AcDbLine
 10
-378.94550946974
 20
-60.21255870541669
 30
0.0
 11
-379.0000281476327
 21
-60.62666917758665
 31
0.0
  0
LINE
  5
195
330
1F
100
AcDbEntity
  8
0
100
AcDbLine
 10
-379.0000281476327
 20
-60.62666917758665
 30
0.0
 11
-378.9455094696503
 21
-61.0407796497448
 31
0.0
  0
LINE
  5
196
330
1F
100
AcDbEntity
  8
0
100
AcDbLine
 10
-378.9455094696503
 20
-61.0407796497448
 30
0.0
 11
-378.7856687936011
 21
-61.4266691775635
 31
0.0
  0
LINE
  5
197
330
1F
100
AcDbEntity
  8
0
100
AcDbLine
 10
-378.7856687936011
 20
-61.4266691775635
 30
0.0
 11
-378.5313989974085
 21
-61.75804002743436
 31
0.0
  0
LINE
  5
198
330
1F
100
AcDbEntity
  8
0
100
AcDbLine
 10
-378.5313989974085
 20
-61.75804002743436
 30
0.0
 11
-378.2000281474825
 21
-62.01230982355515
 31
0.0
  0
LINE
  5
199
330
1F
100
AcDbEntity
  8
0
100
AcDbLine
 10
-378.2000281474825
 20
-62.01230982355515
 30
0.0
 11
-377.8141386196293
 21
-62.17215049952068
 31
0.0
  0
LINE
  5
19A
330
1F
100
AcDbEntity
  8
0
100
AcDbLine
 10
-377.8141386196293
 20
-62.17215049952068
 30
0.0
 11
-377.4000281474593
 21
-62.22666917741326
 31
0.0
  0
LINE
  5
19B
330
1F
100
AcDbEntity
  8
0
100
AcDbLine
 10
-377.4000281474593
 20
-62.22666917741326
 30
0.0
 11
-376.9859176753012
 21
-62.17215049943093
 31
0.0
  0
LINE
  5
19C
330
1F
100
AcDbEntity
  8
0
100
AcDbLine
 10
-376.9859176753012
 20
-62.17215049943093
 30
0.0
 11
-376.6000281474825
 21
-62.01230982338167
 31
0.0
  0
LINE
  5
19D
330
1F
100
AcDbEntity
  8
0
100
AcDbLine
 10
-376.6000281474825
 20
-62.01230982338167
 30
0.0
 11
-376.2686572976116
 21
-61.75804002718914
 31
0.0
  0
LINE
  5
19E
330
1F
100
AcDbEntity
  8
0
100
AcDbLine
 10
-376.2686572976116
 20
-61.75804002718914
 30
0.0
 11
-376.0143875014909
 21
-61.42666917726305
 31
0.0
  0
LINE
  5
19F
330
1F
100
AcDbEntity
  8
0
100
AcDbLine
 10
-376.0143875014909
 20
-61.42666917726305
 30
0.0
 11
-375.8545468255253
 21
-61.04077964940979
 31
0.0
  0
LINE
  5
1A0
330
1F
100
AcDbEntity
  8
0
100
AcDbLine
 10
-375.8545468255253
 20
-61.04077964940979
 30
0.0
 11
-375.8000281476326
 21
-60.62666917723982
 31
0.0
  0
LINE
  5
1A1
330
1F
100
AcDbEntity
  8
0
100
AcDbLine
 10
-375.7999994021878
 20
61.36477901654204
 30
0.0
 11
-375.8545180801702
 21
61.77888948870019
 31
0.0
  0
LINE
  5
1A2
330
1F
100
AcDbEntity
  8
0
100
AcDbLine
 10
-375.8545180801702
 20
61.77888948870019
 30
0.0
 11
-376.0143587562194
 21
62.16477901651886
 31
0.0
  0
LINE
  5
1A3
330
1F
100
AcDbEntity
  8
0
100
AcDbLine
 10
-376.0143587562194
 20
62.16477901651886
 30
0.0
 11
-376.2686285524119
 21
62.49614986638971
 31
0.0
  0
LINE
  5
1A4
330
1F
100
AcDbEntity
  8
0
100
AcDbLine
 10
-376.2686285524119
 20
62.49614986638971
 30
0.0
 11
-376.5999994023379
 21
62.75041966251046
 31
0.0
  0
LINE
  5
1A5
330
1F
100
AcDbEntity
  8
0
100
AcDbLine
 10
-376.5999994023379
 20
62.75041966251046
 30
0.0
 11
-376.9858889301912
 21
62.91026033847604
 31
0.0
  0
LINE
  5
1A6
330
1F
100
AcDbEntity
  8
0
100
AcDbLine
 10
-376.9858889301912
 20
62.91026033847604
 30
0.0
 11
-377.3999994023612
 21
62.96477901636862
 31
0.0
  0
LINE
  5
1A7
330
1F
100
AcDbEntity
  8
0
100
AcDbLine
 10
-377.3999994023612
 20
62.96477901636862
 30
0.0
 11
-377.8141098745193
 21
62.91026033838626
 31
0.0
  0
LINE
  5
1A8
330
1F
100
AcDbEntity
  8
0
100
AcDbLine
 10
-377.8141098745193
 20
62.91026033838626
 30
0.0
 11
-378.1999994023379
 21
62.75041966233705
 31
0.0
  0
LINE
  5
1A9
330
1F
100
AcDbEntity
  8
0
100
AcDbLine
 10
-378.1999994023379
 20
62.75041966233705
 30
0.0
 11
-378.5313702522089
 21
62.49614986614443
 31
0.0
  0
LINE
  5
1AA
330
1F
100
AcDbEntity
  8
0
100
AcDbLine
 10
-378.5313702522089
 20
62.49614986614443
 30
0.0
 11
-378.7856400483296
 21
62.16477901621848
 31
0.0
  0
LINE
  5
1AB
330
1F
100
AcDbEntity
  8
0
100
AcDbLine
 10
-378.7856400483296
 20
62.16477901621848
 30
0.0
 11
-378.9454807242951
 21
61.7788894883651
 31
0.0
  0
LINE
  5
1AC
330
1F
100
AcDbEntity
  8
0
100
AcDbLine
 10
-378.9999994021878
 20
61.36477901619518
 30
0.0
 11
-378.9454807242054
 21
60.95066854403711
 31
0.0
  0
LINE
  5
1AD
330
1F
100
AcDbEntity
  8
0
100
AcDbLine
 10
-378.9454807242054
 20
60.95066854403711
 30
0.0
 11
-378.7856400481562
 21
60.56477901621849
 31
0.0
  0
LINE
  5
1AE
330
1F
100
AcDbEntity
  8
0
100
AcDbLine
 10
-378.7856400481562
 20
60.56477901621849
 30
0.0
 11
-378.5313702519636
 21
60.23340816634749
 31
0.0
  0
LINE
  5
1AF
330
1F
100
AcDbEntity
  8
0
100
AcDbLine
 10
-378.5313702519636
 20
60.23340816634749
 30
0.0
 11
-378.1999994020376
 21
59.97913837022688
 31
0.0
  0
LINE
  5
1B0
330
1F
100
AcDbEntity
  8
0
100
AcDbLine
 10
-378.1999994020376
 20
59.97913837022688
 30
0.0
 11
-377.8141098741843
 21
59.81929769426121
 31
0.0
  0
LINE
  5
1B1
330
1F
100
AcDbEntity
  8
0
100
AcDbLine
 10
-377.8141098741843
 20
59.81929769426121
 30
0.0
 11
-377.3999994020143
 21
59.76477901636864
 31
0.0
  0
LINE
  5
1B2
330
1F
100
AcDbEntity
  8
0
100
AcDbLine
 10
-377.3999994020143
 20
59.76477901636864
 30
0.0
 11
-376.9858889298562
 21
59.81929769435099
 31
0.0
  0
LINE
  5
1B3
330
1F
100
AcDbEntity
  8
0
100
AcDbLine
 10
-376.9858889298562
 20
59.81929769435099
 30
0.0
 11
-376.5999994020376
 21
59.97913837040029
 31
0.0
  0
LINE
  5
1B4
330
1F
100
AcDbEntity
  8
0
100
AcDbLine
 10
-376.5999994020376
 20
59.97913837040029
 30
0.0
 11
-376.2686285521667
 21
60.23340816659277
 31
0.0
  0
LINE
  5
1B5
330
1F
100
AcDbEntity
  8
0
100
AcDbLine
 10
-376.2686285521667
 20
60.23340816659277
 30
0.0
 11
-376.014358756046
 21
60.56477901651886
 31
0.0
  0
LINE
  5
1B6
330
1F
100
AcDbEntity
  8
0
100
AcDbLine
 10
-376.014358756046
 20
60.56477901651886
 30
0.0
 11
-375.8545180800804
 21
60.95066854437208
 31
0.0
  0
LINE
  5
1B7
330
1F
100
AcDbEntity
  8
0
100
AcDbLine
 10
-375.8545180800804
 20
60.95066854437208
 30
0.0
 11
-375.7999994021878
 21
61.36477901654204
 31
0.0
  0
LINE
  5
1B8
330
1F
100
AcDbEntity
  8
0
100
AcDbLine
 10
-375.7999994041237
 20
78.86477901654203
 30
0.0
 11
-375.854518082106
 21
79.27888948870019
 31
0.0
  0
LINE
  5
1B9
330
1F
100
AcDbEntity
  8
0
100
AcDbLine
 10
-375.854518082106
 20
79.27888948870019
 30
0.0
 11
-376.0143587581553
 21
79.66477901651885
 31
0.0
  0
LINE
  5
1BA
330
1F
100
AcDbEntity
  8
0
100
AcDbLine
 10
-376.0143587581553
 20
79.66477901651885
 30
0.0
 11
-376.2686285543478
 21
79.9961498663897
 31
0.0
  0
LINE
  5
1BB
330
1F
100
AcDbEntity
  8
0
100
AcDbLine
 10
-376.2686285543478
 20
79.9961498663897
 30
0.0
 11
-376.5999994042738
 21
80.25041966251045
 31
0.0
  0
LINE
  5
1BC
330
1F
100
AcDbEntity
  8
0
100
AcDbLine
 10
-376.5999994042738
 20
80.25041966251045
 30
0.0
 11
-376.9858889321271
 21
80.41026033847602
 31
0.0
  0
LINE
  5
1BD
330
1F
100
AcDbEntity
  8
0
100
AcDbLine
 10
-376.9858889321271
 20
80.41026033847602
 30
0.0
 11
-377.3999994042971
 21
80.46477901636862
 31
0.0
  0
LINE
  5
1BE
330
1F
100
AcDbEntity
  8
0
100
AcDbLine
 10
-377.3999994042971
 20
80.46477901636862
 30
0.0
 11
-377.8141098764551
 21
80.41026033838625
 31
0.0
  0
LINE
  5
1BF
330
1F
100
AcDbEntity
  8
0
100
AcDbLine
 10
-377.8141098764551
 20
80.41026033838625
 30
0.0
 11
-378.1999994042739
 21
80.25041966233704
 31
0.0
  0
LINE
  5
1C0
330
1F
100
AcDbEntity
  8
0
100
AcDbLine
 10
-378.1999994042739
 20
80.25041966233704
 30
0.0
 11
-378.5313702541447
 21
79.99614986614442
 31
0.0
  0
LINE
  5
1C1
330
1F
100
AcDbEntity
  8
0
100
AcDbLine
 10
-378.5313702541447
 20
79.99614986614442
 30
0.0
 11
-378.7856400502654
 21
79.66477901621847
 31
0.0
  0
LINE
  5
1C2
330
1F
100
AcDbEntity
  8
0
100
AcDbLine
 10
-378.7856400502654
 20
79.66477901621847
 30
0.0
 11
-378.9454807262311
 21
79.27888948836512
 31
0.0
  0
LINE
  5
1C3
330
1F
100
AcDbEntity
  8
0
100
AcDbLine
 10
-378.9454807262311
 20
79.27888948836512
 30
0.0
 11
-378.9999994041237
 21
78.86477901619516
 31
0.0
  0
LINE
  5
1C4
330
1F
100
AcDbEntity
  8
0
100
AcDbLine
 10
-378.9999994041237
 20
78.86477901619516
 30
0.0
 11
-378.9454807261413
 21
78.45066854403701
 31
0.0
  0
LINE
  5
1C5
330
1F
100
AcDbEntity
  8
0
100
AcDbLine
 10
-378.9454807261413
 20
78.45066854403701
 30
0.0
 11
-378.7856400500921
 21
78.06477901621848
 31
0.0
  0
LINE
  5
1C6
330
1F
100
AcDbEntity
  8
0
100
AcDbLine
 10
-378.7856400500921
 20
78.06477901621848
 30
0.0
 11
-378.5313702538995
 21
77.73340816634749
 31
0.0
  0
LINE
  5
1C7
330
1F
100
AcDbEntity
  8
0
100
AcDbLine
 10
-378.5313702538995
 20
77.73340816634749
 30
0.0
 11
-378.1999994039735
 21
77.47913837022682
 31
0.0
  0
LINE
  5
1C8
330
1F
100
AcDbEntity
  8
0
100
AcDbLine
 10
-378.1999994039735
 20
77.47913837022682
 30
0.0
 11
-377.8141098761202
 21
77.31929769426125
 31
0.0
  0
LINE
  5
1C9
330
1F
100
AcDbEntity
  8
0
100
AcDbLine
 10
-377.8141098761202
 20
77.31929769426125
 30
0.0
 11
-377.3999994039502
 21
77.26477901636862
 31
0.0
  0
LINE
  5
1CA
330
1F
100
AcDbEntity
  8
0
100
AcDbLine
 10
-377.3999994039502
 20
77.26477901636862
 30
0.0
 11
-376.9858889317921
 21
77.31929769435102
 31
0.0
  0
LINE
  5
1CB
330
1F
100
AcDbEntity
  8
0
100
AcDbLine
 10
-376.9858889317921
 20
77.31929769435102
 30
0.0
 11
-376.5999994039735
 21
77.47913837040024
 31
0.0
  0
LINE
  5
1CC
330
1F
100
AcDbEntity
  8
0
100
AcDbLine
 10
-376.5999994039735
 20
77.47913837040024
 30
0.0
 11
-376.2686285541026
 21
77.73340816659277
 31
0.0
  0
LINE
  5
1CD
330
1F
100
AcDbEntity
  8
0
100
AcDbLine
 10
-376.2686285541026
 20
77.73340816659277
 30
0.0
 11
-376.0143587579819
 21
78.06477901651884
 31
0.0
  0
LINE
  5
1CE
330
1F
100
AcDbEntity
  8
0
100
AcDbLine
 10
-376.0143587579819
 20
78.06477901651884
 30
0.0
 11
-375.8545180820163
 21
78.45066854437212
 31
0.0
  0
LINE
  5
1CF
330
1F
100
AcDbEntity
  8
0
100
AcDbLine
 10
-375.8545180820163
 20
78.45066854437212
 30
0.0
 11
-375.7999994041237
 21
78.86477901654203
 31
0.0
  0
LINE
  5
1D0
330
1F
100
AcDbEntity
  8
0
100
AcDbLine
 10
-207.2000000484561
 20
0.4131950067858911
 30
0.0
 11
-207.4044450908859
 21
1.966109277379438
 31
0.0
  0
LINE
  5
1D1
330
1F
100
AcDbEntity
  8
0
100
AcDbLine
 10
-207.4044450908859
 20
1.966109277379438
 30
0.0
 11
-208.0038476260669
 21
3.413195006700881
 31
0.0
  0
LINE
  5
1D2
330
1F
100
AcDbEntity
  8
0
100
AcDbLine
 10
-208.0038476260669
 20
3.413195006700881
 30
0.0
 11
-208.9573593617856
 21
4.655835693719317
 31
0.0
  0
LINE
  5
1D3
330
1F
100
AcDbEntity
  8
0
100
AcDbLine
 10
-208.9573593617856
 20
4.655835693719317
 30
0.0
 11
-210.2000000490057
 21
5.609347429175145
 31
0.0
  0
LINE
  5
1D4
330
1F
100
AcDbEntity
  8
0
100
AcDbLine
 10
-210.2000000490057
 20
5.609347429175145
 30
0.0
 11
-211.6470857784541
 21
6.208749964049863
 31
0.0
  0
LINE
  5
1D5
330
1F
100
AcDbEntity
  8
0
100
AcDbLine
 10
-211.6470857784541
 20
6.208749964049863
 30
0.0
 11
-213.2000000490908
 21
6.413195006151184
 31
0.0
  0
LINE
  5
1D6
330
1F
100
AcDbEntity
  8
0
100
AcDbLine
 10
-213.2000000490908
 20
6.413195006151184
 30
0.0
 11
-214.7529143196843
 21
6.208749963721348
 31
0.0
  0
LINE
  5
1D7
330
1F
100
AcDbEntity
  8
0
100
AcDbLine
 10
-214.7529143196843
 20
6.208749963721348
 30
0.0
 11
-216.2000000490057
 21
5.609347428540358
 31
0.0
  0
LINE
  5
1D8
330
1F
100
AcDbEntity
  8
0
100
AcDbLine
 10
-216.2000000490057
 20
5.609347428540358
 30
0.0
 11
-217.4426407360243
 21
4.655835692821711
 31
0.0
  0
LINE
  5
1D9
330
1F
100
AcDbEntity
  8
0
100
AcDbLine
 10
-217.4426407360243
 20
4.655835692821711
 30
0.0
 11
-218.3961524714801
 21
3.4131950056015
 31
0.0
  0
LINE
  5
1DA
330
1F
100
AcDbEntity
  8
0
100
AcDbLine
 10
-218.3961524714801
 20
3.4131950056015
 30
0.0
 11
-218.9955550063547
 21
1.966109276153136
 31
0.0
  0
LINE
  5
1DB
330
1F
100
AcDbEntity
  8
0
100
AcDbLine
 10
-218.9955550063547
 20
1.966109276153136
 30
0.0
 11
-219.200000048456
 21
0.4131950055164099
 31
0.0
  0
LINE
  5
1DC
330
1F
100
AcDbEntity
  8
0
100
AcDbLine
 10
-219.200000048456
 20
0.4131950055164099
 30
0.0
 11
-218.9955550060262
 21
-1.139719265077092
 31
0.0
  0
LINE
  5
1DD
330
1F
100
AcDbEntity
  8
0
100
AcDbLine
 10
-218.9955550060262
 20
-1.139719265077092
 30
0.0
 11
-218.3961524708454
 21
-2.586804994398489
 31
0.0
  0
LINE
  5
1DE
330
1F
100
AcDbEntity
  8
0
100
AcDbLine
 10
-218.3961524708454
 20
-2.586804994398489
 30
0.0
 11
-217.4426407351266
 21
-3.829445681416881
 31
0.0
  0
LINE
  5
1DF
330
1F
100
AcDbEntity
  8
0
100
AcDbLine
 10
-217.4426407351266
 20
-3.829445681416881
 30
0.0
 11
-216.2000000479064
 21
-4.782957416872843
 31
0.0
  0
LINE
  5
1E0
330
1F
100
AcDbEntity
  8
0
100
AcDbLine
 10
-216.2000000479064
 20
-4.782957416872843
 30
0.0
 11
-214.7529143184582
 21
-5.382359951747471
 31
0.0
  0
LINE
  5
1E1
330
1F
100
AcDbEntity
  8
0
100
AcDbLine
 10
-214.7529143184582
 20
-5.382359951747471
 30
0.0
 11
-213.2000000478214
 21
-5.586804993848793
 31
0.0
  0
LINE
  5
1E2
330
1F
100
AcDbEntity
  8
0
100
AcDbLine
 10
-213.2000000478214
 20
-5.586804993848793
 30
0.0
 11
-211.6470857772279
 21
-5.382359951418912
 31
0.0
  0
LINE
  5
1E3
330
1F
100
AcDbEntity
  8
0
100
AcDbLine
 10
-211.6470857772279
 20
-5.382359951418912
 30
0.0
 11
-210.2000000479064
 21
-4.782957416238058
 31
0.0
  0
LINE
  5
1E4
330
1F
100
AcDbEntity
  8
0
100
AcDbLine
 10
-210.2000000479064
 20
-4.782957416238058
 30
0.0
 11
-208.957359360888
 21
-3.829445680519274
 31
0.0
  0
LINE
  5
1E5
330
1F
100
AcDbEntity
  8
0
100
AcDbLine
 10
-208.957359360888
 20
-3.829445680519274
 30
0.0
 11
-208.0038476254321
 21
-2.586804993299109
 31
0.0
  0
LINE
  5
1E6
330
1F
100
AcDbEntity
  8
0
100
AcDbLine
 10
-208.0038476254321
 20
-2.586804993299109
 30
0.0
 11
-207.4044450905574
 21
-1.139719263850835
 31
0.0
  0
LINE
  5
1E7
330
1F
100
AcDbEntity
  8
0
100
AcDbLine
 10
-207.4044450905574
 20
-1.139719263850835
 30
0.0
 11
-207.2000000484561
 21
0.4131950067858911
 31
0.0
  0
LINE
  5
1E8
330
1F
100
AcDbEntity
  8
0
100
AcDbLine
 10
-195.2000000521809
 20
-107.9454448658086
 30
0.0
 11
-219.4176628646902
 21
-132.1631069618836
 31
0.0
  0
LINE
  5
1E9
330
1F
100
AcDbEntity
  8
0
100
AcDbLine
 10
-219.4176628646902
 20
-132.1631069618836
 30
0.0
 11
-365.3823391377016
 21
-132.1631069776616
 31
0.0
  0
LINE
  5
1EA
330
1F
100
AcDbEntity
  8
0
100
AcDbLine
 10
-365.3823391377016
 20
-132.1631069776616
 30
0.0
 11
-389.6000001510988
 21
-107.9454452478303
 31
0.0
  0
LINE
  5
1EB
330
1F
100
AcDbEntity
  8
0
100
AcDbLine
 10
-389.6000001510988
 20
-107.9454452478303
 30
0.0
 11
-389.600000166456
 21
108.0192299941574
 31
0.0
  0
LINE
  5
1EC
330
1F
100
AcDbEntity
  8
0
100
AcDbLine
 10
-389.600000166456
 20
108.0192299941574
 30
0.0
 11
-365.3823372471508
 21
132.2368921970284
 31
0.0
  0
LINE
  5
1ED
330
1F
100
AcDbEntity
  8
0
100
AcDbLine
 10
-365.3823372471508
 20
132.2368921970284
 30
0.0
 11
-219.4176612826572
 21
132.2368922118517
 31
0.0
  0
LINE
  5
1EE
330
1F
100
AcDbEntity
  8
0
100
AcDbLine
 10
-195.2000000480695
 20
108.0192302608299
 30
0.0
 11
-195.2000000521809
 21
-107.9454448658086
 31
0.0
  0
LINE
  5
1EF
330
1F
100
AcDbEntity
  8
0
100
AcDbLine
 10
-219.4176612826572
 20
132.2368922118517
 30
0.0
 11
-195.2000000480695
 21
108.0192302608299
 31
0.0
  0
ENDSEC
  0
SECTION
  2
OBJECTS
  0
DICTIONARY
  5
C
330
0
100
AcDbDictionary
  3
ACAD_GROUP
350
D
  3
ACAD_LAYOUT
350
1A
  3
ACAD_MATERIAL
350
43
  3
ACAD_MLEADERSTYLE
350
6B
  3
ACAD_MLINESTYLE
350
17
  3
ACAD_PLOTSETTINGS
350
19
  3
ACAD_SCALELIST
350
47
  3
ACAD_VISUALSTYLE
350
2A
  3
ACDBHEADERROUNDTRIPXREC
350
1F0
  3
ACDBVARIABLEDICTIONARY
350
211
  0
DICTIONARY
  5
218
330
8
100
AcDbDictionary
280
     1
  3
ACAD_XREC_ROUNDTRIP
360
219
  0
DICTIONARY
  5
D
102
{ACAD_REACTORS
330
C
102
}
330
C
100
AcDbDictionary
  0
DICTIONARY
  5
1A
102
{ACAD_REACTORS
330
C
102
}
330
C
100
AcDbDictionary
  0
DICTIONARY
  5
43
102
{ACAD_REACTORS
330
C
102
}
330
C
100
AcDbDictionary
  3
BYBLOCK
350
45
  3
BYLAYER
350
44
  3
GLOBAL
350
46
  0
DICTIONARY
  5
6B
102
{ACAD_REACTORS
330
C
102
}
330
C
100
AcDbDictionary
  3
STANDARD
350
6C
  0
DICTIONARY
  5
17
102
{ACAD_REACTORS
330
C
102
}
330
C
100
AcDbDictionary
  3
STANDARD
350
18
  0
DICTIONARY
  5
19
102
{ACAD_REACTORS
330
C
102
}
330
C
100
AcDbDictionary
  0
DICTIONARY
  5
47
102
{ACAD_REACTORS
330
C
102
}
330
C
100
AcDbDictionary
  3
A0
350
48
  3
A1
350
49
  3
A2
350
4A
  3
A3
350
4B
  3
A4
350
4C
  3
A5
350
4D
  3
A6
350
4E
  3
A7
350
4F
  3
A8
350
50
  3
A9
350
51
  3
B0
350
52
  3
B1
350
53
  3
B2
350
54
  3
B3
350
55
  3
B4
350
56
  3
B5
350
57
  3
B6
350
58
  3
B7
350
59
  3
B8
350
5A
  3
B9
350
5B
  3
C0
350
5C
  3
C1
350
5D
  3
C2
350
5E
  3
C3
350
5F
  3
C4
350
60
  3
C5
350
61
  3
C6
350
62
  3
C7
350
63
  3
C8
350
64
  3
C9
350
65
  3
D0
350
66
  3
D1
350
67
  3
D2
350
68
  0
DICTIONARY
  5
2A
102
{ACAD_REACTORS
330
C
102
}
330
C
100
AcDbDictionary
  3
2DWIREFRAME
350
2F
  3
BASIC
350
32
  3
BRIGHTEN
350
36
  3
COLORCHANGE
350
3A
  3
CONCEPTUAL
350
34
  3
DIM
350
35
  3
EDGECOLOROFF
350
3D
  3
FACEPATTERN
350
39
  3
FLAT
350
2B
  3
FLATWITHEDGES
350
2C
  3
GOURAUD
350
2D
  3
GOURAUDWITHEDGES
350
2E
  3
HIDDEN
350
31
  3
JITTEROFF
350
3B
  3
LINEPATTERN
350
38
  3
OVERHANGOFF
350
3C
  3
REALISTIC
350
33
  3
SHADED
350
42
  3
SHADED_WITH_EDGES
350
41
  3
SHADES_OF_GRAY
350
3E
  3
SKETCHY
350
3F
  3
THICKEN
350
37
  3
WIREFRAME
350
30
  3
X-RAY
350
40
  0
DICTIONARY
  5
1F0
102
{ACAD_REACTORS
330
C
102
}
330
C
100
AcDbDictionary
  3
CEPSNID
350
1FA
  3
CEPSNTYPE
350
1F9
  3
DIMSTYLEDATA
350
210
  3
FINGERPRINTGUID
350
1FB
  3
HYPERLINKBASE
350
1F3
  3
INSUNITS
350
1F8
  3
LAYOUTDICT
350
1F5
  3
LWETCUNION
350
1F7
  3
PLOTSETDICT
350
1F6
  3
PSVPSCALE
350
1FD
  3
PUCSBASE
350
200
  3
PUCSORGBACK
350
206
  3
PUCSORGBOTTOM
350
202
  3
PUCSORGFRONT
350
205
  3
PUCSORGLEFT
350
203
  3
PUCSORGRIGHT
350
204
  3
PUCSORGTOP
350
201
  3
PUCSORTHOREF
350
1FE
  3
PUCSORTHOVIEW
350
1FF
  3
STYLESHEET
350
1F4
  3
TSTACKALIGN
350
1F1
  3
TSTACKSIZE
350
1F2
  3
UCSBASE
350
209
  3
UCSORGBACK
350
20F
  3
UCSORGBOTTOM
350
20B
  3
UCSORGFRONT
350
20E
  3
UCSORGLEFT
350
20C
  3
UCSORGRIGHT
350
20D
  3
UCSORGTOP
350
20A
  3
UCSORTHOREF
350
207
  3
UCSORTHOVIEW
350
208
  3
VERSIONGUID
350
1FC
  0
DICTIONARY
  5
211
102
{ACAD_REACTORS
330
C
102
}
330
C
100
AcDbDictionary
  3
CANNOSCALE
350
21A
  3
CMLEADERSTYLE
350
213
  3
CTABLESTYLE
350
212
  3
DIMASSOC
350
216
  3
HIDETEXT
350
217
  3
MSLTSCALE
350
21B
  0
XRECORD
  5
219
102
{ACAD_REACTORS
330
218
102
}
330
218
100
AcDbXrecord
102
VTR_0.000_0.000_1.000_1.000_VISUALSTYLE
340
2F
102
VTR_0.000_0.000_1.000_1.000_GRIDDISPLAY
 70
     3
102
VTR_0.000_0.000_1.000_1.000_GRIDMAJOR
 70
     5
102
VTR_0.000_0.000_1.000_1.000_DEFAULTLIGHTING
280
     1
102
VTR_0.000_0.000_1.000_1.000_DEFAULTLIGHTINGTYPE
 70
     1
102
VTR_0.000_0.000_1.000_1.000_BRIGHTNESS
141
0.0
102
VTR_0.000_0.000_1.000_1.000_CONTRAST
142
0.0
  0
MATERIAL
  5
45
102
{ACAD_REACTORS
330
43
102
}
102
{ACAD_XDICTIONARY
360
21E
102
}
330
43
100
AcDbMaterial
  1
BYBLOCK
  0
MATERIAL
  5
44
102
{ACAD_REACTORS
330
43
102
}
102
{ACAD_XDICTIONARY
360
21C
102
}
330
43
100
AcDbMaterial
  1
BYLAYER
  0
MATERIAL
  5
46
102
{ACAD_REACTORS
330
43
102
}
102
{ACAD_XDICTIONARY
360
220
102
}
330
43
100
AcDbMaterial
  1
GLOBAL
  0
ACAD_PROXY_OBJECT
  5
6C
102
{ACAD_REACTORS
330
6B
102
}
330
6B
100
AcDbProxyObject
 90
      499
 91
      505
 93
      610
310
40901902A4063FBFFFFFE056BD1B81E855B9FC0AD7A3703D0AD73F4214DD185B99185C9900AD7A3703D0AC73F90141901A02B5E8DC0F42B1CFC02B5E8DC0F42B1CFE5764000000000000300FC0
340
14
340
0
340
11
340
0
 94
        0
1001
ACAD_MLEADERVER
1070
     2
  0
MLINESTYLE
  5
18
102
{ACAD_REACTORS
330
17
102
}
330
17
100
AcDbMlineStyle
  2
Standard
 70
     0
  3

 62
   256
 51
90.0
 52
90.0
 71
     2
 49
0.5
 62
   256
  6
BYLAYER
 49
-0.5
 62
   256
  6
BYLAYER
  0
ACAD_PROXY_OBJECT
  5
48
102
{ACAD_REACTORS
330
47
102
}
330
47
100
AcDbProxyObject
 90
      499
 91
      503
 93
       41
310
903313A31580
  0
ACAD_PROXY_OBJECT
  5
49
102
{ACAD_REACTORS
330
47
102
}
330
47
100
AcDbProxyObject
 90
      499
 91
      503
 93
      105
310
903313A324000000000000004000
  0
ACAD_PROXY_OBJECT
  5
4A
102
{ACAD_REACTORS
330
47
102
}
330
47
100
AcDbProxyObject
 90
      499
 91
      503
 93
      105
310
903313A344000000000000104000
  0
ACAD_PROXY_OBJECT
  5
4B
102
{ACAD_REACTORS
330
47
102
}
330
47
100
AcDbProxyObject
 90
      499
 91
      503
 93
      105
310
903313A354000000000000144000
  0
ACAD_PROXY_OBJECT
  5
4C
102
{ACAD_REACTORS
330
47
102
}
330
47
100
AcDbProxyObject
 90
      499
 91
      503
 93
      105
310
903313A384000000000000204000
  0
ACAD_PROXY_OBJECT
  5
4D
102
{ACAD_REACTORS
330
47
102
}
330
47
100
AcDbProxyObject
 90
      499
 91
      503
 93
      113
310
904313A31304000000000000244000
  0
ACAD_PROXY_OBJECT
  5
4E
102
{ACAD_REACTORS
330
47
102
}
330
47
100
AcDbProxyObject
 90
      499
 91
      503
 93
      113
310
904313A31364000000000000304000
  0
ACAD_PROXY_OBJECT
  5
4F
102
{ACAD_REACTORS
330
47
102
}
330
47
100
AcDbProxyObject
 90
      499
 91
      503
 93
      113
310
904313A32304000000000000344000
  0
ACAD_PROXY_OBJECT
  5
50
102
{ACAD_REACTORS
330
47
102
}
330
47
100
AcDbProxyObject
 90
      499
 91
      503
 93
      113
310
904313A333040000000000003E4000
  0
ACAD_PROXY_OBJECT
  5
51
102
{ACAD_REACTORS
330
47
102
}
330
47
100
AcDbProxyObject
 90
      499
 91
      503
 93
      113
310
904313A34304000000000000444000
  0
ACAD_PROXY_OBJECT
  5
52
102
{ACAD_REACTORS
330
47
102
}
330
47
100
AcDbProxyObject
 90
      499
 91
      503
 93
      113
310
904313A35304000000000000494000
  0
ACAD_PROXY_OBJECT
  5
53
102
{ACAD_REACTORS
330
47
102
}
330
47
100
AcDbProxyObject
 90
      499
 91
      503
 93
      121
310
905313A3130304000000000000594000
  0
ACAD_PROXY_OBJECT
  5
54
102
{ACAD_REACTORS
330
47
102
}
330
47
100
AcDbProxyObject
 90
      499
 91
      503
 93
      105
310
903323A310000000000000010100
  0
ACAD_PROXY_OBJECT
  5
55
102
{ACAD_REACTORS
330
47
102
}
330
47
100
AcDbProxyObject
 90
      499
 91
      503
 93
      105
310
903343A310000000000000410100
  0
ACAD_PROXY_OBJECT
  5
56
102
{ACAD_REACTORS
330
47
102
}
330
47
100
AcDbProxyObject
 90
      499
 91
      503
 93
      105
310
903383A310000000000000810100
  0
ACAD_PROXY_OBJECT
  5
57
102
{ACAD_REACTORS
330
47
102
}
330
47
100
AcDbProxyObject
 90
      499
 91
      503
 93
      113
310
90431303A310000000000000910100
  0
ACAD_PROXY_OBJECT
  5
58
102
{ACAD_REACTORS
330
47
102
}
330
47
100
AcDbProxyObject
 90
      499
 91
      503
 93
      121
310
9053130303A310000000000001650100
  0
ACAD_PROXY_OBJECT
  5
59
102
{ACAD_REACTORS
330
47
102
}
330
47
100
AcDbProxyObject
 90
      499
 91
      503
 93
      257
310
90E312F31323822203D2031272D3022000000000000200FC000000000000284000
  0
ACAD_PROXY_OBJECT
  5
5A
102
{ACAD_REACTORS
330
47
102
}
330
47
100
AcDbProxyObject
 90
      499
 91
      503
 93
      249
310
90D312F363422203D2031272D3022000000000000240FC000000000000284000
  0
ACAD_PROXY_OBJECT
  5
5B
102
{ACAD_REACTORS
330
47
102
}
330
47
100
AcDbProxyObject
 90
      499
 91
      503
 93
      249
310
90D312F333222203D2031272D3022000000000000280FC000000000000284000
  0
ACAD_PROXY_OBJECT
  5
5C
102
{ACAD_REACTORS
330
47
102
}
330
47
100
AcDbProxyObject
 90
      499
 91
      503
 93
      249
310
90D312F313622203D2031272D30220000000000002C0FC000000000000284000
  0
ACAD_PROXY_OBJECT
  5
5D
102
{ACAD_REACTORS
330
47
102
}
330
47
100
AcDbProxyObject
 90
      499
 91
      503
 93
      249
310
90D332F333222203D2031272D30220000000000002E0FC000000000000284000
  0
ACAD_PROXY_OBJECT
  5
5E
102
{ACAD_REACTORS
330
47
102
}
330
47
100
AcDbProxyObject
 90
      499
 91
      503
 93
      241
310
90C312F3822203D2031272D3022000000000000300FC000000000000284000
  0
ACAD_PROXY_OBJECT
  5
5F
102
{ACAD_REACTORS
330
47
102
}
330
47
100
AcDbProxyObject
 90
      499
 91
      503
 93
      249
310
90D332F313622203D2031272D3022000000000000320FC000000000000284000
  0
ACAD_PROXY_OBJECT
  5
60
102
{ACAD_REACTORS
330
47
102
}
330
47
100
AcDbProxyObject
 90
      499
 91
      503
 93
      241
310
90C312F3422203D2031272D3022000000000000340FC000000000000284000
  0
ACAD_PROXY_OBJECT
  5
61
102
{ACAD_REACTORS
330
47
102
}
330
47
100
AcDbProxyObject
 90
      499
 91
      503
 93
      241
310
90C332F3822203D2031272D3022000000000000360FC000000000000284000
  0
ACAD_PROXY_OBJECT
  5
62
102
{ACAD_REACTORS
330
47
102
}
330
47
100
AcDbProxyObject
 90
      499
 91
      503
 93
      241
310
90C312F3222203D2031272D3022000000000000380FC000000000000284000
  0
ACAD_PROXY_OBJECT
  5
63
102
{ACAD_REACTORS
330
47
102
}
330
47
100
AcDbProxyObject
 90
      499
 91
      503
 93
      241
310
90C332F3422203D2031272D30220000000000003A0FC000000000000284000
  0
ACAD_PROXY_OBJECT
  5
64
102
{ACAD_REACTORS
330
47
102
}
330
47
100
AcDbProxyObject
 90
      499
 91
      503
 93
      161
310
90A3122203D2031272D30224000000000000284000
  0
ACAD_PROXY_OBJECT
  5
65
102
{ACAD_REACTORS
330
47
102
}
330
47
100
AcDbProxyObject
 90
      499
 91
      503
 93
      257
310
90E312D312F3222203D2031272D30220000000000003E0FC000000000000284000
  0
ACAD_PROXY_OBJECT
  5
66
102
{ACAD_REACTORS
330
47
102
}
330
47
100
AcDbProxyObject
 90
      499
 91
      503
 93
      225
310
90A3322203D2031272D302200000000000002100000000000000284000
  0
ACAD_PROXY_OBJECT
  5
67
102
{ACAD_REACTORS
330
47
102
}
330
47
100
AcDbProxyObject
 90
      499
 91
      503
 93
      225
310
90A3622203D2031272D302200000000000006100000000000000284000
  0
ACAD_PROXY_OBJECT
  5
68
102
{ACAD_REACTORS
330
47
102
}
330
47
100
AcDbProxyObject
 90
      499
 91
      503
 93
      249
310
90D31272D3022203D2031272D30220000000000000A100000000000000284000
  0
ACAD_PROXY_OBJECT
  5
2F
102
{ACAD_REACTORS
330
2A
102
}
330
2A
100
AcDbProxyObject
 90
      499
 91
      501
 93
      436
310
42CC9915DA5C99599C985B595049028333333333333E33F0000000000000F90107901411070040501600405405064090741402480A0340
1001
ACAD
1000
AcDbSavedByObjectVersion
1070
     0
  0
ACAD_PROXY_OBJECT
  5
32
102
{ACAD_REACTORS
330
2A
102
}
330
2A
100
AcDbProxyObject
 90
      499
 91
      501
 93
      388
310
4150985CDA58D07406404333333333333E33F0000000000000F90107A41107004050150841D405064090741402480A0350
1001
ACAD
1000
AcDbSavedByObjectVersion
1070
     0
  0
ACAD_PROXY_OBJECT
  5
36
102
{ACAD_REACTORS
330
2A
102
}
330
2A
100
AcDbProxyObject
 90
      499
 91
      501
 93
      428
310
42109C9A59DA1D195B90C409028333333333333E33F0000000000000F9010790141107004050150841D405064090741402480A029950
1001
ACAD
1000
AcDbSavedByObjectVersion
1070
     0
  0
ACAD_PROXY_OBJECT
  5
3A
102
{ACAD_REACTORS
330
2A
102
}
330
2A
100
AcDbProxyObject
 90
      499
 91
      501
 93
      452
310
42D0DBDB1BDC90DA185B99D95104090240C333333333333E33F0000000000000F90108901411070040501508421405064090741402480A0350
1001
ACAD
1000
AcDbSavedByObjectVersion
1070
     0
  0
ACAD_PROXY_OBJECT
  5
34
102
{ACAD_REACTORS
330
2A
102
}
330
2A
100
AcDbProxyObject
 90
      499
 91
      501
 93
      500
310
4290DBDB98D95C1D1D585B10940D028333333333333E33F0000000000000F90107902409070040501000000000018199010841D405064090740C02480A0340
1001
ACAD
1000
AcDbSavedByObjectVersion
1070
     0
  0
ACAD_PROXY_OBJECT
  5
35
102
{ACAD_REACTORS
330
2A
102
}
330
2A
100
AcDbProxyObject
 90
      499
 91
      501
 93
      412
310
40D11A5B50B409028333333333333E33F0000000000000F9010790141107004050150841D405064090741402480A02677FFFFFD0
1001
ACAD
1000
AcDbSavedByObjectVersion
1070
     0
  0
ACAD_PROXY_OBJECT
  5
3D
102
{ACAD_REACTORS
330
2A
102
}
330
2A
100
AcDbProxyObject
 90
      499
 91
      501
 93
      452
310
43115919D950DBDB1BDC93D999916409028333333333333E33F0000000000000F9010790141107004050150841D405064090741402480A0350
1001
ACAD
1000
AcDbSavedByObjectVersion
1070
     0
  0
ACAD_PROXY_OBJECT
  5
39
102
{ACAD_REACTORS
330
2A
102
}
330
2A
100
AcDbProxyObject
 90
      499
 91
      501
 93
      444
310
42D19858D95C185D1D195C9B90F409028333333333333E33F0000000000000F9010790141107004050150841D405064090741402480A0350
1001
ACAD
1000
AcDbSavedByObjectVersion
1070
     0
  0
ACAD_PROXY_OBJECT
  5
2B
102
{ACAD_REACTORS
330
2A
102
}
330
2A
100
AcDbProxyObject
 90
      499
 91
      501
 93
      380
310
41119B185D240901404333333333333E33F0000000000000F9010740A907004050150841D405064090741402480A1B50
1001
ACAD
1000
AcDbSavedByObjectVersion
1070
     0
  0
ACAD_PROXY_OBJECT
  5
2C
102
{ACAD_REACTORS
330
2A
102
}
330
2A
100
AcDbProxyObject
 90
      499
 91
      501
 93
      468
310
43519B185D15DA5D1A115919D95CD0140901404333333333333E33F0000000000000F90107409019070040501600405405064090741402480A1B50
1001
ACAD
1000
AcDbSavedByObjectVersion
1070
     0
  0
ACAD_PROXY_OBJECT
  5
2D
102
{ACAD_REACTORS
330
2A
102
}
330
2A
100
AcDbProxyObject
 90
      499
 91
      501
 93
      404
310
41D1DBDD5C985D5910240902404333333333333E33F0000000000000F9010740A9070040501641D405064090741402480A1B50
1001
ACAD
1000
AcDbSavedByObjectVersion
1070
     0
  0
ACAD_PROXY_OBJECT
  5
2E
102
{ACAD_REACTORS
330
2A
102
}
330
2A
100
AcDbProxyObject
 90
      499
 91
      501
 93
      492
310
4411DBDD5C985D5915DA5D1A115919D95CD0340902404333333333333E33F0000000000000F90107409019070040501600405405064090741402480A1B50
1001
ACAD
1000
AcDbSavedByObjectVersion
1070
     0
  0
ACAD_PROXY_OBJECT
  5
31
102
{ACAD_REACTORS
330
2A
102
}
330
2A
100
AcDbProxyObject
 90
      499
 91
      501
 93
      476
310
41921A5919195B90640502408333333333333E33F0000000000000F901079024090700405020000000000001110200405405064090740C02480A0340
1001
ACAD
1000
AcDbSavedByObjectVersion
1070
     0
  0
ACAD_PROXY_OBJECT
  5
3B
102
{ACAD_REACTORS
330
2A
102
}
330
2A
100
AcDbProxyObject
 90
      499
 91
      501
 93
      428
310
42529A5D1D195C93D999914409028333333333333E33F0000000000000F9010790141107004050150A41D405064090741402480A0350
1001
ACAD
1000
AcDbSavedByObjectVersion
1070
     0
  0
ACAD_PROXY_OBJECT
  5
38
102
{ACAD_REACTORS
330
2A
102
}
330
2A
100
AcDbProxyObject
 90
      499
 91
      501
 93
      444
310
42D31A5B995C185D1D195C9B90E409028333333333333E33F0000000000000F9010790141107004050750841D405064090741402483A0350
1001
ACAD
1000
AcDbSavedByObjectVersion
1070
     0
  0
ACAD_PROXY_OBJECT
  5
3C
102
{ACAD_REACTORS
330
2A
102
}
330
2A
100
AcDbProxyObject
 90
      499
 91
      501
 93
      444
310
42D3DD995C9A185B99D3D999915409028333333333333E33F0000000000000F9010790141107004050150941D405064090741402480A0350
1001
ACAD
1000
AcDbSavedByObjectVersion
1070
     0
  0
ACAD_PROXY_OBJECT
  5
33
102
{ACAD_REACTORS
330
2A
102
}
330
2A
100
AcDbProxyObject
 90
      499
 91
      501
 93
      428
310
425499585B1A5CDD1A58D08409038333333333333E33F0000000000000F9010740A907004050150800405405064090740C02480A1B40
1001
ACAD
1000
AcDbSavedByObjectVersion
1070
     0
  0
ACAD_PROXY_OBJECT
  5
42
102
{ACAD_REACTORS
330
2A
102
}
330
2A
100
AcDbProxyObject
 90
      499
 91
      501
 93
      420
310
4194DA1859195911B40902404333333333333E33F0000000000000F9010740A41107004050150800405405064090840C02480A0B40
1001
ACAD
1000
AcDbSavedByObjectVersion
1070
     0
  0
ACAD_PROXY_OBJECT
  5
41
102
{ACAD_REACTORS
330
2A
102
}
330
2A
100
AcDbProxyObject
 90
      499
 91
      501
 93
      516
310
4454DA18591959081DDA5D1A08195919D95CD1A40902404333333333333E33F0000000000000F901074090142907004050250800405405064090740C02480A0B40
1001
ACAD
1000
AcDbSavedByObjectVersion
1070
     0
  0
ACAD_PROXY_OBJECT
  5
3E
102
{ACAD_REACTORS
330
2A
102
}
330
2A
100
AcDbProxyObject
 90
      499
 91
      501
 93
      532
310
4394DA1859195CC81BD98811DC985E5174090240C333333333333E33F0000000000000F901079024090741D01000000000000111010841D405064090740C02480A0340
1001
ACAD
1000
AcDbSavedByObjectVersion
1070
     0
  0
ACAD_PROXY_OBJECT
  5
3F
102
{ACAD_REACTORS
330
2A
102
}
330
2A
100
AcDbProxyObject
 90
      499
 91
      501
 93
      476
310
41D4DAD95D18DA1E51840502408333333333333E33F0000000000000F901079024090741D01000000000000111010B41D405064090741802480A0340
1001
ACAD
1000
AcDbSavedByObjectVersion
1070
     0
  0
ACAD_PROXY_OBJECT
  5
37
102
{ACAD_REACTORS
330
2A
102
}
330
2A
100
AcDbProxyObject
 90
      499
 91
      501
 93
      412
310
41D51A1A58DAD95B90D409028333333333333E33F0000000000000F9010790141107004050150C41D405064090741402480A0350
1001
ACAD
1000
AcDbSavedByObjectVersion
1070
     0
  0
ACAD_PROXY_OBJECT
  5
30
102
{ACAD_REACTORS
330
2A
102
}
330
2A
100
AcDbProxyObject
 90
      499
 91
      501
 93
      420
310
4255DA5C99599C985B595059028333333333333E33F0000000000000F90107901411070040501600405405064090740C02480A0340
1001
ACAD
1000
AcDbSavedByObjectVersion
1070
     0
  0
ACAD_PROXY_OBJECT
  5
40
102
{ACAD_REACTORS
330
2A
102
}
330
2A
100
AcDbProxyObject
 90
      499
 91
      501
 93
      404
310
41560B54985E51940902404000000000000E03F0000000000000F9010740501907004050150841D405064090740C02480A1B40
1001
ACAD
1000
AcDbSavedByObjectVersion
1070
     0
  0
XRECORD
  5
1FA
102
{ACAD_REACTORS
330
1F0
102
}
330
1F0
100
AcDbXrecord
340
0
  0
XRECORD
  5
1F9
102
{ACAD_REACTORS
330
1F0
102
}
330
1F0
100
AcDbXrecord
 90
        0
  0
XRECORD
  5
210
102
{ACAD_REACTORS
330
1F0
102
}
330
1F0
100
AcDbXrecord
1000
DSTYLE
1002
{
1070
   171
 70
     2
1070
   143
 40
25.4
1070
   274
 70
     2
1070
    41
 40
0.18
1070
   141
 40
0.09
1070
   271
 70
     4
1070
    43
 40
0.38
1070
   278
 70
    46
1070
    44
 40
0.18
1070
    42
 40
0.0625
1070
   147
 40
0.09
1070
    77
 70
     0
1070
   272
 70
     4
1070
    73
 70
     1
1070
   172
 70
     0
1070
    74
 70
     1
1070
   283
 70
     1
1070
   340
340
11
1070
   140
 40
0.18
1070
   284
 70
     0
1070
    78
 70
     0
1002
}
  0
XRECORD
  5
1FB
102
{ACAD_REACTORS
330
1F0
102
}
330
1F0
100
AcDbXrecord
  1
{C1B4B74C-DF21-4BF4-A21A-18968A53ED3F}
  0
XRECORD
  5
1F3
102
{ACAD_REACTORS
330
1F0
102
}
330
1F0
100
AcDbXrecord
  1

  0
XRECORD
  5
1F8
102
{ACAD_REACTORS
330
1F0
102
}
330
1F0
100
AcDbXrecord
 90
        4
  0
XRECORD
  5
1F5
102
{ACAD_REACTORS
330
1F0
102
}
330
1F0
100
AcDbXrecord
340
1A
  0
XRECORD
  5
1F7
102
{ACAD_REACTORS
330
1F0
102
}
330
1F0
100
AcDbXrecord
 90
    10781
  0
XRECORD
  5
1F6
102
{ACAD_REACTORS
330
1F0
102
}
330
1F0
100
AcDbXrecord
340
19
  0
XRECORD
  5
1FD
102
{ACAD_REACTORS
330
1F0
102
}
330
1F0
100
AcDbXrecord
 40
0.0
  0
XRECORD
  5
200
102
{ACAD_REACTORS
330
1F0
102
}
330
1F0
100
AcDbXrecord
340
0
  0
XRECORD
  5
206
102
{ACAD_REACTORS
330
1F0
102
}
330
1F0
100
AcDbXrecord
 10
0.0
 20
0.0
 30
0.0
  0
XRECORD
  5
202
102
{ACAD_REACTORS
330
1F0
102
}
330
1F0
100
AcDbXrecord
 10
0.0
 20
0.0
 30
0.0
  0
XRECORD
  5
205
102
{ACAD_REACTORS
330
1F0
102
}
330
1F0
100
AcDbXrecord
 10
0.0
 20
0.0
 30
0.0
  0
XRECORD
  5
203
102
{ACAD_REACTORS
330
1F0
102
}
330
1F0
100
AcDbXrecord
 10
0.0
 20
0.0
 30
0.0
  0
XRECORD
  5
204
102
{ACAD_REACTORS
330
1F0
102
}
330
1F0
100
AcDbXrecord
 10
0.0
 20
0.0
 30
0.0
  0
XRECORD
  5
201
102
{ACAD_REACTORS
330
1F0
102
}
330
1F0
100
AcDbXrecord
 10
0.0
 20
0.0
 30
0.0
  0
XRECORD
  5
1FE
102
{ACAD_REACTORS
330
1F0
102
}
330
1F0
100
AcDbXrecord
340
0
  0
XRECORD
  5
1FF
102
{ACAD_REACTORS
330
1F0
102
}
330
1F0
100
AcDbXrecord
 70
     0
  0
XRECORD
  5
1F4
102
{ACAD_REACTORS
330
1F0
102
}
330
1F0
100
AcDbXrecord
  1

  0
XRECORD
  5
1F1
102
{ACAD_REACTORS
330
1F0
102
}
330
1F0
100
AcDbXrecord
 90
        1
  0
XRECORD
  5
1F2
102
{ACAD_REACTORS
330
1F0
102
}
330
1F0
100
AcDbXrecord
 90
       70
  0
XRECORD
  5
209
102
{ACAD_REACTORS
330
1F0
102
}
330
1F0
100
AcDbXrecord
340
0
  0
XRECORD
  5
20F
102
{ACAD_REACTORS
330
1F0
102
}
330
1F0
100
AcDbXrecord
 10
0.0
 20
0.0
 30
0.0
  0
XRECORD
  5
20B
102
{ACAD_REACTORS
330
1F0
102
}
330
1F0
100
AcDbXrecord
 10
0.0
 20
0.0
 30
0.0
  0
XRECORD
  5
20E
102
{ACAD_REACTORS
330
1F0
102
}
330
1F0
100
AcDbXrecord
 10
0.0
 20
0.0
 30
0.0
  0
XRECORD
  5
20C
102
{ACAD_REACTORS
330
1F0
102
}
330
1F0
100
AcDbXrecord
 10
0.0
 20
0.0
 30
0.0
  0
XRECORD
  5
20D
102
{ACAD_REACTORS
330
1F0
102
}
330
1F0
100
AcDbXrecord
 10
0.0
 20
0.0
 30
0.0
  0
XRECORD
  5
20A
102
{ACAD_REACTORS
330
1F0
102
}
330
1F0
100
AcDbXrecord
 10
0.0
 20
0.0
 30
0.0
  0
XRECORD
  5
207
102
{ACAD_REACTORS
330
1F0
102
}
330
1F0
100
AcDbXrecord
340
0
  0
XRECORD
  5
208
102
{ACAD_REACTORS
330
1F0
102
}
330
1F0
100
AcDbXrecord
 70
     0
  0
XRECORD
  5
1FC
102
{ACAD_REACTORS
330
1F0
102
}
330
1F0
100
AcDbXrecord
  1
{FAEB1C32-E019-11D5-929B-00C0DF256EC4}
  0
DICTIONARYVAR
  5
21A
102
{ACAD_REACTORS
330
211
102
}
330
211
100
DictionaryVariables
280
     0
  1
1:1
  0
DICTIONARYVAR
  5
213
102
{ACAD_REACTORS
330
211
102
}
330
211
100
DictionaryVariables
280
     0
  1
Standard
  0
DICTIONARYVAR
  5
212
102
{ACAD_REACTORS
330
211
102
}
330
211
100
DictionaryVariables
280
     0
  1
Standard
  0
DICTIONARYVAR
  5
216
102
{ACAD_REACTORS
330
211
102
}
330
211
100
DictionaryVariables
280
     0
  1
2
  0
DICTIONARYVAR
  5
217
102
{ACAD_REACTORS
330
211
102
}
330
211
100
DictionaryVariables
280
     0
  1
1
  0
DICTIONARYVAR
  5
21B
102
{ACAD_REACTORS
330
211
102
}
330
211
100
DictionaryVariables
280
     0
  1
1
  0
DICTIONARY
  5
21E
330
45
100
AcDbDictionary
280
     1
  3
ACAD_XREC_ROUNDTRIP
360
21F
  0
DICTIONARY
  5
21C
330
44
100
AcDbDictionary
280
     1
  3
ACAD_XREC_ROUNDTRIP
360
21D
  0
DICTIONARY
  5
220
330
46
100
AcDbDictionary
280
     1
  3
ACAD_XREC_ROUNDTRIP
360
221
  0
XRECORD
  5
21F
102
{ACAD_REACTORS
330
21E
102
}
330
21E
100
AcDbXrecord
102
MATERIAL
148
0.0
149
0.0
149
0.0
 93
        0
 94
      127
282
     0
 72
     1
 77
     1
171
     1
175
     1
179
     1
273
     0
  0
XRECORD
  5
21D
102
{ACAD_REACTORS
330
21C
102
}
330
21C
100
AcDbXrecord
102
MATERIAL
148
0.0
149
0.0
149
0.0
 93
        0
 94
      127
282
     0
 72
     1
 77
     1
171
     1
175
     1
179
     1
273
     0
  0
XRECORD
  5
221
102
{ACAD_REACTORS
330
220
102
}
330
220
100
AcDbXrecord
102
MATERIAL
148
0.0
149
0.0
149
0.0
 93
        0
 94
      127
282
     0
 72
     1
 77
     1
171
     1
175
     1
179
     1
273
     0
  0
ENDSEC
  0
EOF
