solid OpenSCAD_Model
  facet normal -1 0 0
    outer loop
      vertex 0 0 0
      vertex 0 0 5
      vertex 0 7.5 0
    endloop
  endfacet
  facet normal -1 0 0
    outer loop
      vertex 0 7.5 0
      vertex 0 0 5
      vertex 0 7.5 5
    endloop
  endfacet
  facet normal 0 -1 0
    outer loop
      vertex 0 0 5
      vertex 0 0 0
      vertex 8 0 0
    endloop
  endfacet
  facet normal 0 -1 0
    outer loop
      vertex 8 0 5
      vertex 0 0 5
      vertex 8 0 0
    endloop
  endfacet
  facet normal 0 0 -1
    outer loop
      vertex 4.85 5.22224 0
      vertex 0 7.5 0
      vertex 8 7.5 0
    endloop
  endfacet
  facet normal 0 0 -1
    outer loop
      vertex 0 0 0
      vertex 0 7.5 0
      vertex 2.3 3.75 0
    endloop
  endfacet
  facet normal 0 0 -1
    outer loop
      vertex 0 0 0
      vertex 2.3 3.75 0
      vertex 3.15 2.27776 0
    endloop
  endfacet
  facet normal 0 0 -1
    outer loop
      vertex 0 0 0
      vertex 3.15 2.27776 0
      vertex 8 0 0
    endloop
  endfacet
  facet normal 0 0 -1
    outer loop
      vertex 4.85 2.27776 0
      vertex 8 0 0
      vertex 3.15 2.27776 0
    endloop
  endfacet
  facet normal 0 0 -1
    outer loop
      vertex 5.7 3.75 0
      vertex 8 0 0
      vertex 4.85 2.27776 0
    endloop
  endfacet
  facet normal 0 0 -1
    outer loop
      vertex 8 0 0
      vertex 5.7 3.75 0
      vertex 8 7.5 0
    endloop
  endfacet
  facet normal 0 0 -1
    outer loop
      vertex 5.7 3.75 0
      vertex 4.85 5.22224 0
      vertex 8 7.5 0
    endloop
  endfacet
  facet normal 0 0 -1
    outer loop
      vertex 3.15 5.22224 0
      vertex 0 7.5 0
      vertex 4.85 5.22224 0
    endloop
  endfacet
  facet normal 0 0 -1
    outer loop
      vertex 2.3 3.75 0
      vertex 0 7.5 0
      vertex 3.15 5.22224 0
    endloop
  endfacet
  facet normal 0 1 0
    outer loop
      vertex 0 7.5 0
      vertex 0 7.5 5
      vertex 8 7.5 0
    endloop
  endfacet
  facet normal 0 1 0
    outer loop
      vertex 8 7.5 0
      vertex 0 7.5 5
      vertex 8 7.5 5
    endloop
  endfacet
  facet normal 0 0 1
    outer loop
      vertex 2.45 1.06532 5
      vertex 0 0 5
      vertex 8 0 5
    endloop
  endfacet
  facet normal 0 0 1
    outer loop
      vertex 5.55 1.06532 5
      vertex 2.45 1.06532 5
      vertex 8 0 5
    endloop
  endfacet
  facet normal 0 0 1
    outer loop
      vertex 0.9 3.75 5
      vertex 0 0 5
      vertex 2.45 1.06532 5
    endloop
  endfacet
  facet normal 0 0 1
    outer loop
      vertex 0 7.5 5
      vertex 0 0 5
      vertex 0.9 3.75 5
    endloop
  endfacet
  facet normal 0 0 1
    outer loop
      vertex 8 7.5 5
      vertex 0 7.5 5
      vertex 2.45 6.43468 5
    endloop
  endfacet
  facet normal 0 0 1
    outer loop
      vertex 8 7.5 5
      vertex 2.45 6.43468 5
      vertex 5.55 6.43468 5
    endloop
  endfacet
  facet normal 0 0 1
    outer loop
      vertex 8 7.5 5
      vertex 7.1 3.75 5
      vertex 8 0 5
    endloop
  endfacet
  facet normal 0 0 1
    outer loop
      vertex 8 7.5 5
      vertex 5.55 6.43468 5
      vertex 7.1 3.75 5
    endloop
  endfacet
  facet normal 0 0 1
    outer loop
      vertex 7.1 3.75 5
      vertex 5.55 1.06532 5
      vertex 8 0 5
    endloop
  endfacet
  facet normal 0 0 1
    outer loop
      vertex 0.9 3.75 5
      vertex 2.45 6.43468 5
      vertex 0 7.5 5
    endloop
  endfacet
  facet normal 1 0 0
    outer loop
      vertex 8 0 5
      vertex 8 0 0
      vertex 8 7.5 0
    endloop
  endfacet
  facet normal 1 0 0
    outer loop
      vertex 8 7.5 5
      vertex 8 0 5
      vertex 8 7.5 0
    endloop
  endfacet
  facet normal 0.866025 -0.5 0
    outer loop
      vertex 3.15 5.22224 0
      vertex 3.15 5.22224 2.35
      vertex 2.3 3.75 2.35
    endloop
  endfacet
  facet normal 0.866025 -0.5 0
    outer loop
      vertex 2.3 3.75 0
      vertex 3.15 5.22224 0
      vertex 2.3 3.75 2.35
    endloop
  endfacet
  facet normal 0.866025 0.5 0
    outer loop
      vertex 2.3 3.75 2.35
      vertex 3.15 2.27776 2.35
      vertex 3.15 2.27776 0
    endloop
  endfacet
  facet normal 0.866025 0.5 0
    outer loop
      vertex 2.3 3.75 0
      vertex 2.3 3.75 2.35
      vertex 3.15 2.27776 0
    endloop
  endfacet
  facet normal 0 -1 0
    outer loop
      vertex 4.85 5.22224 0
      vertex 4.85 5.22224 2.35
      vertex 3.15 5.22224 2.35
    endloop
  endfacet
  facet normal 0 -1 0
    outer loop
      vertex 3.15 5.22224 0
      vertex 4.85 5.22224 0
      vertex 3.15 5.22224 2.35
    endloop
  endfacet
  facet normal -0.866025 -0.5 0
    outer loop
      vertex 5.7 3.75 2.35
      vertex 4.85 5.22224 2.35
      vertex 5.7 3.75 0
    endloop
  endfacet
  facet normal -0.866025 -0.5 0
    outer loop
      vertex 5.7 3.75 0
      vertex 4.85 5.22224 2.35
      vertex 4.85 5.22224 0
    endloop
  endfacet
  facet normal -0.866025 0.5 0
    outer loop
      vertex 5.7 3.75 2.35
      vertex 5.7 3.75 0
      vertex 4.85 2.27776 2.35
    endloop
  endfacet
  facet normal -0.866025 0.5 0
    outer loop
      vertex 4.85 2.27776 2.35
      vertex 5.7 3.75 0
      vertex 4.85 2.27776 0
    endloop
  endfacet
  facet normal 0 1 0
    outer loop
      vertex 4.85 2.27776 2.35
      vertex 4.85 2.27776 0
      vertex 3.15 2.27776 2.35
    endloop
  endfacet
  facet normal 0 1 0
    outer loop
      vertex 3.15 2.27776 2.35
      vertex 4.85 2.27776 0
      vertex 3.15 2.27776 0
    endloop
  endfacet
  facet normal 0.866025 0.5 0
    outer loop
      vertex 0.9 3.75 5
      vertex 2.45 1.06532 5
      vertex 2.45 1.06532 2.35
    endloop
  endfacet
  facet normal 0.866025 0.5 0
    outer loop
      vertex 0.9 3.75 2.35
      vertex 0.9 3.75 5
      vertex 2.45 1.06532 2.35
    endloop
  endfacet
  facet normal 0 1 0
    outer loop
      vertex 5.55 1.06532 5
      vertex 5.55 1.06532 2.35
      vertex 2.45 1.06532 5
    endloop
  endfacet
  facet normal 0 1 0
    outer loop
      vertex 2.45 1.06532 5
      vertex 5.55 1.06532 2.35
      vertex 2.45 1.06532 2.35
    endloop
  endfacet
  facet normal -0.866025 0.5 0
    outer loop
      vertex 7.1 3.75 5
      vertex 7.1 3.75 2.35
      vertex 5.55 1.06532 5
    endloop
  endfacet
  facet normal -0.866025 0.5 0
    outer loop
      vertex 5.55 1.06532 5
      vertex 7.1 3.75 2.35
      vertex 5.55 1.06532 2.35
    endloop
  endfacet
  facet normal -0.866025 -0.5 0
    outer loop
      vertex 7.1 3.75 5
      vertex 5.55 6.43468 5
      vertex 7.1 3.75 2.35
    endloop
  endfacet
  facet normal -0.866025 -0.5 0
    outer loop
      vertex 7.1 3.75 2.35
      vertex 5.55 6.43468 5
      vertex 5.55 6.43468 2.35
    endloop
  endfacet
  facet normal 0 -1 0
    outer loop
      vertex 5.55 6.43468 2.35
      vertex 5.55 6.43468 5
      vertex 2.45 6.43468 5
    endloop
  endfacet
  facet normal 0 -1 0
    outer loop
      vertex 2.45 6.43468 2.35
      vertex 5.55 6.43468 2.35
      vertex 2.45 6.43468 5
    endloop
  endfacet
  facet normal 0.866025 -0.5 0
    outer loop
      vertex 2.45 6.43468 2.35
      vertex 2.45 6.43468 5
      vertex 0.9 3.75 5
    endloop
  endfacet
  facet normal 0.866025 -0.5 0
    outer loop
      vertex 0.9 3.75 2.35
      vertex 2.45 6.43468 2.35
      vertex 0.9 3.75 5
    endloop
  endfacet
  facet normal 0 0 1
    outer loop
      vertex 4.85 2.27776 2.35
      vertex 5.55 1.06532 2.35
      vertex 7.1 3.75 2.35
    endloop
  endfacet
  facet normal 0 0 1
    outer loop
      vertex 5.7 3.75 2.35
      vertex 4.85 2.27776 2.35
      vertex 7.1 3.75 2.35
    endloop
  endfacet
  facet normal 0 0 1
    outer loop
      vertex 0.9 3.75 2.35
      vertex 2.3 3.75 2.35
      vertex 2.45 6.43468 2.35
    endloop
  endfacet
  facet normal 0 0 1
    outer loop
      vertex 0.9 3.75 2.35
      vertex 2.45 1.06532 2.35
      vertex 2.3 3.75 2.35
    endloop
  endfacet
  facet normal 0 0 1
    outer loop
      vertex 2.45 6.43468 2.35
      vertex 3.15 5.22224 2.35
      vertex 5.55 6.43468 2.35
    endloop
  endfacet
  facet normal 0 0 1
    outer loop
      vertex 5.55 6.43468 2.35
      vertex 4.85 5.22224 2.35
      vertex 7.1 3.75 2.35
    endloop
  endfacet
  facet normal 0 0 1
    outer loop
      vertex 4.85 5.22224 2.35
      vertex 5.7 3.75 2.35
      vertex 7.1 3.75 2.35
    endloop
  endfacet
  facet normal 0 0 1
    outer loop
      vertex 2.45 1.06532 2.35
      vertex 5.55 1.06532 2.35
      vertex 4.85 2.27776 2.35
    endloop
  endfacet
  facet normal 0 0 1
    outer loop
      vertex 4.85 2.27776 2.35
      vertex 3.15 2.27776 2.35
      vertex 2.45 1.06532 2.35
    endloop
  endfacet
  facet normal 0 0 1
    outer loop
      vertex 3.15 5.22224 2.35
      vertex 4.85 5.22224 2.35
      vertex 5.55 6.43468 2.35
    endloop
  endfacet
  facet normal 0 0 1
    outer loop
      vertex 2.3 3.75 2.35
      vertex 3.15 5.22224 2.35
      vertex 2.45 6.43468 2.35
    endloop
  endfacet
  facet normal 0 0 1
    outer loop
      vertex 3.15 2.27776 2.35
      vertex 2.3 3.75 2.35
      vertex 2.45 1.06532 2.35
    endloop
  endfacet
endsolid OpenSCAD_Model
